<svg width="24" height="24" viewBox="0 0 24 24" fill="none" xmlns="http://www.w3.org/2000/svg">
<path fill-rule="evenodd" clip-rule="evenodd" d="M12 1C5.92487 1 1 5.92487 1 12C1 18.0751 5.92487 23 12 23C18.0751 23 23 18.0751 23 12C23 5.92487 18.0751 1 12 1ZM12 3C16.9706 3 21 7.02944 21 12C21 16.9706 16.9706 21 12 21C7.02944 21 3 16.9706 3 12C3 7.02944 7.02944 3 12 3ZM16.6 13.2C16.1582 12.8686 15.5314 12.9582 15.2 13.4L15.0712 13.5544C14.9132 13.7291 14.6688 13.9589 14.3493 14.1913C13.6494 14.7003 12.8627 15 12 15C11.1373 15 10.3506 14.7003 9.65067 14.1913C9.22472 13.8815 8.93212 13.5762 8.8 13.4C8.46863 12.9582 7.84183 12.8686 7.4 13.2C6.95817 13.5314 6.86863 14.1582 7.2 14.6C7.44288 14.9238 7.86903 15.3685 8.47433 15.8087C9.49311 16.5497 10.6752 17 12 17C13.3248 17 14.5069 16.5497 15.5257 15.8087C16.131 15.3685 16.5571 14.9238 16.8 14.6C17.1314 14.1582 17.0418 13.5314 16.6 13.2ZM9.01 8C9.56228 8 10.01 8.44772 10.01 9C10.01 9.51284 9.62396 9.93551 9.12662 9.99327L9 10C8.44772 10 8 9.55229 8 9C8 8.48716 8.38604 8.06449 8.88338 8.00673L9.01 8ZM16.01 9C16.01 8.44772 15.5623 8 15.01 8L14.8834 8.00673C14.386 8.06449 14 8.48716 14 9C14 9.55229 14.4477 10 15 10L15.1266 9.99327C15.624 9.93551 16.01 9.51284 16.01 9Z" fill="#FDC748"/>
</svg>
