<svg width="24" height="24" viewBox="0 0 24 24" fill="none" xmlns="http://www.w3.org/2000/svg">
<path fill-rule="evenodd" clip-rule="evenodd" d="M14.4361 2.30094C9.99 1.18385 5.35367 3.23279 3.18649 7.27252C1.01931 11.3122 1.87631 16.3082 5.26591 19.3947C8.65552 22.4812 13.7097 22.8679 17.5293 20.3329C17.9895 20.0275 18.1149 19.4069 17.8095 18.9467C17.5042 18.4865 16.8835 18.3611 16.4234 18.6665C13.3676 20.6945 9.3242 20.3852 6.61247 17.9159C3.90073 15.4467 3.21512 11.4498 4.9489 8.21799C6.68267 4.98615 10.3918 3.34696 13.9488 4.24065C17.5058 5.13434 19.9996 8.33204 20 11.9996C20 13.8247 19.4251 14.7495 18.375 14.7495C17.3249 14.7495 16.75 13.8247 16.75 11.9995V8.24948L16.7432 8.13286C16.6855 7.63552 16.2628 7.24948 15.75 7.24948C15.2378 7.24948 14.8155 7.63456 14.7569 8.13099C13.9796 7.57601 13.0279 7.24948 12 7.24948C9.3766 7.24948 7.24995 9.37613 7.24995 11.9995C7.24995 14.6228 9.3766 16.7495 12 16.7495C13.3913 16.7495 14.6429 16.1513 15.5116 15.1981C16.113 16.1721 17.0691 16.7495 18.375 16.7495C20.7811 16.7495 22 14.7889 22 11.9995C21.9996 7.41507 18.8823 3.41803 14.4361 2.30094ZM14.75 11.9995C14.75 10.4807 13.5187 9.24948 12 9.24948C10.4812 9.24948 9.24995 10.4807 9.24995 11.9995C9.24995 13.5183 10.4812 14.7495 12 14.7495C13.5187 14.7495 14.75 13.5183 14.75 11.9995Z" fill="#3F8CFF"/>
</svg>
