<svg width="20" height="20" viewBox="0 0 20 20" fill="none" xmlns="http://www.w3.org/2000/svg">
<path fill-rule="evenodd" clip-rule="evenodd" d="M19 0C19.5523 0 20 0.447715 20 1C20 1.51284 19.614 1.93551 19.1166 1.99327L19 2H1C0.447715 2 0 1.55228 0 1C0 0.487164 0.38604 0.0644928 0.883379 0.00672773L1 0H19ZM18 5.76923V12.2308C18 13.7602 16.6569 15 15 15H14C12.3431 15 11 13.7602 11 12.2308V5.76923C11 4.23983 12.3431 3 14 3H15C16.6569 3 18 4.23983 18 5.76923ZM16 12.1111V5.88889C16 5.39797 15.5523 5 15 5H14C13.4477 5 13 5.39797 13 5.88889V12.1111C13 12.602 13.4477 13 14 13H15C15.5523 13 16 12.602 16 12.1111ZM6 3H5C3.34315 3 2 4.42709 2 6.1875V16.8125C2 18.5729 3.34315 20 5 20H6C7.65685 20 9 18.5729 9 16.8125V6.1875C9 4.42709 7.65685 3 6 3ZM5 5H6C6.55228 5 7 5.48502 7 6.08333V16.9167C7 17.515 6.55228 18 6 18H5C4.44772 18 4 17.515 4 16.9167V6.08333C4 5.48502 4.44772 5 5 5Z" fill="#3F8CFF"/>
</svg>
