<svg width="24" height="24" viewBox="0 0 24 24" fill="none" xmlns="http://www.w3.org/2000/svg">
<path fill-rule="evenodd" clip-rule="evenodd" d="M11 2C12.5977 2 13.9037 3.24892 13.9949 4.82373L14 5V8H19C20.5977 8 21.9037 9.24892 21.9949 10.8237L22 11V21C22 21.5523 21.5523 22 21 22C20.4872 22 20.0645 21.614 20.0067 21.1166L20 21V11C20 10.4872 19.614 10.0645 19.1166 10.0067L19 10H14V21C14 21.5523 13.5523 22 13 22C12.4872 22 12.0645 21.614 12.0067 21.1166L12 21V9V5C12 4.48716 11.614 4.06449 11.1166 4.00673L11 4H5C4.48716 4 4.06449 4.38604 4.00673 4.88338L4 5V21C4 21.5523 3.55228 22 3 22C2.48716 22 2.06449 21.614 2.00673 21.1166L2 21V5C2 3.40232 3.24892 2.09634 4.82373 2.00509L5 2H11ZM11 7C11 6.44772 10.5523 6 10 6H6L5.88338 6.00673C5.38604 6.06449 5 6.48716 5 7C5 7.55228 5.44772 8 6 8H10L10.1166 7.99327C10.614 7.93551 11 7.51284 11 7ZM6 13H10C10.5523 13 11 13.4477 11 14C11 14.5128 10.614 14.9355 10.1166 14.9933L10 15H6C5.44772 15 5 14.5523 5 14C5 13.4872 5.38604 13.0645 5.88338 13.0067L6 13ZM11 18C11 17.4477 10.5523 17 10 17H6L5.88338 17.0067C5.38604 17.0645 5 17.4872 5 18C5 18.5523 5.44772 19 6 19H10L10.1166 18.9933C10.614 18.9355 11 18.5128 11 18ZM18 15C18.5523 15 19 15.4477 19 16C19 16.5128 18.614 16.9355 18.1166 16.9933L18 17H16C15.4477 17 15 16.5523 15 16C15 15.4872 15.386 15.0645 15.8834 15.0067L16 15H18ZM19 13C19 12.4477 18.5523 12 18 12H16L15.8834 12.0067C15.386 12.0645 15 12.4872 15 13C15 13.5523 15.4477 14 16 14H18L18.1166 13.9933C18.614 13.9355 19 13.5128 19 13Z" fill="#3F8CFF"/>
</svg>
