<svg width="24" height="24" viewBox="0 0 24 24" fill="none" xmlns="http://www.w3.org/2000/svg">
<path fill-rule="evenodd" clip-rule="evenodd" d="M11.9998 3.42842C12.1126 3.25703 12.2374 3.10193 12.3754 2.96392C13.6626 1.67817 15.7482 1.67877 17.0347 2.96525C18.1291 4.0596 18.2929 5.73223 17.5258 7H19C20.6569 7 22 8.34315 22 10V11C22 12.3062 21.1652 13.4175 20 13.8293V19C20 20.5977 18.7511 21.9037 17.1763 21.9949L17 22H12H7C5.40232 22 4.09634 20.7511 4.00509 19.1763L4 19V13.8293C2.83481 13.4175 2 12.3062 2 11V10C2 8.34315 3.34315 7 5 7H6.47409C5.70701 5.73244 5.87082 4.05968 6.96525 2.96525C8.25173 1.67877 10.3373 1.67817 11.625 2.96433C11.7627 3.10211 11.8872 3.25706 11.9998 3.42842ZM15.621 6.21115C16.1265 5.70512 16.1263 4.88521 15.6205 4.37946L15.5154 4.28505C15.0068 3.87593 14.2611 3.90715 13.7892 4.37854C13.5344 4.63336 13.2956 5.30811 13.1516 6.20853C13.1221 6.393 13.0975 6.57669 13.0774 6.75608L13.058 6.94L13.419 6.90143L13.7862 6.84932L14.1413 6.78568C14.8727 6.6394 15.4062 6.42599 15.621 6.21115ZM13 20H17C17.5128 20 17.9355 19.614 17.9933 19.1166L18 19V14H13V20ZM11 14V20H7L6.88338 19.9933C6.38604 19.9355 6 19.5128 6 19V14H11ZM13 12H19C19.5523 12 20 11.5523 20 11V10C20 9.44772 19.5523 9 19 9H13V12ZM11 9V12H5C4.44772 12 4 11.5523 4 11V10C4 9.44772 4.44772 9 5 9H11ZM10.2112 4.37894C10.426 4.59378 10.6394 5.12729 10.7857 5.85869L10.8493 6.21381L10.9014 6.58098L10.94 6.94L10.581 6.90143C10.333 6.87042 10.0906 6.83205 9.85869 6.78568C9.1273 6.6394 8.59378 6.42599 8.37854 6.21075C7.87348 5.70512 7.87372 4.88521 8.37946 4.37946C8.88521 3.87372 9.70512 3.87348 10.2112 4.37894Z" fill="#DE92EB"/>
</svg>
