<svg width="24" height="24" viewBox="0 0 24 24" fill="none" xmlns="http://www.w3.org/2000/svg">
<path fill-rule="evenodd" clip-rule="evenodd" d="M9 2C6.23858 2 4 4.23858 4 7C4 9.76142 6.23858 12 9 12C11.7614 12 14 9.76142 14 7C14 4.23858 11.7614 2 9 2ZM9 4C10.6569 4 12 5.34315 12 7C12 8.65685 10.6569 10 9 10C7.34315 10 6 8.65685 6 7C6 5.34315 7.34315 4 9 4ZM17.9954 18.7831C17.8818 16.1223 15.6888 14 13 14H5L4.78311 14.0046C2.12231 14.1182 0 16.3112 0 19V21L0.00672773 21.1166C0.0644928 21.614 0.487164 22 1 22C1.55228 22 2 21.5523 2 21V19L2.00509 18.8237C2.09634 17.2489 3.40232 16 5 16H13L13.1763 16.0051C14.7511 16.0963 16 17.4023 16 19V21L16.0067 21.1166C16.0645 21.614 16.4872 22 17 22C17.5523 22 18 21.5523 18 21V19L17.9954 18.7831ZM19.0318 14.88C19.1698 14.3453 19.7153 14.0237 20.25 14.1618C22.3827 14.7124 23.8948 16.5896 23.9947 18.7731L24 19V21C24 21.5523 23.5523 22 23 22C22.4872 22 22.0645 21.614 22.0067 21.1166L22 21V19.0007C21.999 17.6336 21.0737 16.44 19.75 16.0982C19.2153 15.9602 18.8937 15.4147 19.0318 14.88ZM16.248 2.16125C15.713 2.02426 15.1682 2.34694 15.0312 2.88196C14.8943 3.41699 15.2169 3.96176 15.752 4.09875C17.0794 4.43863 18.0078 5.63474 18.0078 7.005C18.0078 8.37526 17.0794 9.57137 15.752 9.91125C15.2169 10.0482 14.8943 10.593 15.0312 11.128C15.1682 11.6631 15.713 11.9857 16.248 11.8487C18.4604 11.2823 20.0078 9.28876 20.0078 7.005C20.0078 4.72124 18.4604 2.72771 16.248 2.16125Z" fill="#FDC748"/>
</svg>
