<svg width="24" height="24" viewBox="0 0 24 24" fill="none" xmlns="http://www.w3.org/2000/svg">
<path fill-rule="evenodd" clip-rule="evenodd" d="M7.6129 1.2097C7.22061 0.90468 6.65338 0.932409 6.29289 1.29289C5.90237 1.68342 5.90237 2.31658 6.29289 2.70711L9.58579 6H5C2.79086 6 1 7.79086 1 10V19C1 21.2091 2.79086 23 5 23H19C21.2091 23 23 21.2091 23 19V10C23 7.79086 21.2091 6 19 6H14.4142L17.7071 2.70711L17.7903 2.6129C18.0953 2.22061 18.0676 1.65338 17.7071 1.29289L17.6129 1.2097C17.2206 0.90468 16.6534 0.932409 16.2929 1.29289L12 5.585L7.70711 1.29289L7.6129 1.2097ZM12.0007 8C12.0003 8 11.9998 8 11.9994 8H5C3.89543 8 3 8.89543 3 10V19C3 20.1046 3.89543 21 5 21H19C20.1046 21 21 20.1046 21 19V10C21 8.89543 20.1046 8 19 8H12.0007Z" fill="#6D5DD3"/>
</svg>
