<svg width="24" height="24" viewBox="0 0 24 24" fill="none" xmlns="http://www.w3.org/2000/svg">
<path fill-rule="evenodd" clip-rule="evenodd" d="M22.008 11.1359C21.408 9.13593 19.608 7.63593 17.608 7.63593H16.408C15.708 4.63593 13.208 2.43593 10.208 2.03593C7.20803 1.73593 4.30803 3.33593 2.90803 6.03593C1.70803 8.53593 1.44282 12.6556 3.70042 15.0548C4.31486 15.3028 5.113 15.5059 6.03044 15.6673C6.08816 15.3379 6.22831 15.0143 6.45391 14.7252L6.57958 14.5858L10.5796 10.5858C11.2947 9.87067 12.428 9.80407 13.2205 10.4203L13.2686 10.4602L13.408 10.5858L17.408 14.5858C17.7708 14.9486 17.9651 15.4162 17.9908 15.8911C19.6102 15.7009 20.839 15.416 21.31 15.0548C22.308 14.322 22.308 12.5359 22.008 11.1359ZM16.0031 17C16.2559 16.9977 16.508 16.9 16.7009 16.7071C17.0914 16.3166 17.0914 15.6835 16.7009 15.2929L12.7009 11.2929L12.6067 11.2097C12.2144 10.9047 11.6472 10.9324 11.2867 11.2929L7.28668 15.2929L7.20349 15.3871C7.10299 15.5164 7.03862 15.6646 7.01036 15.8182C7.01238 15.8185 7.0144 15.8188 7.01642 15.819C6.95925 16.1313 7.05141 16.4656 7.29289 16.7071L7.3871 16.7903C7.56775 16.9308 7.7855 17.0007 8.00308 17C8.2559 16.9977 8.508 16.9 8.7009 16.7071L10.9938 14.415V16.1314C10.9959 16.1314 10.9979 16.1315 11 16.1316V21L11.0067 21.1166C11.0645 21.614 11.4872 22 12 22C12.0011 22 12.0021 22 12.0032 22C12.5511 21.995 12.9938 21.5492 12.9938 21V14.415L14.7076 16.1282C14.7096 16.1281 14.7116 16.1281 14.7137 16.128L15.2929 16.7071L15.3871 16.7903C15.5678 16.9308 15.7855 17.0007 16.0031 17Z" fill="#3F8CFF"/>
</svg>
