<svg width="24" height="24" viewBox="0 0 24 24" fill="none" xmlns="http://www.w3.org/2000/svg">
<path fill-rule="evenodd" clip-rule="evenodd" d="M6 2H17.0926C17.8274 2 18.5366 2.26964 19.0857 2.75777C20.3241 3.85853 20.4356 5.75474 19.3349 6.99309L14.5463 12.379V18.7639C14.5463 19.0598 14.4912 19.3523 14.3845 19.6269L14.2948 19.8292C13.7065 21.0058 12.2757 21.4827 11.0991 20.8944L10.2047 20.4472C9.18832 19.939 8.54631 18.9002 8.54631 17.7639V12.381L3.75777 6.99309C3.31845 6.49885 3.05611 5.87498 3.00804 5.21952L3 5C3 3.34315 4.34315 2 6 2ZM17.0926 4H6C5.44772 4 5 4.44772 5 5C5 5.24491 5.08988 5.48131 5.25259 5.66436L10.2937 11.3356C10.4564 11.5187 10.5463 11.7551 10.5463 12V17.7639C10.5463 18.1427 10.7603 18.489 11.0991 18.6584L11.9935 19.1056C12.1822 19.1999 12.4116 19.1234 12.506 18.9348C12.5325 18.8817 12.5463 18.8232 12.5463 18.7639V12C12.5463 11.7551 12.6362 11.5187 12.7989 11.3356L17.84 5.66436C18.207 5.25158 18.1698 4.61951 17.757 4.25259C17.5739 4.08988 17.3375 4 17.0926 4Z" fill="#0A1629"/>
</svg>
