<svg width="24" height="24" viewBox="0 0 24 24" fill="none" xmlns="http://www.w3.org/2000/svg">
<path fill-rule="evenodd" clip-rule="evenodd" d="M21 5C21.5523 5 22 5.44772 22 6C22 6.51284 21.614 6.93551 21.1166 6.99327L21 7H3C2.44772 7 2 6.55228 2 6C2 5.48716 2.38604 5.06449 2.88338 5.00673L3 5H21ZM21 11C21.5523 11 22 11.4477 22 12C22 12.5128 21.614 12.9355 21.1166 12.9933L21 13H3C2.44772 13 2 12.5523 2 12C2 11.4872 2.38604 11.0645 2.88338 11.0067L3 11H21ZM22 18C22 17.4477 21.5523 17 21 17H3L2.88338 17.0067C2.38604 17.0645 2 17.4872 2 18C2 18.5523 2.44772 19 3 19H21L21.1166 18.9933C21.614 18.9355 22 18.5128 22 18Z" fill="#0A1629"/>
</svg>
