<svg width="24" height="24" viewBox="0 0 24 24" fill="none" xmlns="http://www.w3.org/2000/svg">
<path fill-rule="evenodd" clip-rule="evenodd" d="M12 2C12.5128 2 12.9355 2.38604 12.9933 2.88338L13 3V4H15C16.6569 4 18 5.34315 18 7V8C18 9.65685 16.6569 11 15 11H13V13H19C20.6569 13 22 14.3431 22 16V17C22 18.6569 20.6569 20 19 20H13V21C13 21.5523 12.5523 22 12 22C11.4872 22 11.0645 21.614 11.0067 21.1166L11 21V20H10C8.34315 20 7 18.6569 7 17V16C7 14.3431 8.34315 13 10 13H11V11H5C3.34315 11 2 9.65685 2 8V7C2 5.34315 3.34315 4 5 4H11V3C11 2.44772 11.4477 2 12 2ZM12 18H19C19.5523 18 20 17.5523 20 17V16C20 15.4477 19.5523 15 19 15H10C9.44772 15 9 15.4477 9 16V17C9 17.5523 9.44772 18 10 18H12ZM15 9H12H5C4.44772 9 4 8.55228 4 8V7C4 6.44772 4.44772 6 5 6H12H15C15.5523 6 16 6.44772 16 7V8C16 8.55228 15.5523 9 15 9Z" fill="#0A1629"/>
</svg>
