<svg width="24" height="24" viewBox="0 0 24 24" fill="none" xmlns="http://www.w3.org/2000/svg">
<path fill-rule="evenodd" clip-rule="evenodd" d="M21 2C21.5523 2 22 2.44772 22 3C22 3.51284 21.614 3.93551 21.1166 3.99327L21 4H3C2.44772 4 2 3.55228 2 3C2 2.48716 2.38604 2.06449 2.88338 2.00673L3 2H21ZM20 7.76923V14.2308C20 15.7602 18.6569 17 17 17H16C14.3431 17 13 15.7602 13 14.2308V7.76923C13 6.23983 14.3431 5 16 5H17C18.6569 5 20 6.23983 20 7.76923ZM18 14.1111V7.88889C18 7.39797 17.5523 7 17 7H16C15.4477 7 15 7.39797 15 7.88889V14.1111C15 14.602 15.4477 15 16 15H17C17.5523 15 18 14.602 18 14.1111ZM8 5H7C5.34315 5 4 6.42709 4 8.1875V18.8125C4 20.5729 5.34315 22 7 22H8C9.65685 22 11 20.5729 11 18.8125V8.1875C11 6.42709 9.65685 5 8 5ZM7 7H8C8.55228 7 9 7.48502 9 8.08333V18.9167C9 19.515 8.55228 20 8 20H7C6.44772 20 6 19.515 6 18.9167V8.08333C6 7.48502 6.44772 7 7 7Z" fill="#0A1629"/>
</svg>
