<svg width="24" height="24" viewBox="0 0 24 24" fill="none" xmlns="http://www.w3.org/2000/svg">
<path fill-rule="evenodd" clip-rule="evenodd" d="M19.7903 11.3871L19.7071 11.2929L14.7071 6.29289C14.3166 5.90237 13.6834 5.90237 13.2929 6.29289C12.9324 6.65338 12.9047 7.22061 13.2097 7.6129L13.2929 7.70711L16.585 11H5C4.44772 11 4 11.4477 4 12C4 12.5128 4.38604 12.9355 4.88338 12.9933L5 13H16.585L13.2929 16.2929C12.9324 16.6534 12.9047 17.2206 13.2097 17.6129L13.2929 17.7071C13.6534 18.0676 14.2206 18.0953 14.6129 17.7903L14.7071 17.7071L19.7071 12.7071C20.0676 12.3466 20.0953 11.7794 19.7903 11.3871Z" fill="white"/>
</svg>
