<svg width="500" height="373" viewBox="0 0 500 373" fill="none" xmlns="http://www.w3.org/2000/svg">
<g opacity="0.917411" clip-path="url(#clip0_0_6930)">
<mask id="mask0_0_6930" style="mask-type:luminance" maskUnits="userSpaceOnUse" x="0" y="327" width="500" height="1">
<path fill-rule="evenodd" clip-rule="evenodd" d="M0 327H500V328H0V327Z" fill="white"/>
</mask>
<g mask="url(#mask0_0_6930)">
<path fill-rule="evenodd" clip-rule="evenodd" d="M0 327.625H500V327.375H0V327.625Z" fill="#E4E4DE"/>
</g>
<path fill-rule="evenodd" clip-rule="evenodd" d="M397 343.625H450V343.375H397V343.625Z" fill="#E4E4DE"/>
<path fill-rule="evenodd" clip-rule="evenodd" d="M273 340.625H332V340.375H273V340.625Z" fill="#E4E4DE"/>
<path fill-rule="evenodd" clip-rule="evenodd" d="M380 339.625H399V339.375H380V339.625Z" fill="#E4E4DE"/>
<path fill-rule="evenodd" clip-rule="evenodd" d="M100 336.625H143V336.375H100V336.625Z" fill="#D0D9E6"/>
<path fill-rule="evenodd" clip-rule="evenodd" d="M79 336.625H94V336.375H79V336.625Z" fill="#D0D9E6"/>
<path fill-rule="evenodd" clip-rule="evenodd" d="M131 340.625H185V340.375H131V340.625Z" fill="#D0D9E6"/>
<path fill-rule="evenodd" clip-rule="evenodd" d="M43.708 0.25C40.698 0.25 38.25 2.699 38.25 5.708V277.139C38.25 280.149 40.698 282.597 43.708 282.597H236.807C239.815 282.597 242.264 280.149 242.264 277.139V5.708C242.264 2.699 239.815 0.25 236.807 0.25H43.708ZM236.807 282.847H43.708C40.56 282.847 38 280.287 38 277.139V5.708C38 2.561 40.56 0 43.708 0H236.807C239.953 0 242.514 2.561 242.514 5.708V277.139C242.514 280.287 239.953 282.847 236.807 282.847Z" fill="#D0D9E6"/>
<path fill-rule="evenodd" clip-rule="evenodd" d="M260.707 0.25C257.698 0.25 255.25 2.699 255.25 5.708V277.139C255.25 280.149 257.698 282.597 260.707 282.597H453.806C456.815 282.597 459.264 280.149 459.264 277.139V5.708C459.264 2.699 456.815 0.25 453.806 0.25H260.707ZM453.806 282.847H260.707C257.56 282.847 255 280.287 255 277.139V5.708C255 2.561 257.56 0 260.707 0H453.806C456.953 0 459.514 2.561 459.514 5.708V277.139C459.514 280.287 456.953 282.847 453.806 282.847Z" fill="#D0D9E6"/>
<path fill-rule="evenodd" clip-rule="evenodd" d="M117.873 267H57.1272C54.307 267 52 264.778 52 262.063V259.937C52 257.221 54.307 255 57.1272 255H117.873C120.692 255 123 257.221 123 259.937V262.063C123 264.778 120.692 267 117.873 267Z" fill="#E3ECFA"/>
<path fill-rule="evenodd" clip-rule="evenodd" d="M71 267H61.1752L50 327H59.8248L71 267Z" fill="#DAE2F0"/>
<path fill-rule="evenodd" clip-rule="evenodd" d="M92 267H81.746L76 327H86.254L92 267Z" fill="#DAE2F0"/>
<path fill-rule="evenodd" clip-rule="evenodd" d="M103 267H112.825L124 327H114.176L103 267Z" fill="#DAE2F0"/>
<path fill-rule="evenodd" clip-rule="evenodd" d="M197 220H431V16H197V220Z" fill="#DAE2F0"/>
<path fill-rule="evenodd" clip-rule="evenodd" d="M200 220H437V16H200V220Z" fill="#E3ECFA"/>
<path fill-rule="evenodd" clip-rule="evenodd" d="M197 223H431V219H197V223Z" fill="#DDDED8"/>
<path fill-rule="evenodd" clip-rule="evenodd" d="M204 223H441V219H204V223Z" fill="#DAE2F0"/>
<path fill-rule="evenodd" clip-rule="evenodd" d="M210 213H428V22H210V213Z" fill="#FCFEFF"/>
<path fill-rule="evenodd" clip-rule="evenodd" d="M280 213L320.904 22H348L307.096 213H280Z" fill="#FFFFFE"/>
<path fill-rule="evenodd" clip-rule="evenodd" d="M248 213L288.903 22H316L275.097 213H248Z" fill="#FFFFFE"/>
<path fill-rule="evenodd" clip-rule="evenodd" d="M215 22.5158V200.484C215 200.769 215.404 201 215.903 201H217.098C217.597 201 218 200.769 218 200.484V22.5158C218 22.2305 217.597 22 217.098 22H215.903C215.404 22 215 22.2305 215 22.5158Z" fill="#EAEAE5"/>
<path fill-rule="evenodd" clip-rule="evenodd" d="M350 213L391.327 22H402L360.673 213H350Z" fill="#FFFFFE"/>
<path fill-rule="evenodd" clip-rule="evenodd" d="M427 213H428V22H427V213Z" fill="#DAE2F0"/>
<path fill-rule="evenodd" clip-rule="evenodd" d="M440 29H438V24H439.222L440 29Z" fill="#E3ECFA"/>
<path fill-rule="evenodd" clip-rule="evenodd" d="M428 29H438V24H428V29Z" fill="#DAE2F0"/>
<path fill-rule="evenodd" clip-rule="evenodd" d="M426.981 29.461H399.949L401.123 24H426.981V29.461ZM389.348 29.461H378.266L378 24H390.522L389.348 29.461Z" fill="#E3ECFA"/>
<path fill-rule="evenodd" clip-rule="evenodd" d="M399.804 29H389L390.196 24H401L399.804 29Z" fill="#EBF3FF"/>
<path fill-rule="evenodd" clip-rule="evenodd" d="M427 29H428V24H427V29Z" fill="#CCD3E0"/>
<path fill-rule="evenodd" clip-rule="evenodd" d="M440 48H438V43H439.222L440 48Z" fill="#E3ECFA"/>
<path fill-rule="evenodd" clip-rule="evenodd" d="M428 48H438V43H428V48Z" fill="#DAE2F0"/>
<path fill-rule="evenodd" clip-rule="evenodd" d="M427.069 48.461H396.008L397.182 43H427.069V48.461ZM385.408 48.461H379.266L379 43H386.582L385.408 48.461Z" fill="#E3ECFA"/>
<path fill-rule="evenodd" clip-rule="evenodd" d="M395.803 48H385L386.197 43H397L395.803 48Z" fill="#EBF3FF"/>
<path fill-rule="evenodd" clip-rule="evenodd" d="M427 48H428V43H427V48Z" fill="#CCD3E0"/>
<path fill-rule="evenodd" clip-rule="evenodd" d="M440 67H438V62H439.222L440 67Z" fill="#E3ECFA"/>
<path fill-rule="evenodd" clip-rule="evenodd" d="M428 67H438V62H428V67Z" fill="#DAE2F0"/>
<path fill-rule="evenodd" clip-rule="evenodd" d="M427.156 67.461H392.067L393.241 62H427.156V67.461ZM381.466 67.461H380.266L380 62H382.641L381.466 67.461Z" fill="#E3ECFA"/>
<path fill-rule="evenodd" clip-rule="evenodd" d="M391.804 67H381L382.197 62H393L391.804 67Z" fill="#EBF3FF"/>
<path fill-rule="evenodd" clip-rule="evenodd" d="M427 67H428V62H427V67Z" fill="#CCD3E0"/>
<path fill-rule="evenodd" clip-rule="evenodd" d="M440 86H438V81H439.222L440 86Z" fill="#E3ECFA"/>
<path fill-rule="evenodd" clip-rule="evenodd" d="M428 86H438V81H428V86Z" fill="#DAE2F0"/>
<path fill-rule="evenodd" clip-rule="evenodd" d="M427 86H388L389.171 81H427V86Z" fill="#E3ECFA"/>
<path fill-rule="evenodd" clip-rule="evenodd" d="M387.868 86H381.256L381 81H389L387.868 86Z" fill="#EBF3FF"/>
<path fill-rule="evenodd" clip-rule="evenodd" d="M427 86H428V81H427V86Z" fill="#CCD3E0"/>
<path fill-rule="evenodd" clip-rule="evenodd" d="M440 104H438V99H439.222L440 104Z" fill="#E3ECFA"/>
<path fill-rule="evenodd" clip-rule="evenodd" d="M428 104H438V99H428V104Z" fill="#DAE2F0"/>
<path fill-rule="evenodd" clip-rule="evenodd" d="M427 104H384L385.17 99H427V104Z" fill="#E3ECFA"/>
<path fill-rule="evenodd" clip-rule="evenodd" d="M382.952 104H381.237L381 99H384L382.952 104Z" fill="#EBF3FF"/>
<path fill-rule="evenodd" clip-rule="evenodd" d="M427 104H428V99H427V104Z" fill="#CCD3E0"/>
<path fill-rule="evenodd" clip-rule="evenodd" d="M440 123H438V118H439.222L440 123Z" fill="#E3ECFA"/>
<path fill-rule="evenodd" clip-rule="evenodd" d="M428 123H438V118H428V123Z" fill="#DAE2F0"/>
<path fill-rule="evenodd" clip-rule="evenodd" d="M426 123H384.114C383.618 122.229 382.932 121.193 382.107 120.027L382 118H426V123Z" fill="#E3ECFA"/>
<path fill-rule="evenodd" clip-rule="evenodd" d="M427 123H428V118H427V123Z" fill="#CCD3E0"/>
<path fill-rule="evenodd" clip-rule="evenodd" d="M440 39H438V34H439.222L440 39Z" fill="#E3ECFA"/>
<path fill-rule="evenodd" clip-rule="evenodd" d="M428 39H438V34H428V39Z" fill="#DAE2F0"/>
<path fill-rule="evenodd" clip-rule="evenodd" d="M426.525 39.461H397.479L398.653 34H426.525V39.461ZM386.878 39.461H378.266L378 34H388.052L386.878 39.461Z" fill="#E3ECFA"/>
<path fill-rule="evenodd" clip-rule="evenodd" d="M397.804 39H387L388.196 34H399L397.804 39Z" fill="#EBF3FF"/>
<path fill-rule="evenodd" clip-rule="evenodd" d="M427 39H428V34H427V39Z" fill="#CCD3E0"/>
<path fill-rule="evenodd" clip-rule="evenodd" d="M440 58H438V53H439.222L440 58Z" fill="#E3ECFA"/>
<path fill-rule="evenodd" clip-rule="evenodd" d="M428 58H438V53H428V58Z" fill="#DAE2F0"/>
<path fill-rule="evenodd" clip-rule="evenodd" d="M426.612 58.461H393.537L394.711 53H426.612V58.461ZM382.936 58.461H379.265L379 53H384.111L382.936 58.461Z" fill="#E3ECFA"/>
<path fill-rule="evenodd" clip-rule="evenodd" d="M393.804 58H383L384.197 53H395L393.804 58Z" fill="#EBF3FF"/>
<path fill-rule="evenodd" clip-rule="evenodd" d="M427 58H428V53H427V58Z" fill="#CCD3E0"/>
<path fill-rule="evenodd" clip-rule="evenodd" d="M440 76H438V71H439.222L440 76Z" fill="#E3ECFA"/>
<path fill-rule="evenodd" clip-rule="evenodd" d="M428 76H438V71H428V76Z" fill="#DAE2F0"/>
<path fill-rule="evenodd" clip-rule="evenodd" d="M426.7 76.461H389.597L390.771 71H426.7V76.461ZM380.031 71.646L380 71H380.17L380.031 71.646Z" fill="#E3ECFA"/>
<path fill-rule="evenodd" clip-rule="evenodd" d="M389.798 76H380.241L380 71.5915L380.142 71H391L389.798 76Z" fill="#EBF3FF"/>
<path fill-rule="evenodd" clip-rule="evenodd" d="M427 76H428V71H427V76Z" fill="#CCD3E0"/>
<path fill-rule="evenodd" clip-rule="evenodd" d="M440 95H438V90H439.222L440 95Z" fill="#E3ECFA"/>
<path fill-rule="evenodd" clip-rule="evenodd" d="M428 95H438V90H428V95Z" fill="#DAE2F0"/>
<path fill-rule="evenodd" clip-rule="evenodd" d="M427 95H386L387.17 90H427V95Z" fill="#E3ECFA"/>
<path fill-rule="evenodd" clip-rule="evenodd" d="M385.792 95H381.274L381 90H387L385.792 95Z" fill="#EBF3FF"/>
<path fill-rule="evenodd" clip-rule="evenodd" d="M427 95H428V90H427V95Z" fill="#CCD3E0"/>
<path fill-rule="evenodd" clip-rule="evenodd" d="M440 114H438V109H439.222L440 114Z" fill="#E3ECFA"/>
<path fill-rule="evenodd" clip-rule="evenodd" d="M428 114H438V109H428V114Z" fill="#DAE2F0"/>
<path fill-rule="evenodd" clip-rule="evenodd" d="M427 114H382.103L382 112.09L382.731 109H427V114Z" fill="#E3ECFA"/>
<path fill-rule="evenodd" clip-rule="evenodd" d="M382.219 112L382.055 109H382.945L382.219 112Z" fill="#E9E9E4"/>
<path fill-rule="evenodd" clip-rule="evenodd" d="M427 114H428V109H427V114Z" fill="#CCD3E0"/>
<path fill-rule="evenodd" clip-rule="evenodd" d="M440 133H438V128H439.222L440 133Z" fill="#E3ECFA"/>
<path fill-rule="evenodd" clip-rule="evenodd" d="M428 133H438V128H428V133Z" fill="#DAE2F0"/>
<path fill-rule="evenodd" clip-rule="evenodd" d="M426 133H387.041C386.659 132.309 386.265 131.628 385.862 130.953C385.273 129.942 384.647 128.962 384 128H426V133Z" fill="#E3ECFA"/>
<path fill-rule="evenodd" clip-rule="evenodd" d="M427 133H428V128H427V133Z" fill="#CCD3E0"/>
<path fill-rule="evenodd" clip-rule="evenodd" d="M400 328H431V235H400V328Z" fill="#DDDED8"/>
<path fill-rule="evenodd" clip-rule="evenodd" d="M411.962 328H431V317H392L411.962 328Z" fill="#E3ECFA"/>
<path fill-rule="evenodd" clip-rule="evenodd" d="M307 328H338V235H307V328Z" fill="#DAE2F0"/>
<path fill-rule="evenodd" clip-rule="evenodd" d="M322 326H431V235H322V326Z" fill="#E3ECFA"/>
<path fill-rule="evenodd" clip-rule="evenodd" d="M341.038 328H322V317H361L341.038 328Z" fill="#E3ECFA"/>
<path fill-rule="evenodd" clip-rule="evenodd" d="M336 292H416V245H336V292Z" fill="#FCFEFF"/>
<path fill-rule="evenodd" clip-rule="evenodd" d="M336 319H416V297H336V319Z" fill="#FCFEFF"/>
<path fill-rule="evenodd" clip-rule="evenodd" d="M382.793 247H368.207C365.884 247 364 245.21 364 243H387C387 245.21 385.116 247 382.793 247Z" fill="#E4E4DE"/>
<path fill-rule="evenodd" clip-rule="evenodd" d="M382.793 299H368.207C365.884 299 364 297.209 364 295H387C387 297.209 385.117 299 382.793 299Z" fill="#E3ECFA"/>
<path fill-rule="evenodd" clip-rule="evenodd" d="M282 328H313V235H282V328Z" fill="#E3ECFA"/>
<path fill-rule="evenodd" clip-rule="evenodd" d="M294.962 328H314V317H275L294.962 328Z" fill="#E3ECFA"/>
<path fill-rule="evenodd" clip-rule="evenodd" d="M190 328H221V235H190V328Z" fill="#DAE2F0"/>
<path fill-rule="evenodd" clip-rule="evenodd" d="M204 326H313V235H204V326Z" fill="#E3ECFA"/>
<path fill-rule="evenodd" clip-rule="evenodd" d="M223.039 328H204V317H243L223.039 328Z" fill="#E3ECFA"/>
<path fill-rule="evenodd" clip-rule="evenodd" d="M219 292H299V245H219V292Z" fill="#FCFEFF"/>
<path fill-rule="evenodd" clip-rule="evenodd" d="M219 319H299V297H219V319Z" fill="#FCFEFF"/>
<path fill-rule="evenodd" clip-rule="evenodd" d="M265.793 247H251.207C248.883 247 247 245.21 247 243H270C270 245.21 268.117 247 265.793 247Z" fill="#E4E4DE"/>
<path fill-rule="evenodd" clip-rule="evenodd" d="M265.793 299H251.207C248.883 299 247 297.209 247 295H270C270 297.209 268.117 299 265.793 299Z" fill="#E3ECFA"/>
<path fill-rule="evenodd" clip-rule="evenodd" d="M204 235H430V231H204V235Z" fill="#DAE2F0"/>
<path fill-rule="evenodd" clip-rule="evenodd" d="M190 235H205V231H190V235Z" fill="#D4D5CF"/>
<path fill-rule="evenodd" clip-rule="evenodd" d="M84.6786 240.721C83.2324 204.199 81.6897 167.883 84.8479 149.564L90 146C90 146 88.8707 149.415 88.2789 205.372C87.8665 244.267 87.3855 242.154 87.3424 240.041C87.3229 239.113 87.3886 238.186 87.5804 240.721H84.6786Z" fill="#DDDED8"/>
<path fill-rule="evenodd" clip-rule="evenodd" d="M92.5274 110.729C100.223 90.5542 118.153 71.0725 137.633 63.1035C145.281 59.9744 134.262 128.776 106.533 133.211C92.9923 135.376 88.7767 170.246 86.4936 187C85.719 154.048 84.8329 130.905 92.5274 110.729Z" fill="#DDDED8"/>
<path fill-rule="evenodd" clip-rule="evenodd" d="M90.4442 161.604C95.8516 153.025 104.693 141.012 117.61 141C132.252 140.987 119.439 165.114 102.228 172.82C93.824 176.583 86.8187 188.526 85 196C85.1511 180.852 85.0358 170.183 90.4442 161.604Z" fill="#DDDED8"/>
<path fill-rule="evenodd" clip-rule="evenodd" d="M77.5085 136.292C68.0788 119.581 47.0618 102.776 24.686 95.1309C15.9013 92.1288 15.0349 141.631 62.3988 153.477C77.6959 157.302 83.8285 184.384 87 198C86.7358 171.555 86.9372 153.003 77.5085 136.292Z" fill="#DAE2F0"/>
<path fill-rule="evenodd" clip-rule="evenodd" d="M83.4865 175.934C77.4192 165.318 60.9252 160.128 46.092 161.12C40.2672 161.508 39.631 183.299 72.0262 191.714C81.8519 194.266 85.8166 211.35 87.8569 220C87.6868 203.199 89.5539 186.552 83.4865 175.934Z" fill="#DAE2F0"/>
<path fill-rule="evenodd" clip-rule="evenodd" d="M83.1369 119.14C78.4414 104.138 64.6012 90.692 51.8983 85.1338C46.9112 82.9517 45.378 107.828 72.6406 132.182C80.9094 139.57 83.5167 161.09 84.8644 172C85.4827 152.522 87.8325 134.141 83.1369 119.14Z" fill="#DAE2F0"/>
<path fill-rule="evenodd" clip-rule="evenodd" d="M86.5 255C76.5025 255 68.2403 254.271 67.6656 240.748L66 223H107L105.334 240.748C104.761 254.271 96.4985 255 86.5 255Z" fill="#E3ECFA"/>
<path fill-rule="evenodd" clip-rule="evenodd" d="M105.835 230H65.1648L64 222H107L105.835 230Z" fill="#E3ECFA"/>
<path opacity="0.601028" fill-rule="evenodd" clip-rule="evenodd" d="M444 361.501C444 367.852 357.144 373 250 373C142.857 373 56 367.852 56 361.501C56 355.149 142.857 350 250 350C357.144 350 444 355.149 444 361.501Z" fill="#E3ECFA"/>
<path fill-rule="evenodd" clip-rule="evenodd" d="M72.9904 63L72 43.0486L73.0096 43L74 62.9514L72.9904 63Z" fill="#3F8CFF"/>
<path fill-rule="evenodd" clip-rule="evenodd" d="M73.3252 80L73 70.0483L73.6748 70L74 79.9507L73.3252 80Z" fill="#3F8CFF"/>
<path fill-rule="evenodd" clip-rule="evenodd" d="M86.5239 247C85.579 247 84.801 246.257 84.755 245.311L74.0041 23.8621C73.9551 22.8494 74.7611 22 75.7729 22H375.477C376.421 22 377.199 22.7432 377.245 23.6898L387.996 245.139C388.045 246.152 387.239 247 386.227 247H86.5239Z" fill="#3F8CFF"/>
<path fill-rule="evenodd" clip-rule="evenodd" d="M366.764 243.367H90.1831C89.2371 243.367 88.4581 242.625 88.4131 241.681L78.0021 27.859C77.9531 26.848 78.7601 26 79.7731 26H372.583C373.529 26 374.308 26.742 374.354 27.687L378.614 115.172C376.533 112.555 374.201 110.113 371.958 108.804C370.359 107.747 368.465 107.085 366.405 106.972C366.264 106.964 366.124 106.957 365.983 106.95C362.345 103.437 363.062 96.145 364.161 90.881L353.125 97.034C353.963 100.565 354.058 104.842 351.181 106.838C350.631 106.87 350.11 106.907 349.623 106.951C347.816 107.115 346.041 107.376 344.459 107.655C344.06 107.726 343.668 107.819 343.286 107.934C341.733 108.366 340.016 109.235 338.154 110.637C330.511 116.393 324.836 128.587 324.836 128.587L326.648 129.581C324.965 131.435 323.216 133.247 321.407 135.026C319.426 136.963 317.441 138.802 315.285 140.818C315.227 140.824 315.167 140.83 315.103 140.834C315.033 140.838 314.96 140.84 314.884 140.84C314.414 140.84 313.834 140.764 313.209 140.605C312.193 140.353 311.076 139.936 309.94 139.412C310.005 138.166 310.062 136.926 310.11 135.705L319.24 135.406C319.769 130.497 319.045 122.322 317.821 113.854C316.776 104.985 314.986 94.886 313.08 84.597L303.971 85.175L301.714 38.812C301.689 38.324 301.261 37.948 300.801 37.948C300.789 37.948 300.776 37.949 300.763 37.949C300.263 37.974 299.877 38.399 299.901 38.899L302.16 85.29L264.835 87.661C264.95 88.166 265.064 88.671 265.177 89.174H265.176C265.178 89.182 265.18 89.19 265.182 89.199C265.361 89.997 265.537 90.793 265.711 91.586C267.162 98.288 268.283 104.824 269.094 111.073L263.009 110.12C263.106 128.098 261.173 144.556 258.027 157.49L306.115 166.508L309.233 230.556C309.257 231.041 309.658 231.419 310.138 231.419L310.183 231.418C310.683 231.394 311.07 230.968 311.046 230.468L307.66 160.937C308.334 157.429 308.867 153.226 309.273 148.795C309.595 148.943 309.925 149.085 310.264 149.222C311.499 149.71 312.871 150.12 314.441 150.3C314.877 150.351 315.334 150.379 315.805 150.379C317.017 150.379 318.324 150.192 319.614 149.728L320.287 149.485L321.11 148.808C323.429 146.899 326.053 144.817 328.485 142.634C330.616 140.751 332.699 138.781 334.699 136.71C334.712 137.792 334.735 138.913 334.769 140.077C334.782 140.63 334.802 141.2 334.825 141.784C335.11 149.631 335.858 159.284 337.307 171.14H344.78L342.209 179.771L347.579 181.37C347.557 181.517 347.534 181.664 347.512 181.811L353.296 183.072L353.573 183.155C356.716 197.592 362.015 221.887 365.587 238.049C366.005 239.943 366.4 241.726 366.764 243.367ZM160.008 209.112L161.052 230.556C161.077 231.041 161.477 231.419 161.958 231.419L162.003 231.418C162.503 231.394 162.889 230.968 162.865 230.468L161.816 208.928L187.162 206.353C187.034 195.056 181.224 168.82 177.779 158.987L159.491 161.16L157.924 128.986L163.612 128.68C161.054 111.674 159.194 95.337 158.65 80.259L155.558 80.378L153.534 38.812C153.509 38.324 153.089 37.948 152.622 37.948C152.609 37.948 152.597 37.949 152.584 37.949C152.084 37.974 151.697 38.399 151.721 38.899L153.744 80.448L111.468 82.08C111.364 95.911 112.535 114.587 115.319 131.283L156.112 129.084L157.684 161.375L131.062 164.538C136.03 182.056 136.238 197.933 137.616 211.388L160.008 209.112ZM175.885 95.373L175.883 143.501L224.428 146.43L224.43 98.302L175.885 95.373ZM383.367 212.804C382.013 205.059 380.64 197.428 379.443 190.859L382.341 191.722L383.367 212.804ZM379.867 140.919L375.281 139.919C375.324 138.491 375.38 137.035 375.453 135.558L376.222 134.773C377.549 136.758 378.784 138.77 379.861 140.801L379.867 140.919ZM315.934 140.652L316.052 140.579C316.02 140.604 315.981 140.628 315.934 140.652Z" fill="#F4F9FD"/>
<path d="M104.706 45.1122L102.102 45.1576L102.078 43.7898L108.797 43.6726L108.821 45.0403L106.217 45.0858L106.342 52.2127L104.83 52.2391L104.706 45.1122ZM108.174 49.3003C108.166 48.8444 108.239 48.431 108.392 48.0603C108.554 47.6814 108.772 47.3576 109.048 47.0887C109.323 46.8199 109.651 46.6101 110.033 46.4594C110.414 46.3087 110.821 46.2296 111.253 46.2221C111.685 46.2145 112.094 46.2794 112.48 46.4167C112.867 46.554 113.202 46.7521 113.487 47.0112C113.771 47.2703 113.997 47.5864 114.164 47.9596C114.338 48.3246 114.429 48.735 114.437 49.191C114.445 49.6469 114.368 50.0643 114.207 50.4432C114.053 50.8139 113.839 51.1337 113.564 51.4025C113.288 51.6714 112.96 51.8812 112.578 52.0318C112.197 52.1825 111.79 52.2616 111.358 52.2692C110.926 52.2767 110.517 52.2118 110.131 52.0746C109.744 51.9373 109.409 51.7391 109.124 51.48C108.84 51.221 108.61 50.9089 108.436 50.5439C108.269 50.1708 108.182 49.7562 108.174 49.3003ZM109.614 49.2752C109.618 49.4991 109.657 49.7145 109.733 49.9212C109.817 50.1277 109.932 50.3098 110.079 50.4672C110.233 50.6245 110.416 50.7494 110.625 50.8417C110.835 50.9341 111.072 50.978 111.336 50.9734C111.6 50.9688 111.835 50.9166 112.041 50.817C112.247 50.7174 112.421 50.5864 112.562 50.4239C112.711 50.2612 112.82 50.0753 112.889 49.8661C112.965 49.6567 113.001 49.4401 112.997 49.2161C112.993 48.9921 112.95 48.7769 112.866 48.5703C112.79 48.3636 112.675 48.1816 112.52 48.0242C112.374 47.8668 112.195 47.7419 111.986 47.6495C111.776 47.5572 111.539 47.5133 111.275 47.5179C111.011 47.5225 110.776 47.5746 110.57 47.6742C110.364 47.7738 110.186 47.905 110.037 48.0676C109.896 48.2301 109.787 48.416 109.71 48.6254C109.642 48.8346 109.61 49.0512 109.614 49.2752ZM119.369 43.488L122.717 43.4296C123.277 43.4198 123.818 43.4984 124.341 43.6653C124.864 43.8242 125.328 44.0761 125.735 44.4211C126.141 44.766 126.468 45.2044 126.718 45.7361C126.967 46.2598 127.098 46.8817 127.11 47.6015C127.123 48.3294 126.994 48.9638 126.723 49.5046C126.461 50.0373 126.112 50.4834 125.679 50.843C125.253 51.1945 124.773 51.4629 124.24 51.6482C123.715 51.8254 123.197 51.9185 122.685 51.9274L119.518 51.9827L119.369 43.488ZM122.133 50.5689C122.605 50.5606 123.048 50.5009 123.462 50.3896C123.884 50.2703 124.249 50.0959 124.557 49.8664C124.865 49.629 125.104 49.3288 125.274 48.9658C125.451 48.5947 125.536 48.1491 125.527 47.6292C125.518 47.1173 125.43 46.6787 125.264 46.3136C125.097 45.9484 124.868 45.6564 124.576 45.4374C124.292 45.2104 123.953 45.0483 123.559 44.9511C123.174 44.8458 122.749 44.7972 122.285 44.8053L120.905 44.8294L121.005 50.5885L122.133 50.5689ZM128.151 48.9516C128.143 48.4957 128.216 48.0823 128.37 47.7116C128.531 47.3327 128.75 47.0088 129.025 46.74C129.3 46.4712 129.629 46.2614 130.01 46.1107C130.392 45.96 130.798 45.8809 131.23 45.8734C131.662 45.8658 132.071 45.9307 132.458 46.068C132.844 46.2053 133.18 46.4034 133.464 46.6625C133.749 46.9216 133.974 47.2377 134.141 47.6108C134.315 47.9759 134.407 48.3863 134.414 48.8423C134.422 49.2982 134.346 49.7156 134.184 50.0945C134.031 50.4652 133.816 50.785 133.541 51.0538C133.266 51.3227 132.937 51.5325 132.556 51.6831C132.174 51.8338 131.768 51.9129 131.336 51.9205C130.904 51.928 130.495 51.8631 130.108 51.7259C129.722 51.5886 129.386 51.3904 129.102 51.1313C128.817 50.8723 128.588 50.5602 128.413 50.1952C128.247 49.8221 128.159 49.4075 128.151 48.9516ZM129.591 48.9265C129.595 49.1504 129.635 49.3658 129.711 49.5725C129.794 49.779 129.909 49.9611 130.056 50.1185C130.211 50.2758 130.393 50.4007 130.603 50.493C130.812 50.5854 131.049 50.6293 131.313 50.6247C131.577 50.6201 131.812 50.5679 132.019 50.4683C132.225 50.3687 132.399 50.2377 132.54 50.0752C132.689 49.9125 132.798 49.7266 132.866 49.5174C132.942 49.308 132.979 49.0914 132.975 48.8674C132.971 48.6434 132.927 48.4282 132.843 48.2216C132.768 48.0149 132.653 47.8329 132.498 47.6755C132.351 47.5181 132.173 47.3932 131.963 47.3008C131.754 47.2085 131.517 47.1646 131.253 47.1692C130.989 47.1738 130.754 47.2259 130.547 47.3255C130.341 47.4251 130.163 47.5563 130.014 47.7189C129.873 47.8814 129.764 48.0673 129.688 48.2767C129.62 48.4859 129.587 48.7025 129.591 48.9265Z" fill="#3F8CFF"/>
<path d="M160.108 44.0336L161.62 44.0072L161.768 52.5019L160.256 52.5283L160.108 44.0336ZM163.399 46.7126L164.767 46.6887L164.783 47.6126L164.807 47.6122C164.938 47.3218 165.141 47.0702 165.418 46.8574C165.694 46.6365 166.072 46.5219 166.552 46.5135C166.936 46.5068 167.261 46.5652 167.527 46.6885C167.801 46.8118 168.024 46.9759 168.196 47.181C168.367 47.386 168.492 47.6239 168.568 47.8946C168.645 48.1653 168.686 48.4486 168.691 48.7445L168.755 52.38L167.315 52.4051L167.264 49.4896C167.261 49.3296 167.25 49.1538 167.231 48.9621C167.211 48.7624 167.164 48.5792 167.089 48.4125C167.022 48.2376 166.916 48.0954 166.77 47.986C166.624 47.8685 166.426 47.8119 166.179 47.8163C165.939 47.8204 165.735 47.864 165.569 47.9469C165.41 48.0297 165.276 48.1401 165.166 48.278C165.065 48.4158 164.992 48.5731 164.947 48.7499C164.902 48.9267 164.881 49.1111 164.884 49.3031L164.939 52.4466L163.499 52.4717L163.399 46.7126ZM173.923 43.7925L176.778 43.7426C177.186 43.7355 177.579 43.7687 177.956 43.8421C178.342 43.9154 178.68 44.0455 178.971 44.2324C179.262 44.4114 179.495 44.6594 179.668 44.9764C179.85 45.2853 179.945 45.6757 179.953 46.1476C179.962 46.6835 179.878 47.1171 179.7 47.4482C179.521 47.7794 179.278 48.0397 178.969 48.2291C178.66 48.4105 178.298 48.5368 177.884 48.6081C177.477 48.6792 177.049 48.7187 176.601 48.7265L175.522 48.7453L175.583 52.2608L174.071 52.2872L173.923 43.7925ZM176.411 47.4336C176.627 47.4298 176.851 47.4179 177.082 47.3979C177.314 47.3778 177.525 47.3262 177.716 47.2428C177.914 47.1593 178.072 47.0366 178.189 46.8745C178.315 46.7123 178.375 46.4872 178.37 46.1992C178.365 45.9353 178.305 45.7283 178.191 45.5783C178.076 45.4202 177.93 45.3028 177.752 45.2259C177.575 45.141 177.378 45.0884 177.162 45.0682C176.945 45.0479 176.737 45.0396 176.537 45.043L175.457 45.0619L175.499 47.4495L176.411 47.4336ZM181.173 46.4023L182.613 46.3772L182.629 47.2891L182.653 47.2887C182.807 46.9499 183.031 46.686 183.323 46.4968C183.616 46.3077 183.955 46.2098 184.338 46.2031C184.426 46.2015 184.511 46.2081 184.591 46.2227C184.679 46.2371 184.767 46.2556 184.856 46.2781L184.88 47.6698C184.76 47.6399 184.639 47.618 184.519 47.6041C184.407 47.5821 184.294 47.5721 184.182 47.574C183.846 47.5799 183.576 47.6486 183.37 47.7802C183.172 47.9037 183.018 48.0464 182.909 48.2083C182.808 48.3701 182.739 48.5313 182.702 48.692C182.672 48.8526 182.659 48.9728 182.66 49.0528L182.714 52.1363L181.274 52.1615L181.173 46.4023ZM185.388 49.2092C185.38 48.7533 185.453 48.3399 185.607 47.9692C185.768 47.5903 185.986 47.2665 186.262 46.9976C186.537 46.7288 186.866 46.519 187.247 46.3683C187.628 46.2177 188.035 46.1385 188.467 46.131C188.899 46.1235 189.308 46.1883 189.695 46.3256C190.081 46.4629 190.417 46.6611 190.701 46.9201C190.986 47.1792 191.211 47.4953 191.378 47.8685C191.552 48.2335 191.643 48.644 191.651 49.0999C191.659 49.5558 191.583 49.9732 191.421 50.3521C191.268 50.7228 191.053 51.0426 190.778 51.3115C190.502 51.5803 190.174 51.7901 189.793 51.9408C189.411 52.0914 189.004 52.1705 188.573 52.1781C188.141 52.1856 187.731 52.1208 187.345 51.9835C186.958 51.8462 186.623 51.648 186.338 51.389C186.054 51.1299 185.824 50.8178 185.65 50.4528C185.483 50.0797 185.396 49.6651 185.388 49.2092ZM186.828 49.1841C186.832 49.408 186.872 49.6234 186.947 49.8301C187.031 50.0367 187.146 50.2187 187.293 50.3761C187.448 50.5335 187.63 50.6583 187.84 50.7507C188.049 50.843 188.286 50.8869 188.55 50.8823C188.814 50.8777 189.049 50.8256 189.255 50.726C189.462 50.6263 189.635 50.4953 189.777 50.3328C189.926 50.1702 190.034 49.9842 190.103 49.775C190.179 49.5657 190.215 49.349 190.211 49.125C190.208 48.9011 190.164 48.6858 190.08 48.4792C190.005 48.2725 189.889 48.0905 189.735 47.9332C189.588 47.7757 189.41 47.6508 189.2 47.5584C188.99 47.4661 188.754 47.4222 188.49 47.4268C188.226 47.4314 187.991 47.4835 187.784 47.5831C187.578 47.6828 187.4 47.8139 187.251 47.9765C187.11 48.139 187.001 48.3249 186.925 48.5343C186.856 48.7435 186.824 48.9601 186.828 49.1841ZM198.876 46.0933L198.968 51.3365C198.977 51.8565 198.921 52.3255 198.8 52.7437C198.68 53.1698 198.486 53.5293 198.219 53.822C197.96 54.1225 197.628 54.3564 197.223 54.5235C196.818 54.6906 196.335 54.779 195.775 54.7888C195.239 54.7981 194.73 54.739 194.248 54.6114C193.766 54.4838 193.318 54.2436 192.903 53.8908L193.747 52.6999C194.039 52.9588 194.343 53.1575 194.657 53.2961C194.972 53.4346 195.333 53.5003 195.741 53.4932C196.085 53.4872 196.372 53.4342 196.602 53.3341C196.84 53.234 197.026 53.0987 197.159 52.9283C197.3 52.7579 197.397 52.5521 197.448 52.3112C197.508 52.0781 197.536 51.8176 197.531 51.5296L197.523 51.1097L197.499 51.1101C197.296 51.3937 197.024 51.6105 196.683 51.7605C196.341 51.9025 195.99 51.9766 195.63 51.9829C195.198 51.9904 194.805 51.9213 194.451 51.7754C194.096 51.6216 193.788 51.4149 193.528 51.1555C193.275 50.8958 193.078 50.5872 192.935 50.2296C192.793 49.8721 192.718 49.4893 192.711 49.0814C192.704 48.6574 192.761 48.2604 192.883 47.8902C193.004 47.52 193.187 47.1968 193.43 46.9205C193.673 46.6442 193.965 46.4271 194.306 46.2691C194.656 46.103 195.054 46.016 195.502 46.0082C195.91 46.0011 196.291 46.0744 196.646 46.2283C197.001 46.3821 197.285 46.6332 197.499 46.9815L197.523 46.9811L197.508 46.1172L198.876 46.0933ZM195.825 47.2988C195.569 47.3032 195.338 47.3513 195.131 47.4429C194.925 47.5265 194.747 47.6456 194.597 47.8003C194.456 47.9468 194.343 48.1288 194.259 48.3463C194.182 48.5556 194.146 48.7883 194.151 49.0443C194.155 49.2762 194.199 49.4915 194.282 49.6901C194.374 49.8885 194.497 50.0624 194.651 50.2117C194.806 50.361 194.988 50.4779 195.198 50.5622C195.407 50.6466 195.632 50.6867 195.872 50.6825C196.136 50.6779 196.371 50.6298 196.577 50.5381C196.792 50.4464 196.97 50.3273 197.111 50.1808C197.261 50.0261 197.373 49.8441 197.45 49.6348C197.526 49.4254 197.562 49.2007 197.558 48.9608C197.549 48.4569 197.39 48.0516 197.081 47.7449C196.771 47.4383 196.353 47.2896 195.825 47.2988ZM200.506 46.0649L201.946 46.0397L201.962 46.9516L201.986 46.9512C202.14 46.6125 202.364 46.3485 202.656 46.1594C202.949 45.9702 203.288 45.8723 203.671 45.8656C203.759 45.8641 203.844 45.8706 203.924 45.8852C204.012 45.8997 204.1 45.9181 204.189 45.9406L204.213 47.3324C204.093 47.3025 203.972 47.2806 203.852 47.2667C203.74 47.2446 203.627 47.2346 203.515 47.2365C203.179 47.2424 202.909 47.3111 202.703 47.4428C202.505 47.5662 202.351 47.7089 202.242 47.8709C202.141 48.0327 202.072 48.1939 202.035 48.3546C202.005 48.5151 201.992 48.6354 201.993 48.7153L202.047 51.7989L200.607 51.824L200.506 46.0649ZM206.17 49.3505C206.225 49.7816 206.399 50.1147 206.691 50.3496C206.983 50.5845 207.333 50.6984 207.741 50.6913C208.101 50.685 208.4 50.6078 208.638 50.4596C208.883 50.3033 209.096 50.1116 209.276 49.8844L210.321 50.6463C209.992 51.0681 209.622 51.3706 209.209 51.5538C208.796 51.7371 208.361 51.8327 207.906 51.8406C207.474 51.8482 207.064 51.7833 206.678 51.646C206.291 51.5087 205.956 51.3106 205.671 51.0515C205.387 50.7924 205.157 50.4804 204.983 50.1154C204.816 49.7422 204.729 49.3277 204.721 48.8718C204.713 48.4158 204.786 48.0025 204.94 47.6318C205.101 47.2529 205.319 46.929 205.595 46.6602C205.87 46.3913 206.198 46.1816 206.58 46.0309C206.961 45.8802 207.368 45.8011 207.8 45.7936C208.2 45.7866 208.565 45.8522 208.896 45.9905C209.234 46.1206 209.521 46.3156 209.758 46.5755C210.002 46.8353 210.192 47.16 210.327 47.5497C210.47 47.9313 210.545 48.374 210.554 48.878L210.561 49.2739L206.17 49.3505ZM209.103 48.2192C209.087 47.7954 208.949 47.4657 208.689 47.2303C208.429 46.9868 208.071 46.869 207.615 46.8769C207.183 46.8845 206.841 47.0145 206.589 47.2669C206.346 47.5192 206.2 47.8538 206.151 48.2707L209.103 48.2192ZM214.948 47.409C214.661 47.022 214.282 46.8326 213.81 46.8408C213.618 46.8442 213.431 46.8954 213.248 46.9946C213.066 47.0938 212.977 47.2514 212.981 47.4674C212.984 47.6434 213.062 47.77 213.215 47.8474C213.369 47.9247 213.562 47.9893 213.795 48.0413C214.028 48.0932 214.277 48.1489 214.542 48.2083C214.815 48.2595 215.068 48.3471 215.302 48.471C215.537 48.587 215.731 48.7516 215.887 48.9649C216.043 49.1782 216.124 49.4728 216.131 49.8488C216.137 50.1927 216.066 50.486 215.918 50.7286C215.778 50.9631 215.589 51.1544 215.352 51.3026C215.122 51.4506 214.86 51.5592 214.565 51.6284C214.271 51.6975 213.975 51.7347 213.679 51.7398C213.231 51.7477 212.818 51.6909 212.44 51.5694C212.062 51.448 211.722 51.2219 211.42 50.8911L212.364 49.9745C212.552 50.1793 212.751 50.3478 212.961 50.4802C213.179 50.6044 213.44 50.6639 213.744 50.6585C213.848 50.6567 213.956 50.6428 214.068 50.6169C214.179 50.5909 214.283 50.5491 214.378 50.4915C214.473 50.4338 214.547 50.3645 214.602 50.2835C214.664 50.1944 214.695 50.0939 214.693 49.9819C214.689 49.7819 214.611 49.6353 214.457 49.5419C214.303 49.4486 214.11 49.376 213.877 49.324C213.644 49.2641 213.391 49.2125 213.118 49.1692C212.853 49.1179 212.604 49.0382 212.37 48.9303C212.136 48.8143 211.941 48.6537 211.786 48.4484C211.63 48.2431 211.549 47.9565 211.542 47.5885C211.537 47.2686 211.596 46.9915 211.72 46.7573C211.852 46.5149 212.024 46.3159 212.238 46.1602C212.451 46.0044 212.697 45.8881 212.976 45.8112C213.254 45.7343 213.538 45.6934 213.826 45.6884C214.21 45.6817 214.591 45.743 214.969 45.8724C215.347 45.9939 215.655 46.2125 215.893 46.5284L214.948 47.409ZM220.279 47.316C219.992 46.9289 219.613 46.7395 219.141 46.7478C218.949 46.7511 218.762 46.8024 218.58 46.9016C218.397 47.0008 218.308 47.1584 218.312 47.3743C218.315 47.5503 218.393 47.677 218.546 47.7543C218.7 47.8316 218.893 47.8963 219.126 47.9482C219.359 48.0002 219.608 48.0558 219.873 48.1152C220.146 48.1664 220.399 48.254 220.634 48.378C220.868 48.4939 221.063 48.6585 221.218 48.8718C221.374 49.0852 221.455 49.3798 221.462 49.7557C221.468 50.0997 221.397 50.393 221.249 50.6356C221.109 50.87 220.921 51.0614 220.683 51.2095C220.454 51.3576 220.192 51.4662 219.897 51.5353C219.602 51.6045 219.306 51.6416 219.01 51.6468C218.563 51.6546 218.149 51.5978 217.771 51.4764C217.393 51.355 217.053 51.1289 216.751 50.7981L217.695 49.8815C217.883 50.0862 218.082 50.2548 218.292 50.3871C218.511 50.5113 218.772 50.5708 219.076 50.5655C219.18 50.5637 219.287 50.5498 219.399 50.5238C219.511 50.4979 219.614 50.4561 219.709 50.3984C219.804 50.3407 219.879 50.2714 219.933 50.1905C219.996 50.1014 220.026 50.0008 220.024 49.8888C220.02 49.6889 219.942 49.5422 219.788 49.4489C219.635 49.3556 219.441 49.2829 219.208 49.231C218.975 49.171 218.722 49.1194 218.45 49.0762C218.185 49.0248 217.935 48.9451 217.701 48.8372C217.467 48.7213 217.272 48.5607 217.117 48.3553C216.961 48.15 216.88 47.8634 216.874 47.4955C216.868 47.1755 216.927 46.8984 217.051 46.6642C217.183 46.4219 217.356 46.2228 217.569 46.0671C217.782 45.9114 218.028 45.795 218.307 45.7182C218.586 45.6413 218.869 45.6003 219.157 45.5953C219.541 45.5886 219.922 45.65 220.3 45.7794C220.678 45.9008 220.986 46.1195 221.224 46.4354L220.279 47.316Z" fill="#3F8CFF"/>
<path d="M237.332 43.9599L238.844 43.9335L238.992 52.4282L237.48 52.4546L237.332 43.9599ZM240.623 46.6389L241.991 46.615L242.007 47.5388L242.031 47.5384C242.162 47.2481 242.365 46.9965 242.642 46.7836C242.918 46.5628 243.296 46.4482 243.776 46.4398C244.16 46.4331 244.485 46.4914 244.751 46.6148C245.025 46.738 245.248 46.9022 245.42 47.1072C245.591 47.3122 245.716 47.5501 245.792 47.8208C245.869 48.0915 245.91 48.3748 245.915 48.6708L245.979 52.3062L244.539 52.3314L244.488 49.4158C244.485 49.2558 244.474 49.08 244.455 48.8883C244.435 48.6886 244.388 48.5054 244.313 48.3387C244.246 48.1639 244.14 48.0217 243.994 47.9122C243.848 47.7948 243.651 47.7382 243.403 47.7425C243.163 47.7467 242.959 47.7903 242.793 47.8732C242.634 47.956 242.5 48.0663 242.391 48.2042C242.289 48.342 242.216 48.4993 242.171 48.6762C242.126 48.853 242.105 49.0374 242.108 49.2293L242.163 52.3728L240.723 52.398L240.623 46.6389ZM251.147 43.7187L254.099 43.6672C254.506 43.6601 254.899 43.6933 255.276 43.7667C255.662 43.832 256.004 43.954 256.303 44.1328C256.602 44.3116 256.842 44.5555 257.024 44.8643C257.205 45.1732 257.3 45.5676 257.309 46.0476C257.319 46.6635 257.156 47.1824 256.82 47.6043C256.491 48.0261 256.011 48.2865 255.381 48.3856L257.702 52.1016L255.879 52.1334L253.848 48.5683L252.744 48.5876L252.807 52.1871L251.295 52.2134L251.147 43.7187ZM253.897 47.2713C254.113 47.2675 254.329 47.2557 254.545 47.236C254.76 47.2082 254.956 47.1568 255.13 47.0817C255.313 46.9985 255.459 46.88 255.568 46.726C255.677 46.5641 255.729 46.3432 255.725 46.0632C255.72 45.8152 255.665 45.6162 255.558 45.466C255.452 45.3159 255.314 45.2062 255.144 45.1372C254.975 45.0601 254.786 45.0114 254.578 44.9911C254.377 44.9706 254.181 44.962 253.989 44.9653L252.681 44.9882L252.722 47.2918L253.897 47.2713ZM259.831 49.6881C259.887 50.1192 260.06 50.4522 260.353 50.6871C260.645 50.9221 260.995 51.036 261.403 51.0289C261.763 51.0226 262.061 50.9454 262.299 50.7972C262.544 50.6409 262.757 50.4491 262.937 50.222L263.982 50.9838C263.654 51.4056 263.283 51.7082 262.87 51.8914C262.457 52.0746 262.023 52.1702 261.567 52.1782C261.135 52.1857 260.726 52.1208 260.339 51.9836C259.953 51.8463 259.617 51.6481 259.333 51.389C259.048 51.13 258.819 50.8179 258.644 50.4529C258.478 50.0798 258.39 49.6652 258.382 49.2093C258.375 48.7534 258.447 48.34 258.601 47.9693C258.762 47.5904 258.981 47.2666 259.256 46.9977C259.531 46.7289 259.86 46.5191 260.241 46.3684C260.623 46.2177 261.029 46.1386 261.461 46.1311C261.861 46.1241 262.226 46.1898 262.557 46.328C262.895 46.4581 263.183 46.6531 263.419 46.913C263.664 47.1728 263.853 47.4976 263.988 47.8873C264.131 48.2688 264.207 48.7116 264.215 49.2155L264.222 49.6114L259.831 49.6881ZM262.764 48.5567C262.748 48.1329 262.611 47.8033 262.35 47.5678C262.09 47.3243 261.732 47.2065 261.276 47.2145C260.844 47.222 260.502 47.352 260.251 47.6044C260.007 47.8567 259.861 48.1913 259.812 48.6083L262.764 48.5567ZM264.73 46.2181L266.302 46.1906L267.908 50.1952L267.932 50.1948L269.409 46.1364L270.885 46.1106L268.718 51.9093L267.182 51.9361L264.73 46.2181ZM271.755 46.0954L273.195 46.0703L273.296 51.8294L271.856 51.8546L271.755 46.0954ZM271.517 44.1433C271.513 43.9113 271.594 43.7099 271.759 43.539C271.932 43.3599 272.15 43.2681 272.414 43.2635C272.678 43.2589 272.9 43.339 273.078 43.5039C273.265 43.6607 273.361 43.8631 273.365 44.111C273.369 44.359 273.281 44.5686 273.1 44.7398C272.927 44.9028 272.708 44.9866 272.444 44.9912C272.18 44.9958 271.959 44.9157 271.78 44.7508C271.609 44.5778 271.521 44.3753 271.517 44.1433ZM276.059 49.4048C276.115 49.8359 276.288 50.1689 276.581 50.4039C276.873 50.6388 277.223 50.7527 277.631 50.7456C277.991 50.7393 278.289 50.6621 278.527 50.5139C278.772 50.3576 278.985 50.1659 279.165 49.9387L280.21 50.7006C279.882 51.1224 279.511 51.4249 279.098 51.6081C278.685 51.7914 278.251 51.887 277.795 51.8949C277.363 51.9025 276.954 51.8376 276.567 51.7003C276.181 51.563 275.845 51.3649 275.561 51.1058C275.276 50.8467 275.047 50.5347 274.872 50.1697C274.706 49.7965 274.618 49.382 274.61 48.926C274.603 48.4701 274.675 48.0568 274.829 47.686C274.99 47.3072 275.209 46.9833 275.484 46.7145C275.759 46.4456 276.088 46.2358 276.469 46.0852C276.851 45.9345 277.257 45.8554 277.689 45.8478C278.089 45.8409 278.454 45.9065 278.785 46.0447C279.123 46.1749 279.411 46.3699 279.647 46.6298C279.892 46.8896 280.081 47.2143 280.216 47.604C280.359 47.9856 280.435 48.4283 280.443 48.9322L280.45 49.3282L276.059 49.4048ZM278.992 48.2735C278.976 47.8497 278.839 47.52 278.578 47.2845C278.318 47.041 277.96 46.9233 277.504 46.9312C277.072 46.9388 276.73 47.0688 276.479 47.3212C276.235 47.5735 276.089 47.9081 276.04 48.325L278.992 48.2735ZM280.958 45.9348L282.518 45.9076L283.836 49.9172L283.86 49.9168L284.953 45.8651L286.513 45.8378L287.831 49.8474L287.855 49.847L288.985 45.7947L290.436 45.7694L288.581 51.5626L287.153 51.5875L285.717 47.676L285.693 47.6764L284.55 51.633L283.062 51.659L280.958 45.9348Z" fill="#3F8CFF"/>
<path d="M321.266 43.752L324.614 43.6936C325.174 43.6838 325.715 43.7624 326.238 43.9293C326.761 44.0882 327.225 44.3401 327.632 44.6851C328.038 45.03 328.365 45.4684 328.615 46.0001C328.864 46.5238 328.995 47.1456 329.007 47.8655C329.02 48.5934 328.891 49.2278 328.62 49.7686C328.358 50.3012 328.009 50.7474 327.576 51.107C327.15 51.4585 326.67 51.7269 326.137 51.9122C325.612 52.0894 325.094 52.1825 324.582 52.1914L321.415 52.2467L321.266 43.752ZM324.03 50.8328C324.502 50.8246 324.945 50.7649 325.359 50.6536C325.781 50.5342 326.146 50.3598 326.454 50.1304C326.762 49.893 327.001 49.5928 327.171 49.2298C327.348 48.8586 327.433 48.4131 327.423 47.8932C327.415 47.3813 327.327 46.9427 327.16 46.5776C326.994 46.2124 326.765 45.9204 326.473 45.7014C326.189 45.4744 325.85 45.3122 325.456 45.2151C325.071 45.1098 324.646 45.0612 324.182 45.0693L322.802 45.0934L322.902 50.8525L324.03 50.8328ZM330.048 49.2156C330.04 48.7596 330.113 48.3463 330.267 47.9756C330.428 47.5967 330.647 47.2728 330.922 47.004C331.197 46.7351 331.526 46.5254 331.907 46.3747C332.289 46.224 332.695 46.1449 333.127 46.1374C333.559 46.1298 333.968 46.1947 334.355 46.332C334.741 46.4693 335.077 46.6674 335.361 46.9265C335.646 47.1856 335.871 47.5017 336.038 47.8748C336.212 48.2398 336.304 48.6503 336.311 49.1062C336.319 49.5622 336.243 49.9796 336.081 50.3585C335.928 50.7292 335.713 51.049 335.438 51.3178C335.163 51.5867 334.834 51.7964 334.453 51.9471C334.071 52.0978 333.665 52.1769 333.233 52.1844C332.801 52.192 332.392 52.1271 332.005 51.9898C331.619 51.8526 331.283 51.6544 330.999 51.3953C330.714 51.1362 330.485 50.8242 330.31 50.4592C330.144 50.086 330.056 49.6715 330.048 49.2156ZM331.488 49.1904C331.492 49.4144 331.532 49.6297 331.608 49.8365C331.691 50.043 331.806 50.225 331.953 50.3825C332.108 50.5398 332.29 50.6647 332.5 50.757C332.709 50.8494 332.946 50.8933 333.21 50.8886C333.474 50.884 333.709 50.8319 333.915 50.7323C334.122 50.6327 334.296 50.5016 334.437 50.3392C334.586 50.1765 334.695 49.9906 334.763 49.7814C334.839 49.572 334.876 49.3553 334.872 49.1314C334.868 48.9074 334.824 48.6921 334.74 48.4856C334.665 48.2789 334.55 48.0968 334.395 47.9395C334.248 47.7821 334.07 47.6572 333.86 47.5648C333.651 47.4724 333.414 47.4286 333.15 47.4332C332.886 47.4378 332.651 47.4899 332.444 47.5895C332.238 47.6891 332.06 47.8202 331.911 47.9829C331.77 48.1454 331.661 48.3313 331.585 48.5407C331.517 48.7499 331.484 48.9665 331.488 49.1904ZM337.609 46.2032L338.977 46.1793L338.993 47.1031L339.017 47.1027C339.148 46.8124 339.352 46.5608 339.628 46.3479C339.904 46.1271 340.282 46.0125 340.762 46.0041C341.146 45.9974 341.471 46.0557 341.737 46.1791C342.012 46.3023 342.235 46.4665 342.406 46.6715C342.578 46.8765 342.702 47.1144 342.779 47.3851C342.855 47.6558 342.896 47.9391 342.901 48.2351L342.965 51.8706L341.525 51.8957L341.474 48.9801C341.471 48.8202 341.46 48.6443 341.441 48.4526C341.422 48.2529 341.374 48.0697 341.299 47.903C341.232 47.7282 341.126 47.586 340.98 47.4765C340.834 47.3591 340.637 47.3025 340.389 47.3068C340.149 47.311 339.946 47.3546 339.779 47.4375C339.621 47.5203 339.486 47.6306 339.377 47.7685C339.275 47.9063 339.202 48.0636 339.157 48.2405C339.112 48.4173 339.091 48.6017 339.095 48.7936L339.15 51.9371L337.71 51.9623L337.609 46.2032ZM345.71 49.4463C345.765 49.8774 345.939 50.2104 346.231 50.4453C346.523 50.6803 346.873 50.7942 347.281 50.7871C347.641 50.7808 347.94 50.7035 348.177 50.5554C348.423 50.3991 348.635 50.2073 348.815 49.9802L349.861 50.742C349.532 51.1638 349.161 51.4663 348.749 51.6496C348.336 51.8328 347.901 51.9284 347.445 51.9364C347.013 51.9439 346.604 51.879 346.218 51.7418C345.831 51.6045 345.496 51.4063 345.211 51.1472C344.927 50.8882 344.697 50.5761 344.523 50.2111C344.356 49.838 344.269 49.4234 344.261 48.9675C344.253 48.5116 344.326 48.0982 344.48 47.7275C344.641 47.3486 344.859 47.0248 345.135 46.7559C345.41 46.4871 345.738 46.2773 346.12 46.1266C346.501 45.9759 346.908 45.8968 347.34 45.8893C347.74 45.8823 348.105 45.9479 348.435 46.0862C348.774 46.2163 349.061 46.4113 349.298 46.6712C349.542 46.931 349.732 47.2557 349.867 47.6455C350.01 48.027 350.085 48.4698 350.094 48.9737L350.101 49.3696L345.71 49.4463ZM348.642 48.3149C348.627 47.8911 348.489 47.5615 348.229 47.326C347.969 47.0825 347.611 46.9647 347.155 46.9727C346.723 46.9802 346.381 47.1102 346.129 47.3626C345.886 47.6149 345.74 47.9495 345.691 48.3664L348.642 48.3149Z" fill="#3F8CFF"/>
<path fill-rule="evenodd" clip-rule="evenodd" d="M162.104 231C161.629 231 161.234 230.623 161.21 230.139L152.001 38.9485C151.977 38.4497 152.359 38.0258 152.853 38.0008C153.327 37.9799 153.765 38.3609 153.79 38.8617L162.999 230.051C163.023 230.55 162.642 230.975 162.148 230.999L162.104 231Z" fill="#3F8CFF"/>
<path fill-rule="evenodd" clip-rule="evenodd" d="M310.103 231C309.629 231 309.234 230.623 309.21 230.139L300.001 38.9485C299.977 38.4497 300.358 38.0258 300.852 38.0008C301.319 37.9799 301.764 38.3609 301.79 38.8617L310.999 230.051C311.023 230.55 310.641 230.975 310.147 230.999L310.103 231Z" fill="#3F8CFF"/>
<path fill-rule="evenodd" clip-rule="evenodd" d="M236.104 231C235.629 231 235.234 230.623 235.21 230.139L226.001 38.9485C225.977 38.4497 226.358 38.0258 226.853 38.0008C227.34 37.9799 227.765 38.3619 227.79 38.8617L236.999 230.051C237.023 230.55 236.641 230.975 236.147 230.999L236.104 231Z" fill="#3F8CFF"/>
<path fill-rule="evenodd" clip-rule="evenodd" d="M367.093 59H88.9072C88.4061 59 88 58.5524 88 58C88 57.4476 88.4061 57 88.9072 57H367.093C367.594 57 368 57.4476 368 58C368 58.5524 367.594 59 367.093 59Z" fill="#3F8CFF"/>
<path fill-rule="evenodd" clip-rule="evenodd" d="M114.857 131.024C112.073 114.328 110.902 95.652 111.006 81.821L153.282 80.189L155.65 128.825L114.857 131.024ZM157.462 128.727L155.096 80.119L158.188 80C158.732 95.078 160.592 111.415 163.15 128.421L157.462 128.727Z" fill="#DADFE4"/>
<path fill-rule="evenodd" clip-rule="evenodd" d="M156.266 129L154 80.0704L155.736 80L158 128.901L156.266 129Z" fill="#B0C9DF"/>
<path fill-rule="evenodd" clip-rule="evenodd" d="M164 126.397L115.939 129C113.168 112.312 111.439 96.1381 111 80.6037L159.062 78C159.602 93.0716 161.453 109.401 164 126.397Z" fill="#12499A"/>
<path fill-rule="evenodd" clip-rule="evenodd" d="M224.998 146L176 143.074L176.002 95L225 97.9257L224.998 146Z" fill="#DADFE4"/>
<path fill-rule="evenodd" clip-rule="evenodd" d="M223.43 145L175 142.091L175.57 94L224 96.9082L223.43 145Z" fill="#FFFFFE"/>
<path fill-rule="evenodd" clip-rule="evenodd" d="M309.934 135.531C309.964 134.761 309.991 133.998 310.014 133.244L318.324 132.816C318.874 127.716 318.523 121.132 317.645 113.68C318.869 122.148 319.593 130.323 319.064 135.232L309.934 135.531ZM269.292 110.957L268.918 110.899C268.107 104.65 266.986 98.114 265.535 91.412C267.013 98.154 268.303 104.708 269.292 110.957Z" fill="#DADFE4"/>
<path fill-rule="evenodd" clip-rule="evenodd" d="M271.719 135L318.736 132.575C319.942 121.364 316.822 103.006 313.309 84L265 87.0755C269.026 104.857 271.93 121.503 271.719 135Z" fill="#6D5DD3"/>
<path fill-rule="evenodd" clip-rule="evenodd" d="M137.554 211.401C136.176 197.946 135.968 182.069 131 164.551L157.622 161.388L159.946 209.125L137.554 211.401ZM161.754 208.941L159.429 161.173L177.717 159C181.162 168.833 186.972 195.069 187.1 206.366L161.754 208.941Z" fill="#DADFE4"/>
<path fill-rule="evenodd" clip-rule="evenodd" d="M160.25 209L158 161.215L159.749 161L162 208.816L160.25 209Z" fill="#B0C9DF"/>
<path fill-rule="evenodd" clip-rule="evenodd" d="M139.153 210L186.943 204.843C187.534 193.669 183.432 175.645 178.905 157L131 162.652C134.879 180.103 138.63 196.615 139.153 210Z" fill="#FDC748"/>
<path fill-rule="evenodd" clip-rule="evenodd" d="M306.088 166.388L258 157.37C261.146 144.436 263.079 127.978 262.982 110L269.067 110.953C270.291 120.379 270.809 129.155 270.688 136.873L294.895 136.082C295.509 136.919 296.106 137.664 296.755 138.422C297.464 139.255 298.185 140.084 298.948 140.88C300.475 142.471 302.116 143.983 303.94 145.393C304.321 145.68 304.709 145.965 305.107 146.246L306.088 166.388ZM307.633 160.817L306.983 147.474C307.696 147.902 308.445 148.306 309.246 148.675C308.84 153.106 308.307 157.309 307.633 160.817ZM309.913 139.292C309.414 139.062 308.912 138.811 308.413 138.545C307.774 138.21 307.135 137.852 306.496 137.474L306.41 135.705L310.083 135.585C310.035 136.806 309.978 138.046 309.913 139.292ZM304.623 136.316C304.354 136.143 304.085 135.967 303.816 135.79L304.596 135.764L304.623 136.316Z" fill="#DADFE4"/>
<path fill-rule="evenodd" clip-rule="evenodd" d="M306.624 166.708L306.492 166.683L305.511 146.541C306.112 146.964 306.734 147.377 307.387 147.769L308.037 161.112C307.621 163.279 307.151 165.18 306.624 166.708ZM306.9 137.769C306.275 137.399 305.65 137.012 305.027 136.611L305 136.059L306.814 136L306.9 137.769Z" fill="#B0C9DF"/>
<path fill-rule="evenodd" clip-rule="evenodd" d="M270.621 136.92C270.742 129.202 270.224 120.426 269 111L269.374 111.058C270.768 119.858 271.565 128.054 271.451 135.333L296.564 134.041L294.628 135.854C294.695 135.947 294.761 136.038 294.828 136.129L270.621 136.92ZM303.749 135.837C303.633 135.76 303.517 135.683 303.402 135.606C302.537 135.046 301.671 134.438 300.821 133.822L304.423 133.637L304.529 135.811L303.749 135.837ZM306.343 135.752L306.236 133.543L310.096 133.345C310.073 134.099 310.046 134.862 310.016 135.632L306.343 135.752Z" fill="#719CC6"/>
<path fill-rule="evenodd" clip-rule="evenodd" d="M304.11 135L304 133.083L305.889 133L306 134.948L304.11 135Z" fill="#83A9CE"/>
<path fill-rule="evenodd" clip-rule="evenodd" d="M271.085 135C271.199 127.803 270.399 119.7 269 111L309.785 117.29C310.03 120.855 310.074 126.612 309.872 133.035L305.998 133.23L304.178 133.323L300.563 133.506C299.794 132.956 299.038 132.401 298.305 131.864L296.29 133.723L271.085 135Z" fill="#3769A4"/>
<path fill-rule="evenodd" clip-rule="evenodd" d="M259 155.164L305.784 163C309.406 152.567 310.326 134.382 311 115.494L262.805 108C262.902 125.83 262.141 142.336 259 155.164Z" fill="#FFFFFE"/>
<path fill-rule="evenodd" clip-rule="evenodd" d="M372.861 112C373.807 113.013 374.605 113.911 375.421 114.898C376.233 115.862 377.024 116.838 377.803 117.828C379.355 119.808 380.841 121.847 382.246 123.96C383.637 126.088 385.007 128.236 386.221 130.526C387.456 132.803 388.614 135.146 389.563 137.668L389.928 138.604L390.019 138.842L390.133 139.186L390.351 139.877C390.466 140.315 390.561 140.739 390.647 141.158C390.711 141.557 390.785 141.967 390.832 142.353C391.01 143.899 391.022 145.31 390.979 146.675C390.899 149.397 390.537 151.951 390.121 154.461C389.232 159.477 387.959 164.241 386.308 169L381.111 167.788C381.497 163.058 381.851 158.236 381.98 153.592C382.059 151.274 382.025 148.972 381.874 146.837C381.794 145.773 381.652 144.755 381.453 143.903L381.303 143.308L381.138 142.83L380.576 141.668C378.686 137.777 376.183 133.949 373.517 130.237C372.177 128.379 370.767 126.554 369.342 124.742C368.632 123.835 367.905 122.938 367.169 122.057L365 119.488L372.861 112Z" fill="#BE5B52"/>
<path fill-rule="evenodd" clip-rule="evenodd" d="M381.714 166L378 169.86L385.247 174C385.247 174 387.754 170.772 386.772 167.472L381.714 166Z" fill="#BD5B52"/>
<path fill-rule="evenodd" clip-rule="evenodd" d="M373 175.631L380.017 178L385 174.089L377.795 170L373 175.631Z" fill="#BD5B52"/>
<path fill-rule="evenodd" clip-rule="evenodd" d="M392.973 192L347 181.973C349.454 165.844 352.73 150.46 357.027 136L403 146.026C398.94 160.086 395.731 175.645 392.973 192Z" fill="#3769A4"/>
<path fill-rule="evenodd" clip-rule="evenodd" d="M386.691 193L342 179.691L355.309 135L400 148.308L386.691 193Z" fill="#FFFFFE"/>
<path fill-rule="evenodd" clip-rule="evenodd" d="M345.998 82.0276C345.976 82.5798 345.735 83.0148 345.459 82.9996C345.184 82.9863 344.979 82.5265 345.002 81.9743C345.024 81.4221 345.265 80.9861 345.541 81.0003C345.816 81.0156 346.021 81.4754 345.998 82.0276Z" fill="#132529"/>
<path fill-rule="evenodd" clip-rule="evenodd" d="M346 83C346 83 344.52 86.5622 343 88.2449C343.964 89.3259 345.71 88.9288 345.71 88.9288L346 83Z" fill="#A92D2F"/>
<path fill-rule="evenodd" clip-rule="evenodd" d="M348.743 78.9971L348.933 78.9052C349.038 78.7981 349.017 78.6432 348.888 78.5586C347.589 77.7171 346.265 78.0716 346.208 78.0876C346.05 78.1317 345.964 78.2721 346.015 78.4009C346.067 78.5289 346.238 78.5969 346.394 78.5543C346.437 78.5434 347.475 78.2764 348.51 78.9471C348.578 78.9913 348.662 79.0072 348.743 78.9971Z" fill="#132529"/>
<path fill-rule="evenodd" clip-rule="evenodd" d="M364.166 91C363.059 96.1634 362.338 103.316 366 106.762C366 106.762 364.483 112 354.637 112C343.81 112 349.488 107.404 349.488 107.404C354.006 106.042 354.034 101.047 353.056 97.0355L364.166 91Z" fill="#BD5B52"/>
<path fill-rule="evenodd" clip-rule="evenodd" d="M340.089 353.338C339.969 353.338 339.858 353.349 339.759 353.377C339.601 353.419 339.491 353.497 339.422 353.615C339.299 353.826 339.341 353.931 339.384 353.992C339.713 354.457 341.532 354.468 342.872 354.278C342.209 353.936 340.93 353.338 340.089 353.338ZM341.212 354.733C340.289 354.733 339.398 354.605 339.105 354.191C339.002 354.046 338.923 353.799 339.129 353.446C339.244 353.248 339.427 353.114 339.674 353.048C340.875 352.721 343.372 354.155 343.477 354.216L343.559 354.391L343.422 354.531C342.962 354.623 342.072 354.733 341.212 354.733Z" fill="#3769A4"/>
<path fill-rule="evenodd" clip-rule="evenodd" d="M341.781 351.341L341.679 351.347C341.372 351.377 341.35 351.498 341.344 351.538C341.259 352.026 342.412 353.249 343.291 353.781C343.206 353.216 342.965 352.056 342.37 351.563C342.191 351.414 341.997 351.341 341.781 351.341ZM343.499 354.258L343.43 354.243C342.566 353.854 340.866 352.297 341.008 351.484C341.041 351.292 341.18 351.055 341.649 351.007C341.999 350.972 342.313 351.07 342.59 351.3C343.495 352.051 343.664 353.989 343.671 354.071L343.599 354.226L343.499 354.258Z" fill="#3769A4"/>
<path fill-rule="evenodd" clip-rule="evenodd" d="M352 354H344.524L344 337H351.477L352 354Z" fill="#BD5B52"/>
<path fill-rule="evenodd" clip-rule="evenodd" d="M344.287 353H352.054C352.345 353 352.594 353.2 352.653 353.481L353.977 359.736C354.115 360.384 353.609 360.998 352.938 360.986C350.137 360.939 346.09 360.777 342.57 360.777C338.452 360.777 335.855 361 331.026 361C328.107 361 327.334 358.079 328.559 357.815C334.139 356.61 337.722 356.482 342.568 353.549C343.094 353.23 343.674 353 344.287 353Z" fill="#0A1629"/>
<path fill-rule="evenodd" clip-rule="evenodd" d="M369.224 108C376.22 108.073 386 125.276 386 125.276L375.157 136C375.157 136 368.05 132.792 364.101 124.966C359.965 116.766 362.071 107.926 369.224 108Z" fill="#3769A4"/>
<path fill-rule="evenodd" clip-rule="evenodd" d="M375.376 136C375.619 130.863 376.053 125.456 376.772 119.965C376.84 119.448 376.873 118.935 376.874 118.428C376.875 114.551 374.961 111.044 372 109C378.153 112.751 385 125.737 385 125.737L383.493 127.343L375.376 136Z" fill="#3A81EB"/>
<path fill-rule="evenodd" clip-rule="evenodd" d="M336.443 115.018C334.885 122.739 333.767 138.595 337.603 170H375.798C376.091 164.912 373.636 142.71 376.896 118.872C377.776 112.438 372.959 106.617 366.481 106.26C366.341 106.252 366.202 106.245 366.062 106.238C361.186 106.003 354.122 105.848 349.826 106.239C348.033 106.402 346.271 106.661 344.701 106.938C340.552 107.672 337.277 110.886 336.443 115.018Z" fill="#3769A4"/>
<path fill-rule="evenodd" clip-rule="evenodd" d="M376.094 170.43H337.608C336.159 158.574 335.411 148.921 335.126 141.074C338.998 140.097 343.394 136.67 344.914 132.451C348.374 128.946 352.691 123.406 353.097 117.287C353.119 116.953 353.13 116.622 353.13 116.294C353.128 111.202 350.475 106.892 345.886 106.892C345.166 106.892 344.399 106.998 343.587 107.224C343.969 107.109 344.361 107.016 344.76 106.945C346.342 106.666 348.117 106.405 349.924 106.241C351.834 106.067 354.286 106 356.853 106C360.103 106 363.538 106.108 366.284 106.24C366.425 106.247 366.565 106.254 366.706 106.262C372.717 106.594 377.308 111.59 377.305 117.436C377.304 117.938 377.27 118.447 377.2 118.959C375.856 128.779 375.476 138.322 375.476 146.523C375.476 157.189 376.119 165.583 376.119 169.355C376.119 169.77 376.111 170.13 376.094 170.43ZM335.07 139.367C335.036 138.203 335.013 137.082 335 136C335.033 135.965 335.067 135.93 335.101 135.895C335.042 136.97 335.04 138.129 335.07 139.367Z" fill="#3F8CFF"/>
<path fill-rule="evenodd" clip-rule="evenodd" d="M334.528 142C334.505 141.316 334.485 140.648 334.472 140C334.488 140.655 334.507 141.323 334.528 142Z" fill="#9AA9B8"/>
<path fill-rule="evenodd" clip-rule="evenodd" d="M335.076 142C335.055 141.397 335.036 140.802 335.019 140.218C334.989 138.926 334.991 137.717 335.051 136.595C335.336 136.29 335.62 135.983 335.901 135.674C336.155 135.396 336.408 135.118 336.66 134.837L340.567 137.042C340.567 137.042 342.576 135.529 345 133C343.459 137.403 339.002 140.98 335.076 142Z" fill="#3576D6"/>
<path fill-rule="evenodd" clip-rule="evenodd" d="M351.198 345.589H351.195L350.936 337H350.94L351.198 345.589Z" fill="#BEBFBB"/>
<path fill-rule="evenodd" clip-rule="evenodd" d="M351 346H344.242V345.984L344 337H350.757L351 346Z" fill="#914642"/>
<path fill-rule="evenodd" clip-rule="evenodd" d="M365.931 81.7904C365.105 88.8503 364.987 93.0176 361.157 96.5053C355.398 101.75 346.699 98.1547 345.366 91.0224C344.167 84.6025 345.719 74.1374 352.91 71.6026C359.996 69.1056 366.758 74.7316 365.931 81.7904Z" fill="#BD5B52"/>
<path fill-rule="evenodd" clip-rule="evenodd" d="M351.07 84.3181C348.856 84.8133 347.854 79.6555 350.109 77.6748C348.104 76.6844 345.203 75.2503 344.237 73.0943C343.126 70.6184 346.141 67.6473 348.731 67.7711C347.895 66.1201 349.749 61.7021 355.028 63.3699C360.43 65.0753 362.807 67.6057 362.807 67.6057C362.807 67.6057 364.551 61.8843 368.227 66.5054C371.492 70.6124 370.2 74.1203 370.2 74.1203C370.2 74.1203 375.046 78.6651 373.793 82.0482C372.54 85.4323 369.783 86.6287 369.783 86.6287C369.783 86.6287 370.516 94.5813 364.62 96.4918C358.726 98.4032 355.014 94.4694 355.506 92.1995C351.696 92.4065 347.812 87.3715 351.07 84.3181Z" fill="#233862"/>
<path fill-rule="evenodd" clip-rule="evenodd" d="M353.965 84.2888C353.714 86.2465 352.688 88.0436 351.522 89.1894C349.77 90.9125 348.149 89.6799 348.013 87.4474C347.889 85.4379 348.654 82.1197 350.713 81.2339C352.741 80.3618 354.251 82.0499 353.965 84.2888Z" fill="#BD5B52"/>
<path fill-rule="evenodd" clip-rule="evenodd" d="M413 344.678L406.484 347L400 330.323L406.516 328L413 344.678Z" fill="#BD5B52"/>
<path fill-rule="evenodd" clip-rule="evenodd" d="M401.695 347.404C401.601 347.479 401.521 347.558 401.46 347.64C401.362 347.771 401.324 347.9 401.343 348.035C401.377 348.277 401.475 348.334 401.546 348.355C402.092 348.517 403.528 347.401 404.464 346.424C403.731 346.565 402.356 346.885 401.695 347.404ZM403.441 347.807C402.715 348.378 401.937 348.828 401.449 348.684C401.279 348.634 401.064 348.488 401.008 348.084C400.976 347.858 401.037 347.638 401.19 347.434C401.933 346.435 404.781 346.018 404.902 346L405.074 346.088L405.053 346.282C404.748 346.639 404.117 347.275 403.441 347.807Z" fill="#3769A4"/>
<path fill-rule="evenodd" clip-rule="evenodd" d="M401.583 345.533L401.506 345.601C401.284 345.815 401.342 345.923 401.361 345.958C401.596 346.395 403.259 346.643 404.279 346.518C403.862 346.125 402.955 345.363 402.183 345.344C401.951 345.337 401.753 345.4 401.583 345.533ZM404.737 346.764L404.673 346.795C403.754 347.023 401.455 346.851 401.064 346.123C400.972 345.952 400.934 345.68 401.273 345.353C401.526 345.108 401.834 344.991 402.193 345C403.37 345.031 404.701 346.45 404.757 346.511L404.796 346.677L404.737 346.764Z" fill="#3769A4"/>
<path fill-rule="evenodd" clip-rule="evenodd" d="M405.51 344.89L411.58 340.136C411.807 339.957 412.135 339.955 412.369 340.129L417.586 344.006C418.126 344.409 418.142 345.179 417.61 345.581C415.39 347.261 411.106 350.7 408.489 353.016C405.429 355.724 407.811 353.913 404.223 357.089C402.053 359.009 399.399 357.449 400.121 356.455C403.409 351.932 404.109 349.24 404.533 346.354C404.619 345.766 405.031 345.266 405.51 344.89Z" fill="#0A1629"/>
<path fill-rule="evenodd" clip-rule="evenodd" d="M300 132.815L297.314 127L290 131.552C290 131.552 292.41 136.504 297.4 135.958L300 132.815Z" fill="#BD5B52"/>
<path fill-rule="evenodd" clip-rule="evenodd" d="M290.626 125.599L288.876 127.077C287.74 128.035 287.704 129.746 288.796 130.751L290.155 132L298 127.248L293.293 125.21C292.402 124.826 291.364 124.976 290.626 125.599Z" fill="#BD5B52"/>
<path fill-rule="evenodd" clip-rule="evenodd" d="M403.105 339.625L403 339.354L403.105 339.625ZM409.499 337.331L407.826 333.001L407.829 333L409.502 337.33L409.499 337.331Z" fill="#BEBFBB"/>
<path fill-rule="evenodd" clip-rule="evenodd" d="M403.35 340L403.241 339.714L402 336.448L408.26 333L410 337.576L403.35 340Z" fill="#914642"/>
<path fill-rule="evenodd" clip-rule="evenodd" d="M351 171C351 171 363.066 226.417 367.681 246.988C372.735 269.516 399.326 338 399.326 338L411 331.687C411 331.687 398.512 277.957 389.384 248.646C386.074 224.417 375.955 171 375.955 171H351Z" fill="#0A1629"/>
<path fill-rule="evenodd" clip-rule="evenodd" d="M396 334.4L398.418 339L413 333.484L411.84 329L396 334.4Z" fill="#3F8CFF"/>
<path fill-rule="evenodd" clip-rule="evenodd" d="M367.614 248C367.539 247.657 367.461 247.324 367.385 247C367.387 247.001 367.388 247.001 367.39 247.002C367.461 247.3 367.536 247.606 367.615 247.919C367.614 247.946 367.614 247.974 367.614 248Z" fill="#A0A29F"/>
<path fill-rule="evenodd" clip-rule="evenodd" d="M367.568 247.795C367.567 247.794 367.565 247.794 367.563 247.793C367.518 247.593 367.473 247.397 367.431 247.205H367.433C367.477 247.398 367.521 247.595 367.568 247.795Z" fill="#939692"/>
<path fill-rule="evenodd" clip-rule="evenodd" d="M367.905 247H367.904C367.898 246.974 367.892 246.946 367.887 246.92C367.642 245.717 367.379 244.406 367.094 243H367.097C367.38 244.406 367.646 245.719 367.89 246.923C367.895 246.948 367.9 246.975 367.905 247Z" fill="#1D5697"/>
<path fill-rule="evenodd" clip-rule="evenodd" d="M367 243H366.998C366.69 241.457 366.355 239.781 366 238C366.355 239.782 366.69 241.456 367 243Z" fill="#8593A0"/>
<path fill-rule="evenodd" clip-rule="evenodd" d="M367.985 248C367.909 247.678 367.837 247.363 367.768 247.056C367.723 246.855 367.679 246.657 367.637 246.463C367.633 246.44 367.627 246.416 367.622 246.393C367.386 245.297 367.129 244.102 366.856 242.822C366.502 241.174 366.121 239.386 365.716 237.484C363.213 225.707 359.829 209.617 357 196.14C357.28 196.045 357.581 196 357.896 196C358.062 196 358.232 196.012 358.405 196.037C367.146 197.247 368.144 229.19 367.985 248Z" fill="black"/>
<path fill-rule="evenodd" clip-rule="evenodd" d="M337.621 171C337.621 171 334.552 224.707 335.056 246.613C335.579 269.397 342.009 344 342.009 344H354.237C354.237 344 356.236 270.728 357.068 248.351C357.976 223.957 363 171 363 171H337.621Z" fill="#0A1629"/>
<path fill-rule="evenodd" clip-rule="evenodd" d="M339 339L339.627 344H354.538L355 339.538L339 339Z" fill="#3F8CFF"/>
<path fill-rule="evenodd" clip-rule="evenodd" d="M348 119.367C346.343 122.325 344.444 125.126 342.448 127.827C340.425 130.509 338.241 133.047 335.948 135.455C333.662 137.871 331.257 140.15 328.789 142.314C326.355 144.48 323.729 146.546 321.408 148.441L320.584 149.112L319.911 149.354C318.117 149.993 316.294 150.103 314.734 149.921C313.163 149.743 311.79 149.336 310.554 148.851C308.083 147.866 306.094 146.546 304.252 145.171C302.427 143.771 300.784 142.271 299.256 140.692C298.493 139.902 297.771 139.079 297.062 138.253C296.342 137.419 295.687 136.602 295 135.658L298.947 131.993C300.487 133.128 302.134 134.355 303.781 135.412C305.42 136.497 307.076 137.516 308.728 138.375C310.366 139.24 312.038 139.941 313.501 140.3C314.229 140.484 314.895 140.555 315.396 140.527C315.905 140.494 316.199 140.386 316.346 140.274L314.85 141.187C317.292 138.918 319.501 136.9 321.705 134.764C323.885 132.639 325.976 130.465 327.972 128.23C329.951 125.982 331.861 123.695 333.618 121.319C335.394 118.954 336.99 116.488 338.522 114L348 119.367Z" fill="#BE5B52"/>
<path fill-rule="evenodd" clip-rule="evenodd" d="M352.967 117.242C352.281 127.438 340.409 136 340.409 136L325 127.677C325 127.677 330.676 115.662 338.321 109.99C347.766 102.984 353.489 109.482 352.967 117.242Z" fill="#3769A4"/>
<path fill-rule="evenodd" clip-rule="evenodd" d="M340.409 136L326.812 128.656L325 127.677C325 127.677 330.676 115.662 338.321 109.99C341.157 107.887 343.658 107 345.754 107C350.344 107 352.998 111.247 353 116.264C353 116.587 352.989 116.913 352.967 117.242C352.281 127.439 340.409 136 340.409 136Z" fill="#3F8CFF"/>
</g>
<defs>
<clipPath id="clip0_0_6930">
<rect width="500" height="373" fill="white"/>
</clipPath>
</defs>
</svg>
