<svg width="24" height="24" viewBox="0 0 24 24" fill="none" xmlns="http://www.w3.org/2000/svg">
<path fill-rule="evenodd" clip-rule="evenodd" d="M19.9933 1.88338C19.9355 1.38604 19.5128 1 19 1C18.4477 1 18 1.44772 18 2V4H16L15.8834 4.00673C15.386 4.06449 15 4.48716 15 5C15 5.55228 15.4477 6 16 6H18V8L18.0067 8.11662C18.0645 8.61396 18.4872 9 19 9C19.5523 9 20 8.55228 20 8V6H22L22.1166 5.99327C22.614 5.93551 23 5.51284 23 5C23 4.44772 22.5523 4 22 4H20V2L19.9933 1.88338ZM16.2364 14.7888C18.5632 15.6891 20.5587 17.3215 21.8574 19.4854C22.1416 19.9589 21.9882 20.5732 21.5146 20.8574C21.0411 21.1416 20.4268 20.9882 20.1426 20.5146C18.4678 17.7243 15.3642 16 12.0001 16C8.63585 16 5.53218 17.7242 3.85741 20.5145C3.57318 20.988 2.9589 21.1415 2.48537 20.8572C2.01183 20.573 1.85836 19.9587 2.14259 19.4852C3.48729 17.2448 5.57886 15.5742 8.01177 14.696C5.6103 13.0269 4.42813 10.0183 5.2699 7.1052C6.31412 3.49147 10.0969 1.33006 13.8407 2.18722C14.3791 2.31048 14.7156 2.84683 14.5923 3.38518C14.4691 3.92353 13.9327 4.26004 13.3944 4.13678C10.6736 3.51386 7.93776 5.07709 7.19129 7.66041C6.44835 10.2315 7.93554 12.9196 10.5819 13.7517C13.2414 14.5879 16.1031 13.2448 17.0659 10.7262C17.2632 10.2104 17.8412 9.95204 18.3571 10.1493C18.873 10.3465 19.1313 10.9245 18.9341 11.4404C18.3934 12.8546 17.4314 13.9998 16.2364 14.7888Z" fill="#0A1629"/>
</svg>
