<svg width="24" height="24" viewBox="0 0 24 24" fill="none" xmlns="http://www.w3.org/2000/svg">
<path fill-rule="evenodd" clip-rule="evenodd" d="M7 3C7 2.44772 7.44772 2 8 2C8.55228 2 9 2.44772 9 3V4H15V3C15 2.44772 15.4477 2 16 2C16.5523 2 17 2.44772 17 3V4C19.2091 4 21 5.79086 21 8V18C21 20.2091 19.2091 22 17 22H7C4.79086 22 3 20.2091 3 18V8C3 5.79086 4.79086 4 7 4V3ZM15 6C15 6.55228 15.4477 7 16 7C16.5523 7 17 6.55228 17 6L17.1493 6.00549C18.1841 6.08183 19 6.94564 19 8V9H5V8L5.00549 7.85074C5.08183 6.81588 5.94564 6 7 6C7 6.55228 7.44772 7 8 7C8.55228 7 9 6.55228 9 6H15ZM19 11H5V18C5 19.0544 5.81588 19.9182 6.85074 19.9945L7 20H17C18.0544 20 18.9182 19.1841 18.9945 18.1493L19 18V11Z" fill="#0A1629"/>
</svg>
