<svg width="24" height="24" viewBox="0 0 24 24" fill="none" xmlns="http://www.w3.org/2000/svg">
<path fill-rule="evenodd" clip-rule="evenodd" d="M1 12C1 5.92487 5.92487 1 12 1C18.0751 1 23 5.92487 23 12C23 18.0751 18.0751 23 12 23C5.92487 23 1 18.0751 1 12ZM21 12C21 7.02944 16.9706 3 12 3C7.02944 3 3 7.02944 3 12C3 16.9706 7.02944 21 12 21C16.9706 21 21 16.9706 21 12ZM12 11C12.5128 11 12.9355 11.386 12.9933 11.8834L13 12V16C13 16.5523 12.5523 17 12 17C11.4872 17 11.0645 16.614 11.0067 16.1166L11 16V12C11 11.4477 11.4477 11 12 11ZM13.01 8C13.01 7.44772 12.5623 7 12.01 7L11.8834 7.00673C11.386 7.06449 11 7.48716 11 8C11 8.55228 11.4477 9 12 9L12.1266 8.99327C12.624 8.93551 13.01 8.51284 13.01 8Z" fill="#0A1629"/>
</svg>
