<svg width="24" height="24" viewBox="0 0 24 24" fill="none" xmlns="http://www.w3.org/2000/svg">
<path fill-rule="evenodd" clip-rule="evenodd" d="M16.9457 7.29996C15.8641 4.46619 13.2946 2.41712 10.2322 2.00879C6.79574 1.66461 3.50259 3.47261 1.91225 6.5397C0.540525 9.39636 0.77948 13.7658 2.46239 16.3463C2.76409 16.8089 3.38367 16.9393 3.84627 16.6376C4.30887 16.3359 4.43931 15.7164 4.13761 15.2538C2.84099 13.2656 2.64265 9.63874 3.70153 7.43275C4.9031 5.11646 7.41635 3.73664 10.0005 3.99506C12.5853 4.34024 14.7273 6.26069 15.3262 8.82725C15.4318 9.27984 15.8353 9.60002 16.3 9.60002H17.5L17.681 9.60556C19.1257 9.69388 20.4747 10.8291 20.9422 12.3874C21.1543 13.3925 20.9531 14.4387 20.3362 15.4961C20.0579 15.9732 20.2191 16.5855 20.6961 16.8638C21.1732 17.1421 21.7855 16.9809 22.0638 16.5039C22.9215 15.0335 23.2194 13.4845 22.8778 11.8905L22.8005 11.6491C21.9836 9.2596 19.85 7.60002 17.5 7.60002L17.052 7.59902L16.9457 7.29996ZM12.9933 12.8834C12.9355 12.3861 12.5128 12 12 12C11.4477 12 11 12.4477 11 13V19.585L8.70711 17.2929L8.6129 17.2097C8.22061 16.9047 7.65338 16.9324 7.2929 17.2929C6.90237 17.6834 6.90237 18.3166 7.2929 18.7071L11.2929 22.7071L11.3871 22.7903C11.7794 23.0953 12.3466 23.0676 12.7071 22.7071L16.7071 18.7071L16.7903 18.6129C17.0953 18.2206 17.0676 17.6534 16.7071 17.2929L16.6129 17.2097C16.2206 16.9047 15.6534 16.9324 15.2929 17.2929L13 19.585V13L12.9933 12.8834Z" fill="#0A1629"/>
</svg>
