<svg width="24" height="24" viewBox="0 0 24 24" fill="none" xmlns="http://www.w3.org/2000/svg">
<path fill-rule="evenodd" clip-rule="evenodd" d="M7 2H17C19.7614 2 22 4.23858 22 7V17C22 19.7614 19.7614 22 17 22H7C4.23858 22 2 19.7614 2 17V7C2 4.23858 4.23858 2 7 2ZM17 4H7C5.34315 4 4 5.34315 4 7V17C4 17.5084 4.12647 17.9873 4.34968 18.4069L13.2313 11.0055C14.7786 9.71613 17.0318 9.78384 18.498 11.1326L18.6521 11.282L20 12.6605V7C20 5.34315 18.6569 4 17 4ZM20 15.4168C19.9219 15.3828 19.8473 15.3383 19.7783 15.2834L19.685 15.1991L17.222 12.6802C16.5334 11.9759 15.4427 11.8831 14.6486 12.4374L14.5117 12.542L5.8407 19.7678C6.19736 19.9174 6.58903 20 7 20H17C18.6569 20 20 18.6569 20 17V15.4168ZM6 8.5C6 7.11929 7.11929 6 8.5 6C9.88071 6 11 7.11929 11 8.5C11 9.88071 9.88071 11 8.5 11C7.11929 11 6 9.88071 6 8.5ZM9 8.5C9 8.22386 8.77614 8 8.5 8C8.22386 8 8 8.22386 8 8.5C8 8.77614 8.22386 9 8.5 9C8.77614 9 9 8.77614 9 8.5Z" fill="#0A1629"/>
</svg>
