<svg width="24" height="24" viewBox="0 0 24 24" fill="none" xmlns="http://www.w3.org/2000/svg">
<path fill-rule="evenodd" clip-rule="evenodd" d="M20.6481 6.12587C19.1999 4.32919 16.8795 3.58302 14.714 4.22933C14.1848 4.38728 13.8838 4.94434 14.0418 5.47355C14.1997 6.00277 14.7568 6.30374 15.286 6.14579C16.6656 5.73402 18.1475 6.21054 19.0909 7.38098C20.0521 8.57349 20.2725 10.2626 19.6494 11.6943C19.0348 13.1066 17.7177 13.9998 16.2804 14C16.2571 14 16.2339 14.0008 16.211 14.0024C16.1405 14.0007 16.0699 13.9999 15.9992 14C15.4469 14.0004 14.9996 14.4485 15 15.0008C15.0004 15.5531 15.4485 16.0004 16.0008 16C18.4385 15.9981 20.7362 17.311 22.157 19.5379C22.454 20.0035 23.0723 20.1401 23.5379 19.843C24.0035 19.546 24.1401 18.9277 23.843 18.4621C22.795 16.8195 21.3503 15.5643 19.7 14.8098C20.4568 14.2178 21.0762 13.4278 21.4833 12.4924C22.4022 10.381 22.0785 7.90048 20.6481 6.12587ZM8 4C4.68629 4 2 6.68629 2 10C2 11.9503 2.9305 13.6832 4.37176 14.7791C2.69221 15.5299 1.22117 16.7967 0.157345 18.4615C-0.140033 18.9269 -0.00383508 19.5453 0.461552 19.8427C0.926938 20.14 1.54528 20.0038 1.84266 19.5384C3.26476 17.3129 5.56213 16.0001 7.99991 16C10.4377 15.9999 12.7351 17.3125 14.1574 19.5379C14.4548 20.0033 15.0732 20.1394 15.5385 19.842C16.0039 19.5446 16.14 18.9263 15.8426 18.4609C14.7788 16.7963 13.3078 15.5297 11.6284 14.779C13.0696 13.6831 14 11.9502 14 10C14 6.68629 11.3137 4 8 4ZM4 10C4 12.2091 5.79079 13.9999 7.99987 14H8C10.2091 14 12 12.2091 12 10C12 7.79086 10.2091 6 8 6C5.79086 6 4 7.79086 4 10Z" fill="#0A1629"/>
</svg>
