<svg width="24" height="24" viewBox="0 0 24 24" fill="none" xmlns="http://www.w3.org/2000/svg">
<path fill-rule="evenodd" clip-rule="evenodd" d="M14 5C14 2.79086 15.7909 1 18 1C20.2091 1 22 2.79086 22 5C22 7.20914 20.2091 9 18 9C16.8885 9 15.883 8.54668 15.1581 7.81485L9.85034 10.9123C9.94784 11.2581 10 11.623 10 12C10 12.3768 9.9479 12.7415 9.8505 13.0871L15.1613 16.1819C15.886 15.452 16.8902 15 18 15C20.2091 15 22 16.7909 22 19C22 21.2091 20.2091 23 18 23C15.7909 23 14 21.2091 14 19C14 18.6214 14.0526 18.255 14.1509 17.9079L8.84234 14.8144C8.11741 15.5465 7.11167 16 6 16C3.79086 16 2 14.2091 2 12C2 9.79086 3.79086 8 6 8C7.11146 8 8.11704 8.45332 8.84194 9.18515L14.1497 6.08768C14.0522 5.74185 14 5.37702 14 5ZM16.3003 6.05458C16.2919 6.03823 16.2831 6.02203 16.2737 6.00597C16.2642 5.9898 16.2544 5.97399 16.2442 5.95855C16.0885 5.67393 16 5.3473 16 5C16 3.89543 16.8954 3 18 3C19.1046 3 20 3.89543 20 5C20 6.10457 19.1046 7 18 7C17.2825 7 16.6532 6.62215 16.3003 6.05458ZM7.6997 10.9454C7.3468 10.3779 6.71753 10 6 10C4.89543 10 4 10.8954 4 12C4 13.1046 4.89543 14 6 14C6.71753 14 7.3468 13.6221 7.6997 13.0546C7.70798 13.0384 7.71674 13.0224 7.72599 13.0065C7.73553 12.9902 7.74546 12.9742 7.75576 12.9586C7.91148 12.6739 8 12.3473 8 12C8 11.6527 7.91147 11.3261 7.75576 11.0414C7.74557 11.026 7.73575 11.0102 7.72631 10.994C7.71695 10.978 7.70808 10.9618 7.6997 10.9454ZM16.284 17.9935C16.2629 18.0296 16.24 18.064 16.2153 18.0964C16.0776 18.3678 16 18.6749 16 19C16 20.1046 16.8954 21 18 21C19.1046 21 20 20.1046 20 19C20 17.8954 19.1046 17 18 17C17.3072 17 16.6966 17.3523 16.3377 17.8875C16.3221 17.9234 16.3042 17.9588 16.284 17.9935Z" fill="#0A1629"/>
</svg>
