<svg width="24" height="24" viewBox="0 0 24 24" fill="none" xmlns="http://www.w3.org/2000/svg">
<path fill-rule="evenodd" clip-rule="evenodd" d="M21.1282 2.75736C18.8138 0.442958 15.0715 0.410439 12.7173 2.68427L10.9869 4.4044L10.9035 4.49836C10.5973 4.88976 10.6234 5.45707 10.9828 5.8186C11.3722 6.21026 12.0054 6.21211 12.397 5.82273L14.117 4.11273L14.2816 3.96241C15.8471 2.61026 18.2242 2.68184 19.714 4.17157C21.2569 5.71451 21.2786 8.20933 19.7627 9.77885L16.7749 12.7665L16.6066 12.9253C15.8026 13.6417 14.7405 14.0058 13.6601 13.9284C12.5025 13.8455 11.4379 13.2639 10.7428 12.3346C10.4119 11.8923 9.78526 11.802 9.34301 12.1328C8.90076 12.4636 8.81042 13.0903 9.14122 13.5325C10.184 14.9266 11.7808 15.799 13.5172 15.9233C15.2536 16.0477 16.9585 15.4117 18.1892 14.1805L21.1891 11.1807L21.3648 10.991C23.4718 8.61803 23.3817 5.01086 21.1282 2.75736ZM14.7428 10.3346C13.7 8.94055 12.1032 8.06814 10.3668 7.94378L10.0929 7.93044C8.4522 7.88801 6.86074 8.52017 5.69475 9.68658L2.69488 12.6865L2.51922 12.8761C0.412158 15.2491 0.502291 18.8563 2.75579 21.1098C5.07019 23.4242 8.81243 23.4567 11.1667 21.1828L12.8891 19.4607L12.9723 19.3665C13.2773 18.9742 13.2496 18.4069 12.8891 18.0465C12.4986 17.6559 11.8654 17.6559 11.4749 18.0465L9.76488 19.7565L9.60053 19.9066C8.03683 21.2569 5.65973 21.1853 4.17 19.6955C2.62707 18.1526 2.60539 15.6578 4.12128 14.0883L7.10909 11.1007L7.27735 10.9418C8.08136 10.2255 9.14346 9.86129 10.2239 9.93867C11.3815 10.0216 12.4461 10.6032 13.1412 11.5325C13.472 11.9748 14.0987 12.0651 14.541 11.7343C14.9832 11.4035 15.0736 10.7768 14.7428 10.3346Z" fill="#0A1629"/>
</svg>
