<svg width="24" height="24" viewBox="0 0 24 24" fill="none" xmlns="http://www.w3.org/2000/svg">
<path fill-rule="evenodd" clip-rule="evenodd" d="M15.0868 2C16.2604 2 17.2118 2.95138 17.2118 4.12497C17.2118 4.50324 17.1108 4.87465 16.9193 5.20085L15.9809 6.7991C15.4044 7.78094 15.4335 9.00449 16.0558 9.95789L17.52 12.2009C18.2616 13.3369 17.9418 14.859 16.8058 15.6005C16.4065 15.8612 15.9399 16 15.463 16H13V20.6C13 21.1523 12.5523 21.6 12 21.6C11.4872 21.6 11.0645 21.214 11.0067 20.7166L11 20.6V16H8.55291C7.20018 16 6.10358 14.9034 6.10358 13.5507C6.10358 13.0707 6.24458 12.6013 6.50908 12.2009L8.0291 9.89929C8.63814 8.97711 8.69085 7.79476 8.16629 6.82205L7.29202 5.20085C6.72302 4.14572 7.1171 2.8291 8.17223 2.2601C8.4888 2.08938 8.84283 2 9.2025 2H15.0868ZM12 14H15.463C15.5516 14 15.6383 13.9742 15.7125 13.9258C15.8972 13.8052 15.9658 13.5736 15.8877 13.3762L15.8452 13.2941L14.3811 11.0511C13.3889 9.53122 13.3015 7.59936 14.1366 6.00214L14.2562 5.78648L15.1945 4.18824C15.2058 4.16905 15.2118 4.14721 15.2118 4.12497C15.2118 4.06975 15.1759 4.0229 15.1263 4.00637L15.0868 4H9.2025C9.17424 4 9.14642 4.00702 9.12154 4.02044C9.0552 4.05621 9.02212 4.12959 9.03443 4.19996L9.05237 4.25154L9.92663 5.87274C10.7612 7.42024 10.7191 9.28608 9.83066 10.7893L9.69799 11.0015L8.17797 13.303C8.12944 13.3765 8.10358 13.4626 8.10358 13.5507C8.10358 13.7713 8.26253 13.9547 8.47215 13.9928L8.55291 14H12Z" fill="#0A1629"/>
</svg>
