<svg width="48" height="48" viewBox="0 0 48 48" fill="none" xmlns="http://www.w3.org/2000/svg">
<rect width="48" height="48" rx="10" fill="#E9EBF1"/>
<mask id="mask0_0_173" style="mask-type:luminance" maskUnits="userSpaceOnUse" x="0" y="0" width="48" height="48">
<rect width="48" height="48" rx="10" fill="white"/>
</mask>
<g mask="url(#mask0_0_173)">
<mask id="mask1_0_173" style="mask-type:luminance" maskUnits="userSpaceOnUse" x="-113" y="-144" width="351" height="199">
<path fill-rule="evenodd" clip-rule="evenodd" d="M-113 -144H238V55H-113V-144Z" fill="white"/>
</mask>
<g mask="url(#mask1_0_173)">
<path fill-rule="evenodd" clip-rule="evenodd" d="M240 59.0612V74H-112V-162H-77.5603C-74.2421 -160.749 -71.0037 -159.277 -67.878 -157.601C-47.2602 -146.547 -31.6079 -126.68 -25.1264 -104.104C-19.4756 -84.4221 -20.5926 -63.5172 -18.598 -43.1268C-16.6033 -22.7411 -10.5161 -1.17543 5.46005 11.5308C18.3479 21.7779 35.6851 24.5627 52.1071 23.968C68.5244 23.3686 84.7023 19.7672 101.101 18.7807C126.417 17.2514 152.084 22.0753 175.138 32.6953C194.094 41.4273 211.661 54.1194 232.148 58.0228C234.748 58.5184 237.372 58.863 240 59.0612Z" fill="#FFFFFE"/>
<path fill-rule="evenodd" clip-rule="evenodd" d="M240 -162V10C239.578 9.87767 239.16 9.74593 238.747 9.60477C227.411 5.79362 217.9 -3.21666 213.583 -14.396C208.319 -28.022 210.604 -43.9159 204.143 -57.0149C197.354 -70.7914 182.189 -78.5313 167.193 -81.7261C152.202 -84.9209 136.667 -84.5115 121.544 -86.9958C95.7709 -91.2257 71.4801 -104.104 53.4861 -123.084C45.1765 -131.845 38.0586 -142.144 35.1918 -153.888C34.5443 -156.533 34.1455 -159.262 34 -162H240Z" fill="#FFFFFE"/>
</g>
<mask id="mask2_0_173" style="mask-type:luminance" maskUnits="userSpaceOnUse" x="-101" y="-144" width="270" height="147">
<path fill-rule="evenodd" clip-rule="evenodd" d="M-101 -144H169V3H-101V-144Z" fill="white"/>
</mask>
<g mask="url(#mask2_0_173)">
</g>
<mask id="mask3_0_173" style="mask-type:luminance" maskUnits="userSpaceOnUse" x="-30" y="-118" width="151" height="173">
<path fill-rule="evenodd" clip-rule="evenodd" d="M-30 -118H121V55H-30V-118Z" fill="white"/>
</mask>
<g mask="url(#mask3_0_173)">
<path fill-rule="evenodd" clip-rule="evenodd" d="M39.0073 41.3892C31.4524 28.7322 18.0267 22.7122 6.50461 22.0403C-6.82211 21.2643 -16.5227 31.8253 -23.1984 43.0124C-26.9405 49.2854 -29.9821 56.7322 -30 65.1311C-30.007 68.6905 -29.2147 72.6398 -27.4424 75.9588C-25.574 79.4577 -22.6806 82.0945 -19.7313 84.1952C-12.5831 89.2859 -4.1501 91.5112 3.53003 92.5838C11.4264 93.6859 18.9034 92.6438 25.5211 88.9218C32.6176 84.9285 37.8068 77.9634 40.7106 69.3442C43.589 60.8019 44.4854 50.5679 39.0073 41.3892Z" fill="#FDC748"/>
</g>
<path fill-rule="evenodd" clip-rule="evenodd" d="M6.96343 29.4499C6.96173 29.4432 6.96003 29.4354 6.95748 29.4257C6.94049 29.3666 6.92264 29.3085 6.8963 29.2581C6.88355 29.2319 6.86231 29.2135 6.84786 29.1922C6.82407 29.1621 6.80538 29.1302 6.77393 29.105C6.72465 29.0643 6.66177 29.0332 6.58869 29.0226C6.5394 29.0168 6.49351 29.009 6.44677 29.0022C6.1893 28.9635 6.04824 29.4373 6.02784 29.7029C6.02104 29.8037 6.0117 29.9054 6.0049 30.0033C5.94796 30.7088 6.39834 31.3832 6.79008 30.7436C6.82237 30.6923 6.85296 30.6099 6.88185 30.5198C6.8861 30.5275 6.8861 30.5363 6.8878 30.543C6.91839 30.4442 6.94984 30.2998 6.97278 30.136C7.00847 29.9054 7.01272 29.6583 6.96343 29.4499Z" fill="#FFF9E0"/>
<path fill-rule="evenodd" clip-rule="evenodd" d="M7.64014 34.1099C7.33544 33.7145 7.06011 34.498 7.0748 34.6951C7.08581 34.8517 7.03001 34.9983 7.00872 35.1456C6.98375 35.3307 7.00431 35.6644 7.17832 35.8223C7.19814 35.8389 7.22017 35.8601 7.24073 35.8787C7.73192 36.3239 7.9933 35.4249 7.9999 35.0932C8.00431 34.7674 7.856 34.3886 7.64014 34.1099Z" fill="#FFF9E0"/>
<path fill-rule="evenodd" clip-rule="evenodd" d="M3.761 37.1923C3.33115 36.4969 2.98254 37.8829 3.00068 38.2591C3.01251 38.5542 3.12293 38.9921 3.38163 38.9999C3.53069 39.0047 3.63796 38.887 3.72156 38.7307C3.93609 38.6343 4.04809 38.2321 3.98026 37.8964C3.93294 37.6669 3.90218 37.4219 3.761 37.1923Z" fill="#FFF9E0"/>
<path fill-rule="evenodd" clip-rule="evenodd" d="M5.25436 41.2616C5.26511 41.244 5.27586 41.2272 5.28733 41.2123C4.99993 41.4792 4.88023 42.302 5.15474 42.7777C5.16979 42.8112 5.18914 42.8376 5.21494 42.8597C5.65644 43.331 5.95531 42.5046 5.99473 42.0095C6.05278 41.2942 5.61989 40.6105 5.25436 41.2616Z" fill="#FFF9E0"/>
<path fill-rule="evenodd" clip-rule="evenodd" d="M19.899 34.0406C18.7702 34.2982 18.564 36.3094 20.0985 35.9592C21.2306 35.7039 21.4369 33.6915 19.899 34.0406Z" fill="#FFF9E0"/>
<path fill-rule="evenodd" clip-rule="evenodd" d="M20.1594 39.0002C19.5908 38.9907 19.2024 39.3934 19.0812 39.7094C19.0771 39.7164 19.074 39.7229 19.0729 39.73C18.9435 40.0678 18.8834 40.9857 19.8155 40.9998C20.6482 41.0134 21.0636 40.247 20.9921 39.7689C20.989 39.7612 20.988 39.753 20.988 39.7477C20.9434 39.45 20.7321 39.009 20.1594 39.0002Z" fill="#FFF9E0"/>
<path fill-rule="evenodd" clip-rule="evenodd" d="M19.5836 37.2685C19.0075 36.6414 18.3465 37.2618 18.153 37.6203C18.1328 37.6541 18.1127 37.6893 18.0959 37.7251C17.9449 38.0032 17.9393 38.5146 18.3219 38.7852C18.6843 39.0375 18.8867 38.9956 19.3028 38.9996C19.9795 39.0037 20.1809 38.2575 19.8308 37.8659C19.7827 37.6616 19.7547 37.46 19.5836 37.2685Z" fill="#FFF9E0"/>
<path fill-rule="evenodd" clip-rule="evenodd" d="M18.2221 31.0095C18.0853 31.0708 18.0595 31.5454 18.2474 31.4629C18.3824 31.4016 18.4096 30.9275 18.2221 31.0095Z" fill="#FFF9E0"/>
<path fill-rule="evenodd" clip-rule="evenodd" d="M13.2831 25.0734C12.9283 24.5339 12.9114 27.1556 13.2076 26.8165C13.2119 26.8295 13.2123 26.8331 13.2194 26.8544C13.3848 27.4082 13.5146 26.2272 13.4814 25.8963C13.4429 25.5122 13.4096 25.2643 13.2831 25.0734Z" fill="#FFF9E0"/>
<path fill-rule="evenodd" clip-rule="evenodd" d="M44.9983 31.5271C45.0786 35.3757 42.3275 39.4597 37.99 41.932C33.2962 44.6069 28.07 44.6919 24.0104 42.1578C20.9472 40.2459 19.0752 37.0111 19.0022 33.5039C18.9443 30.7381 20.0169 28.1195 22.0225 26.1303C26.4248 21.7666 33.913 20.7126 39.4413 23.6795C43.9489 26.0974 44.9513 29.2814 44.9983 31.5266V31.5271Z" fill="#C418E6"/>
<path fill-rule="evenodd" clip-rule="evenodd" d="M17.0027 33.8013C17.0929 38.0545 19.392 41.973 23.1517 44.2832C28.0356 47.2831 34.2821 47.2049 39.8611 44.0748C45.0395 41.1701 48.3219 36.2864 48.2234 31.6354C48.1751 29.3426 47.2228 25.037 41.3916 21.9579C34.8382 18.4965 25.9557 19.7298 20.7314 24.8272C18.2555 27.2447 16.9313 30.4317 17.0027 33.8013ZM20.1541 33.7362C20.1038 31.3527 20.9999 28.9395 22.9482 27.0368C27.242 22.8478 34.6116 21.903 39.9039 24.6975C43.5099 26.6016 45.0174 29.1255 45.072 31.6995C45.2292 39.0954 33.3899 46.9101 24.8192 41.6456C21.8502 39.8216 20.2191 36.8027 20.1541 33.7362Z" fill="#FFFFFE"/>
<path fill-rule="evenodd" clip-rule="evenodd" d="M26.1781 35.6816C26.5623 36.1458 27.1734 36.0533 27.5788 35.718C27.8994 35.4507 28.2043 34.7807 27.8216 34.3189C27.4374 33.8548 26.8275 33.946 26.4217 34.2813C26.1007 34.5486 25.7958 35.2186 26.1781 35.6816Z" fill="#FFF9E0"/>
<path fill-rule="evenodd" clip-rule="evenodd" d="M26.1776 30.6814C26.5614 31.1447 27.1731 31.0548 27.5778 30.7173C27.8989 30.4518 28.2048 29.7825 27.8214 29.3183C27.4376 28.8542 26.826 28.9465 26.4218 29.2824C26.1012 29.5496 25.7959 30.2189 26.1776 30.6814Z" fill="#FFF9E0"/>
<path fill-rule="evenodd" clip-rule="evenodd" d="M26.0216 29.9925C26.0436 30.0808 26.0651 30.1699 26.0849 30.26C26.3059 31.1883 27.147 31.1175 27.616 30.7294C28.2157 30.2381 28.0702 29.3928 27.4755 29.1358C27.3901 29.0982 27.3046 29.0615 27.2192 29.0256C26.948 28.9085 25.832 29.1865 26.0216 29.9925Z" fill="#FFF9E0"/>
<path fill-rule="evenodd" clip-rule="evenodd" d="M29.0525 32.319C29.0406 32.3483 29.0296 32.3737 29.0177 32.4007C28.959 32.5303 29.0565 32.6213 29.162 32.7062C29.2217 32.754 29.2805 32.7987 29.3382 32.845C29.9294 33.314 31.7061 32.6105 30.6949 32.1678C30.4142 32.0436 30.1902 31.995 29.8647 32.0004C29.5751 32.0058 29.166 32.0737 29.0525 32.319Z" fill="#FFF9E0"/>
<mask id="mask4_0_173" style="mask-type:luminance" maskUnits="userSpaceOnUse" x="36" y="29" width="56" height="26">
<path fill-rule="evenodd" clip-rule="evenodd" d="M36 29H92V55H36V29Z" fill="white"/>
</mask>
<g mask="url(#mask4_0_173)">
<path fill-rule="evenodd" clip-rule="evenodd" d="M36.1783 29.8415C36.5621 30.0725 37.1737 30.0271 37.5777 29.8583C37.8996 29.7257 38.2048 29.3906 37.8209 29.159C37.4375 28.9277 36.8263 28.973 36.4215 29.1405C36.1008 29.2745 35.7956 29.6092 36.1783 29.8415Z" fill="#FFF9E0"/>
</g>
</g>
</svg>
