<svg width="48" height="48" viewBox="0 0 48 48" fill="none" xmlns="http://www.w3.org/2000/svg">
<rect width="48" height="48" rx="10" fill="#E9EBF1"/>
<mask id="mask0_0_573" style="mask-type:luminance" maskUnits="userSpaceOnUse" x="0" y="0" width="48" height="48">
<rect width="48" height="48" rx="10" fill="white"/>
</mask>
<g mask="url(#mask0_0_573)">
<mask id="mask1_0_573" style="mask-type:luminance" maskUnits="userSpaceOnUse" x="-134" y="-12" width="186" height="105">
<path fill-rule="evenodd" clip-rule="evenodd" d="M-134 -12H52V93H-134V-12Z" fill="white"/>
</mask>
<g mask="url(#mask1_0_573)">
<path fill-rule="evenodd" clip-rule="evenodd" d="M52 95.1508V103H-134V-21H-115.802C-114.048 -20.3428 -112.337 -19.569 -110.686 -18.6886C-99.7909 -12.8805 -91.5201 -2.44216 -88.0952 9.41968C-85.1093 19.7613 -85.6995 30.7452 -84.6455 41.4588C-83.5915 52.1699 -80.375 63.501 -71.933 70.1772C-65.123 75.5613 -55.9618 77.0245 -47.2843 76.712C-38.6093 76.397 -30.0607 74.5048 -21.3956 73.9865C-8.01848 73.183 5.54463 75.7175 17.7264 81.2975C27.7431 85.8855 37.0255 92.5542 47.851 94.6052C49.2249 94.8656 50.6112 95.0466 52 95.1508Z" fill="#FFFFFE"/>
<path fill-rule="evenodd" clip-rule="evenodd" d="M52 -21V70C51.7766 69.9353 51.5556 69.8656 51.3371 69.7909C45.3389 67.7745 40.3065 63.0075 38.0222 57.0928C35.2369 49.8837 36.446 41.4748 33.0273 34.5445C29.4348 27.2557 21.4108 23.1607 13.4761 21.4705C5.54391 19.7802 -2.67627 19.9968 -10.678 18.6824C-24.3154 16.4445 -37.1683 9.63122 -46.6894 -0.41074C-51.0862 -5.04588 -54.8525 -10.495 -56.3694 -16.7084C-56.712 -18.1074 -56.923 -19.5512 -57 -21H52Z" fill="#FFFFFE"/>
</g>
<path fill-rule="evenodd" clip-rule="evenodd" d="M-23.227 -19.3961C-25.6556 -15.4511 -27.0682 -11.246 -25.0023 -6.81421C-17.3358 9.53568 4.98664 12.565 14.0003 -4.2041C16.2881 -8.45942 16.8968 -13.3243 14.315 -17.5472C11.7377 -21.758 7.39946 -25.6807 3.46394 -28.6251C-0.444128 -31.551 -4.96507 -32.8624 -9.72632 -31.3961C-15.5272 -29.6081 -20.1776 -24.353 -23.227 -19.3961Z" fill="#6D5DD3"/>
<path fill-rule="evenodd" clip-rule="evenodd" d="M-1.02687 35.4093C0.992745 37.6711 3.91321 38.3039 6.1759 37.8739C11.9257 36.7787 13.123 28.3239 6.53197 24.9343C3.5964 23.4253 -0.0515361 23.6451 -1.86506 26.3232C-3.53692 28.792 -3.44608 32.6991 -1.02687 35.4093Z" fill="#0A1629"/>
<path fill-rule="evenodd" clip-rule="evenodd" d="M4.56299 27.0177C4.47129 27.0491 4.38134 27.0816 4.29777 27.123C4.08826 27.2224 3.74817 27.9917 4.29777 27.9999C4.38946 28.0007 4.47709 27.9951 4.56473 27.985C4.85432 27.9506 5.00115 27.6205 4.99999 27.4054C4.99999 27.2395 4.83807 26.9217 4.56299 27.0177Z" fill="#FFF9E0"/>
<path fill-rule="evenodd" clip-rule="evenodd" d="M4.67058 27C4.3825 27.0021 4.28647 27.1192 4.12235 27.2706C4.02545 27.3586 3.9303 27.5303 4.07172 27.6573C4.13283 27.714 4.20441 27.8212 4.29782 27.8972C4.78755 28.2812 5.08611 27.4835 4.97786 27.2373L4.94381 27.1629C4.90977 27.0843 4.77708 27 4.67058 27Z" fill="#FFF9E0"/>
<path fill-rule="evenodd" clip-rule="evenodd" d="M4.85451 29.1451C4.83279 29.1247 4.81107 29.1024 4.78855 29.0801C4.72902 29.0333 4.65823 29.0064 4.57538 29.0001C4.51344 29.0001 4.4531 28.9996 4.39358 29.001C4.20132 29.0005 4.11605 29.1288 4.07422 29.2411C4.00665 29.4244 3.96643 29.5553 4.03722 29.7541C4.25522 30.3812 5.3991 29.6727 4.85451 29.1451Z" fill="#FFF9E0"/>
<path fill-rule="evenodd" clip-rule="evenodd" d="M4.87187 27.3139C4.81793 27.0946 4.63885 26.9039 4.34039 27.053C4.06134 27.1925 3.79452 27.7244 4.23035 27.9551C4.42094 28.0561 4.63238 27.9641 4.77262 27.9002C4.92509 27.8305 5.14157 27.4417 4.87187 27.3139Z" fill="#FFF9E0"/>
<path fill-rule="evenodd" clip-rule="evenodd" d="M-0.330919 34.0002C-0.354395 33.9999 -0.378431 33.9999 -0.401907 34.0006C-0.792624 34.0046 -0.998882 34.3293 -1 34.6006C-0.997764 34.8749 -0.729461 35.0961 -0.401907 34.9574C-0.378431 34.9469 -0.354395 34.9378 -0.330919 34.9273C-0.0916815 34.8248 0.275559 33.9935 -0.330919 34.0002Z" fill="#FFF9E0"/>
<path fill-rule="evenodd" clip-rule="evenodd" d="M-0.523292 35.0231C-0.585986 35.0124 -0.647933 35.005 -0.732271 35.0003C-0.865121 34.9938 -0.944235 35.1003 -0.962893 35.1801C-0.965132 35.1822 -1.02111 35.6647 -0.991255 35.4703C-1.0629 35.9377 -0.497916 36.2119 -0.152356 35.7945C-0.0523446 35.6742 -0.0165198 35.5552 -0.00159276 35.406C0.0230368 35.1762 -0.241918 34.9615 -0.523292 35.0231Z" fill="#FFF9E0"/>
<path fill-rule="evenodd" clip-rule="evenodd" d="M1.4985 34.0135C0.938366 34.1171 0.736532 35.1274 1.49943 34.9866C2.06234 34.883 2.26417 33.8722 1.4985 34.0135Z" fill="#FFF9E0"/>
<path fill-rule="evenodd" clip-rule="evenodd" d="M-0.47468 32.0068C-0.511965 32.0108 -0.550159 32.0194 -0.582897 32.0291C-0.81661 32.093 -1.21128 32.641 -0.86117 32.8385C-0.684749 33.052 -0.418297 33.0389 -0.246423 32.8865C-0.0499948 32.7095 0.0536755 32.5451 -0.0281695 32.2831C-0.085461 32.1033 -0.240057 31.9675 -0.47468 32.0068Z" fill="#FFF9E0"/>
<path fill-rule="evenodd" clip-rule="evenodd" d="M5.60781 35.0159C5.54457 35.0332 5.48332 35.0506 5.42274 35.0679C5.14979 35.1449 4.99934 35.3836 5 35.621C5.00067 35.8136 5.14513 36.0417 5.4234 35.9935C5.48598 35.9825 5.5479 35.9715 5.60981 35.9609C6.10311 35.8733 6.15704 34.8622 5.60781 35.0159Z" fill="#FFF9E0"/>
<path fill-rule="evenodd" clip-rule="evenodd" d="M7.50669 34.0105C6.99286 34.1187 6.79441 34.6898 7.2708 34.9672C7.46618 35.0815 7.63181 34.8722 7.6913 34.7224C7.67232 34.8035 7.65335 34.8843 7.63335 34.9657C7.7236 34.9217 7.79539 34.865 7.85231 34.7962C7.9441 34.6859 8 34.552 8 34.41C7.99949 34.2158 7.82719 33.943 7.50669 34.0105Z" fill="#FFF9E0"/>
<path fill-rule="evenodd" clip-rule="evenodd" d="M5.91133 33.2793C5.79577 33.1968 5.79985 33.0717 5.62992 33.0207C5.28325 32.9174 5.05146 33.2218 5.00999 33.4647C5.00795 33.4688 5.00795 33.4744 5.00659 33.4786C4.98484 33.6125 5.00863 33.8799 5.20508 33.9633C5.20236 33.9656 5.19828 33.9684 5.1976 33.9721C5.21256 33.9758 5.22343 33.973 5.23771 33.9753C5.26014 33.9809 5.27305 33.9957 5.29752 33.9971C5.30772 33.9985 5.3186 33.999 5.32947 33.9999C5.34714 34.0013 5.3587 33.9892 5.37569 33.9888C5.38181 33.9874 5.38317 33.9851 5.38861 33.9855C5.49737 33.9735 5.5803 33.9281 5.64487 33.8558C5.67206 33.8419 5.69789 33.8266 5.73256 33.8159C5.89977 33.7737 6.12817 33.4336 5.91133 33.2793Z" fill="#FFF9E0"/>
<path fill-rule="evenodd" clip-rule="evenodd" d="M7.03563 35.7902C7.051 35.8467 7.06364 35.8905 7.08297 35.9355C7.17419 36.1538 7.25499 35.7649 7.24805 35.5571C7.24433 35.4441 7.23913 35.3399 7.22971 35.2269C7.18063 34.6478 6.90278 35.3032 7.03563 35.7902Z" fill="#FFF9E0"/>
<path fill-rule="evenodd" clip-rule="evenodd" d="M1.49735 29.0135C0.936745 29.1174 0.737455 30.1276 1.5014 29.9865C2.06281 29.883 2.26372 28.8724 1.49735 29.0135Z" fill="#FFF9E0"/>
<path fill-rule="evenodd" clip-rule="evenodd" d="M8.12786 20.5197C9.28131 21.8113 10.9503 22.1734 12.243 21.9282C15.5289 21.3018 16.2133 16.4711 12.4469 14.534C10.7692 13.6714 8.68497 13.7975 7.64849 15.3276C6.69326 16.7377 6.74494 18.9707 8.12786 20.5197Z" fill="#0AC947"/>
<path fill-rule="evenodd" clip-rule="evenodd" d="M12.5623 14.0175C12.4713 14.048 12.3804 14.081 12.297 14.1219C12.0886 14.2226 11.7485 14.9919 12.297 14.9992C12.3889 15.0023 12.477 14.9962 12.5651 14.9852C12.855 14.9522 13.0019 14.6207 13 14.4058C13.0009 14.2397 12.8389 13.9222 12.5623 14.0175Z" fill="#FFF9E0"/>
<path fill-rule="evenodd" clip-rule="evenodd" d="M12.1532 15C12.1034 15.0017 12.0866 15.1198 12.0578 15.271C12.0412 15.3576 12.0251 15.5317 12.0494 15.6583C12.06 15.7152 12.0722 15.8205 12.0883 15.8978C12.1736 16.28 12.2259 15.485 12.207 15.2378L12.2008 15.1622C12.1949 15.0866 12.1718 15.0008 12.1532 15Z" fill="#FFF9E0"/>
<path fill-rule="evenodd" clip-rule="evenodd" d="M12.1909 16.1464C12.1864 16.1248 12.1822 16.1026 12.1783 16.081C12.1669 16.035 12.154 16.0075 12.1381 16.0016C12.1262 15.9994 12.1151 16.0001 12.1039 16.0001C12.0675 16.0016 12.0516 16.1293 12.0439 16.2429C12.0308 16.4226 12.0234 16.5562 12.0367 16.7544C12.0776 17.3811 12.2933 16.672 12.1909 16.1464Z" fill="#FFF9E0"/>
<path fill-rule="evenodd" clip-rule="evenodd" d="M12.2023 14.3141C12.1909 14.0934 12.153 13.9046 12.0901 14.0527C12.0313 14.1919 11.9751 14.7236 12.067 14.9561C12.1072 15.0553 12.1518 14.9642 12.1815 14.9005C12.2137 14.8309 12.2594 14.4422 12.2023 14.3141Z" fill="#FFF9E0"/>
<path fill-rule="evenodd" clip-rule="evenodd" d="M10.6701 18.0005C10.6463 17.9994 10.6217 18.0005 10.5989 18.001C10.2091 18.0049 10.0009 18.3297 10 18.6014C10.0027 18.8743 10.2711 19.0958 10.598 18.9577C10.6217 18.9483 10.6463 18.9384 10.6692 18.9268C10.9093 18.8252 11.2744 17.9933 10.6701 18.0005Z" fill="#FFF9E0"/>
<path fill-rule="evenodd" clip-rule="evenodd" d="M10.119 18.023C10.1059 18.0117 10.0938 18.0047 10.0764 18.0005C10.0491 17.992 10.0333 18.0999 10.0298 18.1781C10.0291 18.1816 10.0179 18.6639 10.0241 18.4721C10.0092 18.9381 10.124 19.2116 10.1944 18.7943C10.2147 18.6737 10.2221 18.5553 10.2254 18.4051C10.2298 18.1767 10.1758 17.9603 10.119 18.023Z" fill="#FFF9E0"/>
<path fill-rule="evenodd" clip-rule="evenodd" d="M11.1236 18.0135C11.0319 18.1171 10.9987 19.1275 11.1241 18.9865C11.216 18.8829 11.2493 17.8725 11.1236 18.0135Z" fill="#FFF9E0"/>
<path fill-rule="evenodd" clip-rule="evenodd" d="M10.1283 17.0065C10.1221 17.0112 10.1159 17.0187 10.1099 17.0271C10.0713 17.0906 10.0051 17.6416 10.0636 17.8377C10.0926 18.0516 10.1374 18.0395 10.1662 17.8863C10.1992 17.7098 10.2163 17.5436 10.2029 17.283C10.193 17.1027 10.1674 16.9683 10.1283 17.0065Z" fill="#FFF9E0"/>
<path fill-rule="evenodd" clip-rule="evenodd" d="M13.1482 18.0161C13.1341 18.0327 13.12 18.0494 13.1061 18.066C13.0439 18.1421 13.0097 18.3831 13.0102 18.6219C13.0102 18.8124 13.0427 19.0408 13.1061 18.9938C13.1205 18.982 13.1344 18.9702 13.1487 18.9619C13.2613 18.874 13.2734 17.861 13.1482 18.0161Z" fill="#FFF9E0"/>
<path fill-rule="evenodd" clip-rule="evenodd" d="M15.5066 18.0105C14.9922 18.1187 14.7949 18.6901 15.2707 18.9667C15.4656 19.0819 15.632 18.8732 15.6897 18.7236C15.6713 18.8028 15.6521 18.884 15.632 18.9657C15.7223 18.9214 15.7943 18.8658 15.8511 18.7959C15.9431 18.6857 15.9983 18.5523 16 18.4111C15.9975 18.2162 15.8269 17.943 15.5066 18.0105Z" fill="#FFF9E0"/>
<path fill-rule="evenodd" clip-rule="evenodd" d="M13.2153 18.2785C13.1902 18.1968 13.1912 18.0713 13.1528 18.0206C13.0757 17.9178 13.0237 18.221 13.015 18.4652C13.0145 18.4683 13.0145 18.4743 13.014 18.4781C13.0091 18.6112 13.0148 18.8811 13.0579 18.9613C13.0574 18.9651 13.0569 18.9689 13.0564 18.9719C13.0599 18.9742 13.0621 18.9719 13.0656 18.9742C13.0705 18.9802 13.0733 18.9953 13.0787 18.9984C13.0807 18.9961 13.0839 18.9991 13.0859 18.9999C13.0899 19.0014 13.0923 18.9893 13.0963 18.9878C13.0975 18.987 13.098 18.9863 13.099 18.9847C13.1236 18.9726 13.1414 18.9265 13.1568 18.8569C13.1627 18.8411 13.1684 18.8267 13.1756 18.8146C13.2131 18.7738 13.2641 18.4335 13.2153 18.2785Z" fill="#FFF9E0"/>
<path fill-rule="evenodd" clip-rule="evenodd" d="M16.0697 18.7899C16.0793 18.8473 16.0868 18.8912 16.0987 18.9351C16.1547 19.1546 16.2035 18.7639 16.1998 18.5579C16.1976 18.4441 16.1941 18.3401 16.1884 18.2281C16.1586 17.6466 15.9884 18.3034 16.0697 18.7899Z" fill="#FFF9E0"/>
<path fill-rule="evenodd" clip-rule="evenodd" d="M11.1237 16.0135C11.0184 16.117 10.981 17.1276 11.1242 16.9865C11.2296 16.8836 11.2667 15.8724 11.1237 16.0135Z" fill="#FFF9E0"/>
<path fill-rule="evenodd" clip-rule="evenodd" d="M9.13185 16.0143C9.03271 16.1498 8.97818 16.5738 9.07212 16.9197C9.12937 17.132 9.17721 16.8797 9.19506 16.668C9.21365 16.5796 9.2248 16.4706 9.2243 16.3467C9.2243 16.2047 9.1901 15.935 9.13185 16.0143Z" fill="#FFF9E0"/>
<path fill-rule="evenodd" clip-rule="evenodd" d="M10.144 14.0373C10.0451 13.8058 9.95485 14.7189 10.0582 14.9041C10.085 14.9519 10.1083 14.9952 10.1365 14.9998C10.2173 15.0127 10.2677 14.5041 10.2119 14.2377C10.1916 14.1436 10.1705 14.095 10.144 14.0373Z" fill="#FFF9E0"/>
<path fill-rule="evenodd" clip-rule="evenodd" d="M16.7047 9.0747C17.4256 9.88242 18.4691 10.1085 19.2772 9.955C21.3308 9.56412 21.7582 6.54445 19.4038 5.33325C18.3565 4.79519 17.053 4.87281 16.4053 5.83023C15.808 6.71204 15.8411 8.10771 16.7047 9.0747Z" fill="#0AC947"/>
<path fill-rule="evenodd" clip-rule="evenodd" d="M18.1334 6.01117C18.1202 6.01789 18.1066 6.02586 18.0935 6.03531C18.0625 6.0592 18.0107 6.24011 18.0935 6.2416C18.1074 6.2426 18.1205 6.24085 18.1339 6.23787C18.1775 6.22991 18.1991 6.15177 18.1991 6.102C18.1996 6.06268 18.175 5.98853 18.1334 6.01117Z" fill="#FFF9E0"/>
<path fill-rule="evenodd" clip-rule="evenodd" d="M18.1411 6.04036C18.1118 6.0411 18.1017 6.06027 18.0856 6.08565C18.0764 6.10083 18.0672 6.12944 18.0806 6.15109C18.087 6.16055 18.0942 6.17847 18.1027 6.19091C18.152 6.2561 18.1827 6.12198 18.1718 6.08017L18.1681 6.06773C18.1644 6.05429 18.1517 6.04036 18.1411 6.04036Z" fill="#FFF9E0"/>
<path fill-rule="evenodd" clip-rule="evenodd" d="M18.1626 7.05574C18.1601 7.05176 18.1576 7.04777 18.1551 7.04354C18.1489 7.03409 18.1415 7.02911 18.1326 7.02836C18.1254 7.02812 18.1197 7.02812 18.1125 7.02787C18.0922 7.02812 18.0822 7.0535 18.0783 7.0744C18.0704 7.10949 18.0659 7.13537 18.0736 7.17369C18.0971 7.29413 18.2215 7.15851 18.1626 7.05574Z" fill="#FFF9E0"/>
<path fill-rule="evenodd" clip-rule="evenodd" d="M18.169 6.08878C18.1626 6.04623 18.1408 6.00915 18.1041 6.03801C18.0711 6.06539 18.0381 6.16816 18.0912 6.2127C18.1137 6.23186 18.1398 6.2137 18.1566 6.20175C18.1752 6.18832 18.202 6.11316 18.169 6.08878Z" fill="#FFF9E0"/>
<path fill-rule="evenodd" clip-rule="evenodd" d="M18.1508 8.00004C18.1463 8.00196 18.1428 8.00292 18.1396 8.00004C18.0786 8.0058 18.0464 8.32914 18.0457 8.60163C18.0467 8.87508 18.0886 9.09576 18.1396 8.95759C18.1436 8.948 18.1466 8.94032 18.1503 8.92785C18.1877 8.82615 18.2452 7.99332 18.1508 8.00004Z" fill="#FFF9E0"/>
<path fill-rule="evenodd" clip-rule="evenodd" d="M18.1209 9.02692C18.1142 9.02468 18.1067 9.02319 18.0971 9.02294C18.0812 9.0217 18.0713 9.04285 18.0696 9.05903C18.0696 9.05903 18.0626 9.15732 18.0661 9.118C18.0584 9.21356 18.1239 9.26905 18.165 9.18394C18.1771 9.16005 18.1806 9.13442 18.1826 9.10456C18.1851 9.05853 18.1543 9.01498 18.1209 9.02692Z" fill="#FFF9E0"/>
<path fill-rule="evenodd" clip-rule="evenodd" d="M18.1242 9.03492C18.0709 9.05408 18.0514 9.23997 18.1242 9.21384C18.1773 9.19468 18.1959 9.00929 18.1242 9.03492Z" fill="#FFF9E0"/>
<path fill-rule="evenodd" clip-rule="evenodd" d="M18.1258 7.04844C18.1223 7.04968 18.1189 7.05092 18.1157 7.05217C18.0936 7.06212 18.0552 7.14623 18.0894 7.17684C18.1057 7.20919 18.1315 7.2077 18.1481 7.18406C18.1675 7.15668 18.1771 7.1318 18.1694 7.09149C18.1632 7.06337 18.1489 7.04222 18.1258 7.04844Z" fill="#FFF9E0"/>
<path fill-rule="evenodd" clip-rule="evenodd" d="M21.1377 9.02442C21.13 9.0274 21.1216 9.03139 21.1142 9.03487C21.078 9.0508 21.0579 9.10007 21.0584 9.15058C21.0589 9.18965 21.0777 9.23668 21.1139 9.22648C21.1218 9.22449 21.1303 9.2225 21.1382 9.21976C21.2029 9.20234 21.2103 8.99157 21.1377 9.02442Z" fill="#FFF9E0"/>
<path fill-rule="evenodd" clip-rule="evenodd" d="M21.1251 8.01026C21.0376 8.11877 21.0036 8.68784 21.0842 8.96724C21.1174 9.08088 21.1461 8.87411 21.1558 8.72458C21.1536 8.8049 21.1498 8.88265 21.1456 8.96553C21.1617 8.92196 21.1746 8.86556 21.1845 8.79635C21.1992 8.68784 21.2086 8.55198 21.2093 8.41014C21.2086 8.21618 21.1793 7.94361 21.1251 8.01026Z" fill="#FFF9E0"/>
<path fill-rule="evenodd" clip-rule="evenodd" d="M21.1768 7.08246C21.1624 7.06629 21.1626 7.04265 21.1411 7.03394C21.0967 7.01378 21.0662 7.07151 21.0613 7.1173C21.0608 7.11855 21.061 7.11929 21.0605 7.12054C21.0576 7.14492 21.061 7.19569 21.0858 7.21111C21.0853 7.21211 21.0853 7.21211 21.0848 7.21335C21.0868 7.2136 21.0885 7.21311 21.0898 7.2136C21.0927 7.21435 21.0952 7.21833 21.0982 7.21833C21.0994 7.21883 21.1014 7.21933 21.1024 7.21883C21.1042 7.21908 21.1056 7.21758 21.1084 7.21659C21.1084 7.21659 21.1091 7.21634 21.1101 7.21609C21.1242 7.21385 21.1341 7.20539 21.1428 7.19171C21.1463 7.18847 21.1493 7.18524 21.1537 7.18399C21.1753 7.17603 21.2048 7.11183 21.1768 7.08246Z" fill="#FFF9E0"/>
<path fill-rule="evenodd" clip-rule="evenodd" d="M21.0929 9.17157C21.0978 9.18028 21.1023 9.1875 21.1095 9.19372C21.1414 9.22905 21.1695 9.16734 21.1675 9.13375C21.1667 9.11533 21.165 9.09965 21.161 9.08024C21.1439 8.98892 21.046 9.09244 21.0929 9.17157Z" fill="#FFF9E0"/>
<path fill-rule="evenodd" clip-rule="evenodd" d="M18.124 7.02175C18.0633 7.04365 18.0415 7.25666 18.1238 7.22705C18.1847 7.2054 18.2063 6.99239 18.124 7.02175Z" fill="#FFF9E0"/>
<path fill-rule="evenodd" clip-rule="evenodd" d="M16.1288 7.0167C16.0721 7.04706 16.0401 7.14037 16.0941 7.21776C16.1274 7.26455 16.1551 7.20881 16.1648 7.16227C16.1757 7.14261 16.1824 7.11773 16.1814 7.09061C16.1816 7.05826 16.1623 6.99878 16.1288 7.0167Z" fill="#FFF9E0"/>
<mask id="mask2_0_573" style="mask-type:luminance" maskUnits="userSpaceOnUse" x="16" y="-12" width="36" height="18">
<path fill-rule="evenodd" clip-rule="evenodd" d="M16 -12H52V6H16V-12Z" fill="white"/>
</mask>
<g mask="url(#mask2_0_573)">
<path fill-rule="evenodd" clip-rule="evenodd" d="M17.1328 6.03783C17.077 5.99396 17.0257 6.16892 17.0846 6.20518C17.1002 6.21431 17.1128 6.22268 17.1289 6.22268C17.1744 6.22572 17.2028 6.12734 17.1719 6.07637C17.16 6.05887 17.1481 6.04949 17.1328 6.03783Z" fill="#FFF9E0"/>
</g>
<mask id="mask3_0_573" style="mask-type:luminance" maskUnits="userSpaceOnUse" x="23" y="-12" width="29" height="46">
<path fill-rule="evenodd" clip-rule="evenodd" d="M23 -12H52V34H23V-12Z" fill="white"/>
</mask>
<g mask="url(#mask3_0_573)">
<path fill-rule="evenodd" clip-rule="evenodd" d="M49.603 1.59906C45.9955 0.0741949 42.2876 -1.23803 38.599 -2.57485C35.8277 -3.57632 32.8273 -4.49076 29.8679 -3.7012C24.7231 -2.32846 24.1162 5.21992 23.6714 9.19036C22.9424 15.7361 23.3367 22.3105 23.0007 28.8653C22.9945 28.9965 23.032 29.0847 23.0894 29.1414C23.0494 31.0173 23.3216 32.8367 24.3335 34.1854C26.3366 36.8498 32.2304 32.2198 33.8341 31.1122C38.1922 28.1006 42.4212 25.1799 46.9807 22.4093C49.7995 20.6978 52.5336 18.8813 55.2434 17.0215C57.1621 15.7103 59.3401 14.224 60.4031 12.1668C63.5091 6.14545 53.6815 3.32619 49.603 1.59906Z" fill="#FDC748"/>
</g>
<path fill-rule="evenodd" clip-rule="evenodd" d="M30.1737 32.9843C30.5565 33.1306 31.3503 32.2141 30.8266 32.0158C30.442 31.869 29.6498 32.7858 30.1737 32.9843Z" fill="#FFF9E0"/>
<path fill-rule="evenodd" clip-rule="evenodd" d="M28.0364 32.777C28.0467 32.7959 28.0568 32.8155 28.0673 32.8338C28.2328 33.1626 28.594 32.9306 28.7739 32.7603C28.9125 32.6277 29.0137 32.4577 28.9985 32.218C28.9911 32.1244 28.944 32.0907 28.8882 32.0766C28.8098 32.0053 28.6996 31.9828 28.6083 32.0133C28.5803 32.0239 28.5506 32.0318 28.522 32.0424C28.3577 32.0968 27.8629 32.432 28.0364 32.777Z" fill="#FFF9E0"/>
<path fill-rule="evenodd" clip-rule="evenodd" d="M28.0029 29.6467C28.004 29.6653 28.007 29.6848 28.009 29.7023C28.0303 29.9177 28.2382 29.9738 28.3946 29.9347C28.4021 29.9433 28.4099 29.9531 28.4196 29.9624C28.5251 30.0859 28.8414 29.88 28.8105 29.7083C28.8096 29.7016 28.8072 29.6953 28.8068 29.689C28.8668 29.6225 28.9235 29.5525 28.958 29.4568C29.249 28.6914 27.9308 28.9797 28.0029 29.6467Z" fill="#FFF9E0"/>
<path fill-rule="evenodd" clip-rule="evenodd" d="M28.0058 27.7299C28.0044 27.7644 28.0185 27.797 28.0417 27.8277C28.0548 27.8493 28.0767 27.8651 28.0969 27.8839C28.0951 27.8854 28.0955 27.8872 28.0933 27.8894C28.1425 28.0441 28.3592 28.0045 28.4517 27.9607C28.6448 27.8674 28.8444 27.7327 28.9513 27.5049C29.0704 27.2528 28.962 27.0119 28.7249 27.0003C28.4362 26.9881 27.9411 27.4051 28.0058 27.7299Z" fill="#FFF9E0"/>
<path fill-rule="evenodd" clip-rule="evenodd" d="M30.0269 29.8679C30.0729 30.0356 30.219 30.0174 30.3506 29.9563C30.3719 29.9577 30.3898 29.9594 30.4128 29.96C30.6111 29.9445 31.2178 29.519 30.9185 29.1441C30.605 28.7477 29.8484 29.2282 30.0269 29.8679Z" fill="#FFF9E0"/>
<path fill-rule="evenodd" clip-rule="evenodd" d="M36.1657 27.9757C36.4168 28.0689 36.7154 27.88 36.8806 27.6465C37.0102 27.46 37.0842 27.1142 36.8346 27.0241C36.5831 26.9315 36.2851 27.1194 36.1203 27.3545C35.9897 27.5411 35.9155 27.8856 36.1657 27.9757Z" fill="#FFF9E0"/>
<path fill-rule="evenodd" clip-rule="evenodd" d="M37.1662 22.7933C37.1708 22.8009 37.1712 22.8087 37.1917 22.8311C37.2271 22.877 37.2483 22.9303 37.2888 22.976C37.3428 23.034 37.4692 22.9736 37.5132 22.9344C37.6787 22.7846 37.8241 22.6109 37.9465 22.4215C38.0813 22.2157 37.9447 22.0069 37.7228 22.0003C37.4389 21.9928 37.201 22.1422 37.0505 22.389C36.9528 22.5524 36.9997 22.7215 37.1662 22.7933Z" fill="#FFF9E0"/>
<path fill-rule="evenodd" clip-rule="evenodd" d="M28.3758 0.989689C28.5759 0.949185 29.261 0.444058 28.8934 0.148047C28.8711 0.123791 28.8692 0.138863 28.8855 0.191848C28.822 -0.229915 28.309 0.148989 28.2039 0.330316C28.2323 0.274034 28.2317 0.263437 28.2013 0.295935C27.8895 0.564158 27.9341 1.07918 28.3758 0.989689Z" fill="#FFF9E0"/>
<path fill-rule="evenodd" clip-rule="evenodd" d="M34.4609 0.934597L34.5291 0.896703C34.7159 0.793463 35.1169 0.494485 34.9672 0.160597C34.8287 -0.154792 34.3864 0.0630259 34.2322 0.231611C34.2132 0.251304 34.1922 0.270699 34.1744 0.291287C33.8439 0.645466 34.0073 1.18852 34.4609 0.934597Z" fill="#FFF9E0"/>
<path fill-rule="evenodd" clip-rule="evenodd" d="M31.0141 6.74307C31.0132 6.75185 31.009 6.76136 31.0087 6.76812C31.0081 6.78111 31 6.79317 31 6.80744C30.9981 6.94787 31.1083 6.99742 31.2501 6.99449C31.2591 6.99559 31.2644 7.00034 31.2732 6.99998C31.2858 7.00034 31.2973 6.99577 31.3101 6.99577C31.3113 6.99577 31.3113 6.99577 31.3122 6.99504C31.5513 6.98956 31.8241 6.8526 31.9384 6.65622C32.0524 6.4602 31.9859 6.27991 31.9176 6.08262C31.8508 5.88934 31.4593 6.08463 31.3864 6.16856C31.2463 6.33404 31.0514 6.52493 31.0141 6.74307Z" fill="#FFF9E0"/>
<path fill-rule="evenodd" clip-rule="evenodd" d="M31.1655 0.976638C31.4168 1.06726 31.7144 0.881002 31.8805 0.645725C32.0103 0.459029 32.0844 0.115046 31.834 0.023767C31.5837 -0.0681652 31.2846 0.120274 31.1196 0.354244C30.9897 0.540287 30.9158 0.884488 31.1655 0.976638Z" fill="#FFF9E0"/>
<path fill-rule="evenodd" clip-rule="evenodd" d="M34.1657 4.97674C34.4168 5.06737 34.7157 4.87978 34.8788 4.64516C35.0105 4.45863 35.0846 4.11463 34.8341 4.02427C34.5822 3.93153 34.2845 4.11807 34.1205 4.35453C33.9893 4.53842 33.9158 4.88506 34.1657 4.97674Z" fill="#FFF9E0"/>
<path fill-rule="evenodd" clip-rule="evenodd" d="M34.6212 5.91143C34.6358 5.90337 34.6502 5.89155 34.6659 5.88224C34.8323 5.77202 35.1547 5.3294 34.9135 5.0901C34.6498 4.82841 34.227 5.19 34.0832 5.49623C34.0767 5.50982 34.069 5.52366 34.0621 5.54002C33.8066 6.08732 34.4084 6.05184 34.6212 5.91143Z" fill="#FFF9E0"/>
<mask id="mask4_0_573" style="mask-type:luminance" maskUnits="userSpaceOnUse" x="29" y="5" width="23" height="9">
<path fill-rule="evenodd" clip-rule="evenodd" d="M29 5H52V14H29V5Z" fill="white"/>
</mask>
<g mask="url(#mask4_0_573)">
<path fill-rule="evenodd" clip-rule="evenodd" d="M29.1734 5.98414C29.5567 6.13115 30.3505 5.21297 29.8265 5.01588C29.4421 4.86887 28.6501 5.7856 29.1734 5.98414Z" fill="#FFF9E0"/>
</g>
<path fill-rule="evenodd" clip-rule="evenodd" d="M47.334 14.9953C47.3818 14.9873 47.4288 14.9884 47.4758 14.999C47.6361 15.0118 48.2072 14.5201 47.9209 14.25C47.8917 14.2245 47.8623 14.1965 47.8346 14.1636C47.6397 13.8214 47.2657 14.08 47.0997 14.357C46.8862 14.7183 47.0394 15.0432 47.334 14.9953Z" fill="#FFF9E0"/>
<path fill-rule="evenodd" clip-rule="evenodd" d="M48.1949 9.94164C48.3734 10.1521 48.8584 9.73921 48.9327 9.55685C48.972 9.45918 49.0106 9.3647 48.9974 9.25186C48.962 8.96743 48.6845 8.9596 48.522 9.05432C48.3462 9.15542 48.2261 9.27952 48.0887 9.45013C47.9217 9.65599 48.0094 9.91398 48.1949 9.94164Z" fill="#FFF9E0"/>
<path fill-rule="evenodd" clip-rule="evenodd" d="M48.0181 11.8202C48.1156 12.1182 48.507 11.9824 48.6674 11.8631C48.8149 11.7533 49.0184 11.5693 48.9987 11.333C48.9966 11.2937 48.993 11.2554 48.9824 11.2152C48.9089 10.8093 48.3697 11.0627 48.2344 11.2824C48.2106 11.3204 48.1832 11.357 48.1562 11.3963C48.0441 11.5081 47.962 11.6509 48.0181 11.8202Z" fill="#FFF9E0"/>
<path fill-rule="evenodd" clip-rule="evenodd" d="M48.0008 14.7721C48.0269 15.179 48.542 14.9455 48.6792 14.8016C48.8265 14.6438 48.9522 14.4679 48.9928 14.2262C49.0569 13.8468 48.6756 14.0232 48.4941 14.1892C48.2606 14.2567 47.9826 14.4637 48.0008 14.7721Z" fill="#FFF9E0"/>
<mask id="mask5_0_573" style="mask-type:luminance" maskUnits="userSpaceOnUse" x="43" y="6" width="8" height="6">
<path fill-rule="evenodd" clip-rule="evenodd" d="M43 6H51V12H43V6Z" fill="white"/>
</mask>
<g mask="url(#mask5_0_573)">
<path fill-rule="evenodd" clip-rule="evenodd" d="M43.0736 11.8566C43.2303 12.0383 43.4434 12.0014 43.6359 11.9869C43.7368 11.9801 44.0976 11.795 43.9748 11.5908C43.8833 11.4386 43.9359 11.2935 43.8621 11.1432C43.7057 10.8248 43.2844 11.1096 43.1446 11.3015C43.1327 11.3191 43.1212 11.3338 43.1093 11.3497C43.0044 11.497 42.9441 11.7043 43.0736 11.8566Z" fill="#FFF9E0"/>
</g>
<path fill-rule="evenodd" clip-rule="evenodd" d="M41.0198 6.81257C41.0246 6.82611 41.0284 6.83805 41.0324 6.85052C41.1107 7.0939 41.3769 6.99464 41.5396 6.87176C41.7788 6.76613 42.1712 6.42004 41.918 6.1419C41.6656 5.86588 41.2931 6.0214 41.1053 6.36059C41.0322 6.49435 40.9656 6.64165 41.0198 6.81257Z" fill="#FFF9E0"/>
<path fill-rule="evenodd" clip-rule="evenodd" d="M37.1731 11.9844C37.5582 12.1298 38.3493 11.2133 37.8272 11.0154C37.4417 10.8709 36.6505 11.7865 37.1731 11.9844Z" fill="#FFF9E0"/>
<path fill-rule="evenodd" clip-rule="evenodd" d="M41.3433 14.9909C41.4091 14.9792 41.476 14.9688 41.5421 14.9572C41.6829 14.9325 42.1243 14.605 41.9663 14.3363C41.9387 14.2895 41.9136 14.2428 41.8853 14.1961C41.4398 13.4367 40.491 15.1384 41.3433 14.9909Z" fill="#FFF9E0"/>
<path fill-rule="evenodd" clip-rule="evenodd" d="M34.1658 14.9763C34.4177 15.0676 34.7149 14.8822 34.8794 14.6459C35.0106 14.4595 35.0843 14.1159 34.8342 14.0239C34.5827 13.9316 34.2851 14.1207 34.12 14.3542C33.9897 14.541 33.9155 14.8845 34.1658 14.9763Z" fill="#FFF9E0"/>
<path fill-rule="evenodd" clip-rule="evenodd" d="M41.6308 49.1091L41.5936 49.079L41.5929 49.0792L41.6308 49.1091ZM41.5188 49.0443L41.4785 49.039L41.5188 49.0443ZM40.4393 47.4075L40.5112 47.3639C40.744 47.2341 40.983 47.1151 41.2392 47.0505C41.5378 46.9766 41.8545 46.9842 42.1491 47.0708C42.5742 47.1951 42.9038 47.5181 43.176 47.8744C43.3597 48.1151 43.545 48.3587 43.6644 48.6453C43.7494 48.7992 43.793 48.9666 43.7949 49.145C43.7857 49.2291 43.7765 49.3132 43.7671 49.398C43.7268 49.5666 43.6512 49.7152 43.5391 49.8418C43.368 50.0334 43.1271 50.1456 42.88 50.1481C42.7187 50.1486 42.5678 50.1081 42.4258 50.0253C42.2716 49.9134 42.123 49.8071 42.005 49.6519C41.9527 49.5825 41.9009 49.5137 41.8487 49.444C41.7566 49.3213 41.6629 49.2018 41.5618 49.0896L41.5126 49.1055C41.4302 49.1524 41.3504 49.2023 41.2722 49.2585C41.1505 49.3752 41.0367 49.4987 40.9315 49.6342L40.8707 49.7489L40.8651 49.7754L40.8712 49.9737C40.9762 50.5712 41.1705 51.1494 41.3457 51.7254C41.5039 52.2472 41.1662 52.8237 40.6911 52.9655C40.4577 53.0343 40.2032 53.0027 39.9903 52.8766C39.7619 52.7419 39.6182 52.5242 39.5386 52.2629C39.3877 51.7662 39.2141 51.2659 39.1167 50.7527C39.0277 50.2889 38.9471 49.8172 39.0441 49.3461C39.147 48.8435 39.4152 48.4405 39.7225 48.0592C39.7944 47.9708 39.873 47.8898 39.954 47.8133C40.1052 47.6716 40.2641 47.5202 40.4393 47.4075Z" fill="#434253"/>
<path fill-rule="evenodd" clip-rule="evenodd" d="M31.2767 45.5496C31.1173 45.6724 30.9553 45.8014 30.8085 45.9397C30.6182 46.1186 30.4742 46.3286 30.3303 46.5534C30.2308 46.7078 30.176 46.9118 30.1179 47.0833C30.0883 47.1704 30.0678 47.2593 30.0472 47.349C29.9657 47.7159 30.0022 48.0999 30.0631 48.4654C30.1806 49.168 30.4971 49.8118 30.8038 50.4396C31.0784 51.0029 31.8174 51.151 32.3066 50.8409C32.555 50.6835 32.7363 50.4244 32.807 50.1268C32.881 49.815 32.8216 49.527 32.6846 49.2469C32.582 49.036 32.4817 48.8257 32.3848 48.6119C32.3089 48.403 32.2447 48.1924 32.2002 47.9723L32.194 47.8408L32.221 47.735L32.2465 47.684C32.3532 47.5571 32.4699 47.4409 32.5915 47.3291C32.6656 47.2776 32.7396 47.2285 32.8172 47.1826L32.8743 47.1668C32.9617 47.1594 33.0479 47.157 33.1363 47.1603C33.3446 47.1976 33.5474 47.2473 33.75 47.3146C33.8716 47.3717 33.9894 47.4338 34.1041 47.5064C34.2791 47.618 34.4501 47.7369 34.6293 47.8424C34.9924 48.0533 35.457 47.9785 35.7439 47.6602C35.9089 47.4769 36.0023 47.2274 36 46.9737C35.9969 46.6903 35.8827 46.4808 35.7143 46.2746C35.5102 46.0223 35.2333 45.8257 34.9661 45.656C34.6949 45.4844 34.4041 45.3442 34.1035 45.2414C33.7793 45.1296 33.4582 45.0554 33.1188 45.0156C32.5493 44.9498 31.9711 45.0947 31.4821 45.4048C31.4116 45.4495 31.3433 45.4975 31.2767 45.5496Z" fill="#0A1629"/>
<path fill-rule="evenodd" clip-rule="evenodd" d="M40.8764 40.9393C40.5927 41.254 40.389 41.6144 40.244 42.0111C40.1406 42.2926 40.0815 42.5829 40.0233 42.8772C39.9761 43.1168 39.9963 43.3474 40.1239 43.5613C40.2467 43.767 40.4479 43.9163 40.6795 43.9744C41.1392 44.0903 41.6822 43.8018 41.778 43.3183C41.8277 43.0639 41.879 42.8115 41.9599 42.5653C42.0082 42.4607 42.0632 42.3608 42.1256 42.2632C42.2092 42.1618 42.2956 42.0649 42.3918 41.9756C42.4486 41.9358 42.5075 41.8987 42.568 41.865L42.766 41.813C42.8569 41.8066 42.947 41.805 43.0377 41.8096C43.2061 41.8384 43.3707 41.8778 43.5329 41.9316C43.6135 41.9669 43.693 42.0035 43.77 42.0466C43.8653 42.0997 43.9558 42.1602 44.045 42.2227C44.1889 42.3352 44.3252 42.4547 44.462 42.577C44.832 42.907 45.3982 42.9159 45.7502 42.5481C46.0886 42.195 46.0872 41.5959 45.7215 41.2606C45.3852 40.9512 45.024 40.6542 44.6228 40.432C44.4109 40.315 44.1735 40.2328 43.9455 40.1526C43.756 40.0865 43.5505 40.0571 43.3516 40.0322C43.1369 40.0065 42.9413 39.99 42.727 40.0068C42.4885 40.0262 42.2456 40.0663 42.019 40.1474C41.8625 40.2035 41.714 40.2754 41.5727 40.3597C41.3133 40.5145 41.0803 40.713 40.8764 40.9393Z" fill="#0A1629"/>
<path fill-rule="evenodd" clip-rule="evenodd" d="M24.9569 45.9609L24.9525 45.9984L24.9581 45.9587L24.9569 45.9609ZM24.391 44.3231C24.875 44.0943 25.4455 43.9647 26.0116 44.0084C26.2394 44.0251 26.4702 44.0453 26.6913 44.0945C26.916 44.1432 27.1294 44.207 27.3444 44.2791C27.5491 44.3474 27.7068 44.5358 27.7635 44.6981C27.824 44.8705 27.7961 45.0573 27.6876 45.2133C27.5013 45.4814 27.0891 45.6281 26.7118 45.5486C26.4828 45.5 26.2586 45.4475 26.027 45.4149C25.9336 45.4115 25.8408 45.4117 25.7479 45.4169L25.615 45.4469C25.5345 45.4806 25.4578 45.5174 25.3821 45.5582C25.2685 45.6388 25.1654 45.7261 25.0677 45.8197L25.0179 45.8809C25.1331 46.0632 25.2706 46.2357 25.4062 46.4091C25.6925 46.7752 25.5237 47.273 25.062 47.491C24.5898 47.7139 23.9788 47.5842 23.692 47.2183C23.5946 47.0931 23.494 46.9675 23.4035 46.8384C23.2519 46.623 23.1034 46.3937 23.0385 46.1514C22.9813 45.9399 22.9928 45.7626 23.0405 45.5498C23.0831 45.4611 23.128 45.3728 23.1737 45.285C23.2114 45.2293 23.2547 45.1758 23.3047 45.126C23.5499 44.8551 23.83 44.6286 24.1755 44.4343C24.2445 44.3954 24.3169 44.3579 24.391 44.3231Z" fill="#0A1629"/>
<path fill-rule="evenodd" clip-rule="evenodd" d="M29.9347 39.6795C29.7912 39.8028 29.6609 39.9341 29.5418 40.0806C29.3139 40.3604 29.164 40.6667 29.0692 41.0126C29.0096 41.232 29.0081 41.4712 29.0012 41.6973C28.9955 41.9104 29.011 42.1253 29.0244 42.3379C29.0413 42.6268 29.0609 42.917 29.079 43.2069C29.0931 43.426 29.1669 43.6232 29.332 43.778C29.4848 43.9212 29.6941 44.0021 29.9063 44C30.3335 43.996 30.7448 43.6269 30.7163 43.191C30.6951 42.8618 30.6731 42.5325 30.6538 42.2031C30.6395 41.9625 30.6311 41.7179 30.6476 41.4768C30.6624 41.4037 30.6805 41.3336 30.702 41.2633C30.7333 41.2026 30.7658 41.1442 30.802 41.086C30.9018 40.9687 31.0092 40.8617 31.1252 40.7599C31.1889 40.7183 31.2546 40.6819 31.3228 40.647L31.4663 40.6073L31.6722 40.6015C31.7355 40.616 31.7968 40.6321 31.8582 40.6513C31.988 40.7122 32.1116 40.7804 32.2315 40.8589C32.3957 40.983 32.5685 41.114 32.7558 41.1902C32.885 41.2589 33.0232 41.2927 33.1692 41.2918C33.3943 41.2902 33.6129 41.1976 33.769 41.0374C34.0719 40.7281 34.091 40.1665 33.7423 39.8755C33.5327 39.7002 33.2864 39.5587 33.0561 39.4113C32.8439 39.2753 32.5914 39.1737 32.3501 39.1046C32.0883 39.0291 31.8131 38.9917 31.5405 39.0015C31.3925 39.0062 31.2457 39.0377 31.0997 39.059C30.8698 39.0947 30.6467 39.2057 30.4414 39.3118L30.3715 39.3498C30.2144 39.4421 30.0717 39.5608 29.9347 39.6795Z" fill="#0A1629"/>
</g>
</svg>
