<svg width="48" height="48" viewBox="0 0 48 48" fill="none" xmlns="http://www.w3.org/2000/svg">
<rect width="48" height="48" rx="10" fill="#E9EBF1"/>
<mask id="mask0_0_974" style="mask-type:luminance" maskUnits="userSpaceOnUse" x="0" y="0" width="48" height="48">
<rect width="48" height="48" rx="10" fill="white"/>
</mask>
<g mask="url(#mask0_0_974)">
<mask id="mask1_0_974" style="mask-type:luminance" maskUnits="userSpaceOnUse" x="-100" y="6" width="186" height="105">
<path fill-rule="evenodd" clip-rule="evenodd" d="M-100 6H86V111H-100V6Z" fill="white"/>
</mask>
<g mask="url(#mask1_0_974)">
<path fill-rule="evenodd" clip-rule="evenodd" d="M86 113.151V121H-100V-3H-81.8018C-80.0484 -2.3428 -78.3372 -1.56904 -76.6855 -0.68864C-65.7909 5.11952 -57.5201 15.5578 -54.0952 27.4197C-51.1093 37.7613 -51.6995 48.7452 -50.6455 59.4588C-49.5915 70.1699 -46.375 81.501 -37.933 88.1772C-31.123 93.5613 -21.9618 95.0245 -13.2843 94.712C-4.60928 94.397 3.93928 92.5048 12.6044 91.9865C25.9815 91.183 39.5446 93.7175 51.7264 99.2975C61.7431 103.886 71.0255 110.554 81.851 112.605C83.2249 112.866 84.6112 113.047 86 113.151Z" fill="#FFFFFE"/>
<path fill-rule="evenodd" clip-rule="evenodd" d="M86 -3V88C85.7766 87.9353 85.5556 87.8656 85.3371 87.7909C79.3389 85.7745 74.3065 81.0075 72.0222 75.0928C69.2369 67.8837 70.446 59.4748 67.0273 52.5445C63.4348 45.2557 55.4108 41.1607 47.4761 39.4705C39.5439 37.7802 31.3237 37.9968 23.322 36.6824C9.68461 34.4445 -3.16828 27.6312 -12.6894 17.5893C-17.0862 12.9541 -20.8525 7.50498 -22.3694 1.29161C-22.712 -0.107397 -22.923 -1.55121 -23 -3H86Z" fill="#FFFFFE"/>
</g>
<path fill-rule="evenodd" clip-rule="evenodd" d="M10.773 -1.39606C8.34445 2.54893 6.9318 6.75402 8.99775 11.1858C16.6642 27.5357 38.9866 30.565 48.0003 13.7959C50.2881 9.54058 50.8968 4.67573 48.315 0.452824C45.7377 -3.75795 41.3995 -7.68067 37.4639 -10.6251C33.5559 -13.551 29.0349 -14.8624 24.2737 -13.3961C18.4728 -11.6081 13.8224 -6.35297 10.773 -1.39606Z" fill="#6D5DD3"/>
<path fill-rule="evenodd" clip-rule="evenodd" d="M45.0683 7.7128C45.0774 7.73246 45.0865 7.75211 45.0956 7.77177C45.2528 8.11372 45.6882 8.02157 45.873 7.81968C46.1059 7.56537 45.9901 7.15668 45.7543 7.05225L45.6961 7.02809C45.4601 6.92366 44.7849 7.10139 45.0683 7.7128Z" fill="#FFF9E0"/>
<path fill-rule="evenodd" clip-rule="evenodd" d="M39.0254 6.71036C39.1785 7.30034 40.2871 6.89339 39.9293 6.34124C39.879 6.26315 39.8171 6.20885 39.761 6.13808C39.6079 5.94711 39.2639 5.94955 39.1264 6.17468C39.016 6.35467 38.9657 6.48157 39.0254 6.71036Z" fill="#FFF9E0"/>
<path fill-rule="evenodd" clip-rule="evenodd" d="M41.0736 8.77921C41.2487 9.04431 41.5533 9.04775 41.7634 8.91029C41.9299 8.80131 42.1011 8.48613 41.9272 8.22103C41.7506 7.95544 41.4471 7.9525 41.2368 8.08946C41.0697 8.19845 40.8984 8.51362 41.0736 8.77921Z" fill="#FFF9E0"/>
<path fill-rule="evenodd" clip-rule="evenodd" d="M44.0134 10.6266C44.0038 10.5802 44.0034 10.592 44.0119 10.6579C44.0436 11.0651 44.4557 11.0342 44.6362 10.9414C44.7162 10.8994 44.7923 10.8527 44.861 10.7768C44.9742 10.6502 45.0737 10.3895 44.9249 10.2183L44.893 10.183C44.6813 9.93961 44.3965 9.95249 44.1694 10.1421C44.1568 10.1528 44.1433 10.1631 44.1307 10.1752C44.0107 10.2757 43.9782 10.4418 44.0134 10.6266Z" fill="#FFF9E0"/>
<path fill-rule="evenodd" clip-rule="evenodd" d="M46.1508 8.83852C46.2078 8.88173 46.2659 8.91482 46.3239 8.95068C46.4615 9.03373 46.6477 9.00339 46.7814 8.92279C46.8609 8.87498 47.0262 8.72298 46.9965 8.54923C46.9915 8.52226 46.987 8.49529 46.9852 8.46648C46.9748 8.34973 46.9347 8.27219 46.8827 8.21213C46.7658 8.01386 46.5405 7.96084 46.3831 8.02703C46.2497 8.0825 46.157 8.14655 46.0599 8.29518C45.939 8.47966 46.0174 8.73739 46.1508 8.83852Z" fill="#FFF9E0"/>
<path fill-rule="evenodd" clip-rule="evenodd" d="M31.0736 14.7786C31.2482 15.0444 31.553 15.048 31.7631 14.9099C31.9301 14.8013 32.1016 14.4872 31.9265 14.2213C31.7514 13.9555 31.4466 13.9523 31.2366 14.0896C31.0693 14.1986 30.8986 14.5127 31.0736 14.7786Z" fill="#FFF9E0"/>
<path fill-rule="evenodd" clip-rule="evenodd" d="M28.1443 14.8749C28.3773 15.0836 28.7385 15.0361 28.9166 14.695C29.0052 14.5554 29.0407 14.3606 28.9347 14.1977C28.7937 13.9783 28.5796 13.9804 28.4009 14.0216C28.3392 14.0364 28.2804 14.0666 28.2254 14.1137C28.0222 14.2817 27.8799 14.6381 28.1443 14.8749Z" fill="#FFF9E0"/>
<path fill-rule="evenodd" clip-rule="evenodd" d="M28.0837 15.8091C28.352 16.274 29.2808 15.8208 28.9164 15.1896C28.6481 14.7276 27.7189 15.1779 28.0837 15.8091Z" fill="#FFF9E0"/>
<path fill-rule="evenodd" clip-rule="evenodd" d="M29.0735 11.7783C29.2486 12.045 29.5531 12.0475 29.7631 11.9101C29.9301 11.8021 30.1016 11.4872 29.9266 11.222C29.7511 10.955 29.4466 10.9525 29.2365 11.0899C29.07 11.1982 28.8983 11.5128 29.0735 11.7783Z" fill="#FFF9E0"/>
<path fill-rule="evenodd" clip-rule="evenodd" d="M27.144 11.8795C27.3206 12.036 27.752 12.0785 27.917 11.7696C27.9471 11.7358 27.9722 11.6949 27.9781 11.6418C27.9835 11.6044 27.9882 11.5697 27.9932 11.5349C28.05 11.1135 27.7385 11.0005 27.5418 11C27.4295 11.0026 27.3307 11.0486 27.2262 11.1084C26.9935 11.2414 26.899 11.6602 27.144 11.8795Z" fill="#FFF9E0"/>
<path fill-rule="evenodd" clip-rule="evenodd" d="M33.0286 11.5588C33.0546 11.6447 33.0873 11.7161 33.1265 11.7886C33.2748 12.0569 33.5904 12.0356 33.7738 11.913C33.9172 11.8189 34.1058 11.4919 33.9273 11.258C33.8742 11.1881 33.8209 11.1261 33.7608 11.0756C33.5877 10.9262 32.8463 10.9557 33.0286 11.5588Z" fill="#FFF9E0"/>
<path fill-rule="evenodd" clip-rule="evenodd" d="M31.0839 16.8101C31.3516 17.2729 32.2813 16.8215 31.9161 16.1899C31.6478 15.7271 30.7187 16.1785 31.0839 16.8101Z" fill="#FFF9E0"/>
<path fill-rule="evenodd" clip-rule="evenodd" d="M26.0009 17.3633C26.0009 17.3874 26.0047 17.4146 26.0118 17.4361C25.9228 18.0439 26.5385 18.0718 26.7746 17.9277C27.1876 17.6705 26.9694 17.1523 26.6296 17.0659C26.6037 17.0542 26.5773 17.0406 26.5502 17.0295C26.408 16.962 25.9771 16.986 26.0009 17.3633Z" fill="#FFF9E0"/>
<path fill-rule="evenodd" clip-rule="evenodd" d="M26.1054 22.2256C26.0921 22.2453 26.0728 22.258 26.062 22.2786C26.006 22.3817 25.9928 22.4794 26.0033 22.5665C26.0043 22.5649 26.0043 22.5632 26.0046 22.5616C26.0048 22.5649 26.0038 22.5665 26.0041 22.5698C26.0048 22.5768 26.0065 22.5838 26.0082 22.5904C26.0134 22.6368 26.0337 22.6828 26.0558 22.7296C26.1336 22.8705 26.2724 22.9679 26.3745 22.9896C26.5354 23.0225 26.7158 22.9794 26.8529 22.8294C26.9186 22.7559 27.0639 22.486 26.9684 22.3373C26.9552 22.3172 26.9405 22.3049 26.9272 22.2864C26.925 22.2778 26.9258 22.2712 26.9233 22.2626C26.8872 22.1434 26.8127 22.097 26.7435 22.0543C26.6618 22.0013 26.56 21.9914 26.4574 22.0062C26.4469 22.0066 26.4358 22.0066 26.4245 22.0087C26.3669 22.0214 26.3119 22.0461 26.2587 22.0793C26.2506 22.083 26.243 22.0839 26.2349 22.0896C26.2327 22.0908 26.2312 22.0925 26.229 22.0941C26.1988 22.1167 26.1746 22.1455 26.1486 22.1742C26.1333 22.1907 26.1196 22.2055 26.1054 22.2256Z" fill="#FFF9E0"/>
<path fill-rule="evenodd" clip-rule="evenodd" d="M26.0912 21.0616C26.0907 21.0606 26.0902 21.0606 26.0905 21.0596C26.0778 21.087 26.0942 21.127 26.1613 21.1892C26.1509 21.1793 26.1522 21.1681 26.1435 21.1584C26.1202 21.132 26.1041 21.1044 26.0954 21.074C26.0947 21.07 26.0919 21.0658 26.0912 21.0616Z" fill="#FFF9E0"/>
<path fill-rule="evenodd" clip-rule="evenodd" d="M28.3203 21.0369C28.202 21.0721 28.1205 21.1701 28.1013 21.335C28.1004 21.3378 28.0994 21.3371 28.0979 21.3406C28.0704 21.447 28.0434 21.5555 28.014 21.6647C27.905 22.0875 28.4656 22.0325 28.5996 21.9177C28.6919 21.8395 28.7847 21.7605 28.877 21.6816C28.8868 21.6739 28.8863 21.6654 28.8947 21.6577C28.9266 21.6238 28.9526 21.5921 28.9659 21.5534C29.0557 21.3822 28.9585 21.2215 28.7877 21.1186C28.6492 21.008 28.469 20.9615 28.3203 21.0369Z" fill="#FFF9E0"/>
<path fill-rule="evenodd" clip-rule="evenodd" d="M27.1327 23.837C27.3937 24.2551 28.261 23.7842 27.9228 23.3744C27.9211 23.3726 27.9211 23.3744 27.9196 23.3726C28.02 22.9545 27.2501 22.8868 27.0845 23.177C26.9411 23.4263 26.9957 23.618 27.1327 23.837Z" fill="#FFF9E0"/>
<path fill-rule="evenodd" clip-rule="evenodd" d="M10.2387 9.90952C10.451 10.0472 11.0161 10.1004 10.9996 9.52313C10.999 9.50052 10.9875 9.48897 10.9844 9.46987C10.972 9.41259 10.9524 9.32617 10.9505 9.32165C10.8654 8.91667 10.3997 8.96642 10.2182 9.08298C9.89649 9.28849 9.95368 9.72311 10.2387 9.90952Z" fill="#FFF9E0"/>
<path fill-rule="evenodd" clip-rule="evenodd" d="M16.0734 11.7779C16.2493 12.0447 16.5532 12.0478 16.7638 11.9102C16.9305 11.8018 17.1016 11.4872 16.9262 11.2221C16.7509 10.9553 16.447 10.9522 16.2367 11.0898C16.0696 11.1982 15.8986 11.5128 16.0734 11.7779Z" fill="#FFF9E0"/>
<path fill-rule="evenodd" clip-rule="evenodd" d="M17.0836 9.81064C17.3521 10.2726 18.2809 9.8208 17.9163 9.1913C17.6486 8.72616 16.719 9.17798 17.0836 9.81064Z" fill="#FFF9E0"/>
<path fill-rule="evenodd" clip-rule="evenodd" d="M26.9821 20.404C26.7626 23.3914 24.4773 26.3417 21.1605 27.9222C17.5704 29.6311 13.7811 29.2927 11.0248 27.0147C8.94566 25.2981 7.82311 22.6479 8.02277 19.9249C8.18002 17.7794 9.14483 15.833 10.7394 14.4479C14.2402 11.4082 19.7366 11.171 23.5244 13.8954C26.6133 16.118 27.1098 18.6619 26.9821 20.404Z" fill="#DE92EB"/>
<path fill-rule="evenodd" clip-rule="evenodd" d="M7.02661 19.9358C6.79402 23.031 8.09705 26.0417 10.5118 27.9886C13.6489 30.516 17.9315 30.905 21.9688 29.0292C25.7162 27.2882 28.3023 23.9759 28.5566 20.5895C28.682 18.9211 28.3278 15.726 24.5475 13.073C20.2991 10.0914 14.1316 10.3532 10.2004 13.6838C8.338 15.2628 7.21105 17.4828 7.02661 19.9358ZM9.18929 20.1136C9.31952 18.3774 10.1001 16.6889 11.5661 15.4464C14.7959 12.7102 19.9084 12.5496 23.3389 14.9575C25.6764 16.597 26.5351 18.5374 26.3942 20.4117C25.9898 25.795 17.3411 30.6267 11.8364 26.1904C9.92935 24.6546 9.02156 22.3458 9.18929 20.1136Z" fill="#FFFFFE"/>
<path fill-rule="evenodd" clip-rule="evenodd" d="M14.0734 22.7787C14.2487 23.045 14.5533 23.0475 14.7639 22.91C14.9302 22.8009 15.1014 22.4868 14.9266 22.2221C14.7512 21.9558 14.4472 21.952 14.2366 22.0896C14.0696 22.1987 13.8986 22.5129 14.0734 22.7787Z" fill="#FFF9E0"/>
<path fill-rule="evenodd" clip-rule="evenodd" d="M13.073 18.779C13.2486 19.0449 13.5533 19.0477 13.7631 18.9096C13.9302 18.8008 14.1015 18.4873 13.9266 18.2215C13.7512 17.9556 13.4463 17.9525 13.2365 18.089C13.07 18.1994 12.8987 18.5128 13.073 18.779Z" fill="#FFF9E0"/>
<path fill-rule="evenodd" clip-rule="evenodd" d="M15.0059 18.4208C15.0142 18.4658 15.0221 18.5131 15.0292 18.5597C15.1109 19.0413 15.5347 19.0721 15.7819 18.9159C16.0984 18.7163 16.0519 18.2829 15.762 18.1073C15.72 18.082 15.6783 18.0567 15.6368 18.0311C15.5042 17.9523 14.9362 18.0029 15.0059 18.4208Z" fill="#FFF9E0"/>
<path fill-rule="evenodd" clip-rule="evenodd" d="M16.0368 21.2573C16.0293 21.2848 16.0215 21.3101 16.0144 21.3347C15.9767 21.458 16.0196 21.556 16.067 21.6483C16.0939 21.6999 16.1204 21.7481 16.1458 21.7991C16.4107 22.3088 17.3428 21.7481 16.8667 21.2321C16.7342 21.0882 16.626 21.0234 16.4629 21.0039C16.3178 20.9861 16.1096 21.0222 16.0368 21.2573Z" fill="#FFF9E0"/>
<mask id="mask2_0_974" style="mask-type:luminance" maskUnits="userSpaceOnUse" x="-57" y="21" width="80" height="91">
<path fill-rule="evenodd" clip-rule="evenodd" d="M-57 21H23V112H-57V21Z" fill="white"/>
</mask>
<g mask="url(#mask2_0_974)">
<path fill-rule="evenodd" clip-rule="evenodd" d="M22.1467 21.7791C22.4973 22.0443 23.1071 22.0481 23.5266 21.9095C23.8607 21.8013 24.2032 21.4865 23.8527 21.2212C23.5021 20.956 22.8935 20.9522 22.4731 21.0893C22.1396 21.199 21.7971 21.5123 22.1467 21.7791Z" fill="#FFF9E0"/>
</g>
<path fill-rule="evenodd" clip-rule="evenodd" d="M32.9731 53.4093C34.9927 55.6711 37.9132 56.3039 40.1759 55.8739C45.9257 54.7787 47.123 46.3239 40.532 42.9343C37.5964 41.4253 33.9485 41.6451 32.1349 44.3232C30.4631 46.792 30.5539 50.6991 32.9731 53.4093Z" fill="#0A1629"/>
<path fill-rule="evenodd" clip-rule="evenodd" d="M38.563 45.0177C38.4713 45.0491 38.3813 45.0816 38.2978 45.123C38.0883 45.2224 37.7482 45.9917 38.2978 45.9999C38.3895 46.0007 38.4771 45.9951 38.5647 45.985C38.8543 45.9506 39.0012 45.6205 39 45.4054C39 45.2395 38.8381 44.9217 38.563 45.0177Z" fill="#FFF9E0"/>
<path fill-rule="evenodd" clip-rule="evenodd" d="M38.6706 45C38.3825 45.0021 38.2865 45.1192 38.1224 45.2706C38.0255 45.3586 37.9303 45.5303 38.0717 45.6573C38.1328 45.714 38.2044 45.8212 38.2978 45.8972C38.7876 46.2812 39.0861 45.4835 38.9779 45.2373L38.9438 45.1629C38.9098 45.0843 38.7771 45 38.6706 45Z" fill="#FFF9E0"/>
<path fill-rule="evenodd" clip-rule="evenodd" d="M38.8545 47.1451C38.8328 47.1247 38.8111 47.1024 38.7885 47.0801C38.729 47.0333 38.6582 47.0064 38.5754 47.0001C38.5134 47.0001 38.4531 46.9996 38.3936 47.001C38.2013 47.0005 38.1161 47.1288 38.0742 47.2411C38.0067 47.4244 37.9664 47.5553 38.0372 47.7541C38.2552 48.3812 39.3991 47.6727 38.8545 47.1451Z" fill="#FFF9E0"/>
<path fill-rule="evenodd" clip-rule="evenodd" d="M38.8719 45.3139C38.8179 45.0946 38.6389 44.9039 38.3404 45.053C38.0613 45.1925 37.7945 45.7244 38.2303 45.9551C38.4209 46.0561 38.6324 45.9641 38.7726 45.9002C38.9251 45.8305 39.1416 45.4417 38.8719 45.3139Z" fill="#FFF9E0"/>
<path fill-rule="evenodd" clip-rule="evenodd" d="M35.4973 47.0135C34.9367 47.1174 34.7375 48.1276 35.5014 47.9865C36.0628 47.883 36.2637 46.8724 35.4973 47.0135Z" fill="#FFF9E0"/>
<path fill-rule="evenodd" clip-rule="evenodd" d="M31.5396 47.0148C31.0474 47.1503 30.7737 47.574 31.2409 47.9198C31.5267 48.1316 31.7649 47.8807 31.8526 47.6668C31.9448 47.5783 32 47.4688 32 47.3463C31.9992 47.2037 31.8299 46.9341 31.5396 47.0148Z" fill="#FFF9E0"/>
<path fill-rule="evenodd" clip-rule="evenodd" d="M32.5907 45.0367C32.1476 44.8076 31.7411 45.7191 32.206 45.9045C32.3277 45.9533 32.4276 45.9946 32.5554 45.9997C32.9183 46.0132 33.1447 45.5054 32.8939 45.2383C32.8048 45.1449 32.707 45.0961 32.5907 45.0367Z" fill="#FFF9E0"/>
<path fill-rule="evenodd" clip-rule="evenodd" d="M42.1279 38.5197C43.2813 39.8113 44.9503 40.1734 46.243 39.9282C49.5289 39.3018 50.2133 34.4711 46.4469 32.534C44.7692 31.6714 42.685 31.7975 41.6485 33.3276C40.6933 34.7377 40.7449 36.9707 42.1279 38.5197Z" fill="#0AC947"/>
<path fill-rule="evenodd" clip-rule="evenodd" d="M46.5623 32.0175C46.4713 32.048 46.3804 32.081 46.297 32.1219C46.0886 32.2226 45.7485 32.9919 46.297 32.9992C46.3889 33.0023 46.477 32.9962 46.5651 32.9852C46.855 32.9522 47.0019 32.6207 47 32.4058C47.0009 32.2397 46.8389 31.9222 46.5623 32.0175Z" fill="#FFF9E0"/>
<path fill-rule="evenodd" clip-rule="evenodd" d="M46.1532 33C46.1034 33.0017 46.0866 33.1198 46.0578 33.271C46.0412 33.3576 46.0251 33.5317 46.0494 33.6583C46.06 33.7152 46.0722 33.8205 46.0883 33.8978C46.1736 34.28 46.2259 33.485 46.207 33.2378L46.2008 33.1622C46.1949 33.0866 46.1718 33.0008 46.1532 33Z" fill="#FFF9E0"/>
<path fill-rule="evenodd" clip-rule="evenodd" d="M46.1909 34.1464C46.1864 34.1248 46.1822 34.1026 46.1783 34.081C46.1669 34.035 46.154 34.0075 46.1381 34.0016C46.1262 33.9994 46.1151 34.0001 46.1039 34.0001C46.0675 34.0016 46.0516 34.1293 46.0439 34.2429C46.0308 34.4226 46.0234 34.5562 46.0367 34.7544C46.0776 35.3811 46.2933 34.672 46.1909 34.1464Z" fill="#FFF9E0"/>
<path fill-rule="evenodd" clip-rule="evenodd" d="M46.2023 32.3141C46.1909 32.0934 46.153 31.9046 46.0901 32.0527C46.0313 32.1919 45.9751 32.7236 46.067 32.9561C46.1072 33.0553 46.1518 32.9642 46.1815 32.9005C46.2137 32.8309 46.2594 32.4422 46.2023 32.3141Z" fill="#FFF9E0"/>
<path fill-rule="evenodd" clip-rule="evenodd" d="M44.6701 36.0005C44.6463 35.9994 44.6217 36.0005 44.5989 36.001C44.2091 36.0049 44.0009 36.3297 44 36.6014C44.0027 36.8743 44.2711 37.0958 44.598 36.9577C44.6217 36.9483 44.6463 36.9384 44.6692 36.9268C44.9093 36.8252 45.2744 35.9933 44.6701 36.0005Z" fill="#FFF9E0"/>
<path fill-rule="evenodd" clip-rule="evenodd" d="M44.119 36.023C44.1059 36.0117 44.0938 36.0047 44.0764 36.0005C44.0491 35.992 44.0333 36.0999 44.0298 36.1781C44.0291 36.1816 44.0179 36.6639 44.0241 36.4721C44.0092 36.9381 44.124 37.2116 44.1944 36.7943C44.2147 36.6737 44.2221 36.5553 44.2254 36.4051C44.2298 36.1767 44.1758 35.9603 44.119 36.023Z" fill="#FFF9E0"/>
<path fill-rule="evenodd" clip-rule="evenodd" d="M45.1236 36.0135C45.0319 36.1171 44.9987 37.1275 45.1241 36.9865C45.216 36.8829 45.2493 35.8725 45.1236 36.0135Z" fill="#FFF9E0"/>
<path fill-rule="evenodd" clip-rule="evenodd" d="M44.1283 35.0065C44.1221 35.0112 44.1159 35.0187 44.1099 35.0271C44.0713 35.0906 44.0051 35.6416 44.0636 35.8377C44.0926 36.0516 44.1374 36.0395 44.1662 35.8863C44.1992 35.7098 44.2163 35.5436 44.2029 35.283C44.193 35.1027 44.1674 34.9683 44.1283 35.0065Z" fill="#FFF9E0"/>
<path fill-rule="evenodd" clip-rule="evenodd" d="M47.1482 36.0161C47.1341 36.0327 47.12 36.0494 47.1061 36.066C47.0439 36.1421 47.0097 36.3831 47.0102 36.6219C47.0102 36.8124 47.0427 37.0408 47.1061 36.9938C47.1205 36.982 47.1344 36.9702 47.1487 36.9619C47.2613 36.874 47.2734 35.861 47.1482 36.0161Z" fill="#FFF9E0"/>
<path fill-rule="evenodd" clip-rule="evenodd" d="M47.2153 36.2785C47.1902 36.1968 47.1912 36.0713 47.1528 36.0206C47.0757 35.9178 47.0237 36.221 47.015 36.4652C47.0145 36.4683 47.0145 36.4743 47.014 36.4781C47.0091 36.6112 47.0148 36.8811 47.0579 36.9613C47.0574 36.9651 47.0569 36.9689 47.0564 36.9719C47.0599 36.9742 47.0621 36.9719 47.0656 36.9742C47.0705 36.9802 47.0733 36.9953 47.0787 36.9984C47.0807 36.9961 47.0839 36.9991 47.0859 36.9999C47.0899 37.0014 47.0923 36.9893 47.0963 36.9878C47.0975 36.987 47.098 36.9863 47.099 36.9847C47.1236 36.9726 47.1414 36.9265 47.1568 36.8569C47.1627 36.8411 47.1684 36.8267 47.1756 36.8146C47.2131 36.7738 47.2641 36.4335 47.2153 36.2785Z" fill="#FFF9E0"/>
<path fill-rule="evenodd" clip-rule="evenodd" d="M45.1237 34.0135C45.0184 34.117 44.981 35.1276 45.1242 34.9865C45.2296 34.8836 45.2667 33.8724 45.1237 34.0135Z" fill="#FFF9E0"/>
<path fill-rule="evenodd" clip-rule="evenodd" d="M43.1319 34.0143C43.0327 34.1498 42.9782 34.5738 43.0721 34.9197C43.1294 35.132 43.1772 34.8797 43.1951 34.668C43.2136 34.5796 43.2248 34.4706 43.2243 34.3467C43.2243 34.2047 43.1901 33.935 43.1319 34.0143Z" fill="#FFF9E0"/>
<path fill-rule="evenodd" clip-rule="evenodd" d="M44.144 32.0373C44.0451 31.8058 43.9548 32.7189 44.0582 32.9041C44.085 32.9519 44.1083 32.9952 44.1365 32.9998C44.2173 33.0127 44.2677 32.5041 44.2119 32.2377C44.1916 32.1436 44.1705 32.095 44.144 32.0373Z" fill="#FFF9E0"/>
<path fill-rule="evenodd" clip-rule="evenodd" d="M0.951442 15.1166H0.95213L0.982626 15.0862L0.951442 15.1166ZM-0.474348 11.1857C-0.26362 11.0321 -0.004282 10.9634 0.248866 11.0193C0.449962 11.0637 0.633173 11.162 0.814091 11.2644C0.934703 11.3333 1.05646 11.3997 1.17616 11.4704C1.4387 11.6261 1.69552 11.7938 1.96862 11.9253C2.10368 11.9904 2.24378 12.0412 2.37861 12.1076C2.49349 12.164 2.60928 12.2166 2.72691 12.2658C2.79456 12.2903 2.86243 12.3131 2.9303 12.336C3.03005 12.3595 3.11833 12.4085 3.19514 12.4833C3.22908 12.5267 3.26302 12.5706 3.29673 12.6138C3.38042 12.7565 3.41 12.9324 3.37904 13.0991C3.32814 13.3707 3.09976 13.6127 2.84133 13.6109C2.73012 13.6101 2.61249 13.6055 2.50472 13.5696C2.40727 13.5369 2.31142 13.5001 2.2158 13.4623C2.09794 13.4161 1.9826 13.362 1.86795 13.3058C1.64278 13.1953 1.41279 13.1011 1.20138 12.9589C0.995467 12.8206 0.792766 12.6779 0.587313 12.539C0.488484 12.4721 0.389197 12.4057 0.292662 12.3358C0.218598 12.2827 0.145222 12.2301 0.0679474 12.1854L0.0674891 12.1872C0.0674891 12.2523 0.0716166 12.3166 0.0784955 12.3815C0.0906487 12.4333 0.104865 12.4843 0.122521 12.5346C0.223184 12.7348 0.347236 12.9191 0.479312 13.0947C0.70609 13.374 0.942269 13.6446 1.16607 13.9272C1.29493 14.0898 1.43848 14.255 1.53455 14.4464C1.59509 14.5682 1.65081 14.693 1.70125 14.8209C1.71822 14.8633 1.73359 14.9075 1.74597 14.9516C1.77211 15.0435 1.78724 15.1324 1.8026 15.2279C1.80902 15.2682 1.81705 15.3093 1.81567 15.3501C1.81338 15.4313 1.81109 15.5133 1.79412 15.5924C1.78816 15.6195 1.75629 15.74 1.73037 15.7856C1.69208 15.8533 1.65402 15.9189 1.60541 15.9779C1.56711 16.0243 1.49053 16.0989 1.4316 16.1308C1.34033 16.1806 1.25595 16.2309 1.15689 16.2549C1.06517 16.2776 0.961761 16.3008 0.865684 16.2967C0.690727 16.2898 0.505223 16.2773 0.33577 16.2201C0.206674 16.1767 0.0771198 16.1318 -0.0510592 16.0859C-0.235417 16.02 -0.412436 15.935 -0.584182 15.8364C-0.832285 15.6937 -1.0742 15.537 -1.31588 15.3815C-1.54426 15.2348 -1.77081 15.077 -2.01295 14.9601C-2.01318 15.055 -2.00607 15.148 -1.99369 15.2414C-1.96939 15.3458 -1.9421 15.4474 -1.90564 15.5475C-1.73137 15.9161 -1.50757 16.2531 -1.28745 16.5885C-1.10378 16.8678 -0.912312 17.1397 -0.737585 17.4261C-0.697686 17.4912 -0.657329 17.5563 -0.620183 17.6232C-0.538093 17.771 -0.445227 17.9267 -0.41152 18.0975C-0.381711 18.2494 -0.35213 18.4125 -0.38836 18.5672C-0.419774 18.701 -0.468615 18.847 -0.557813 18.9478C-0.665584 19.0693 -0.75868 19.1357 -0.896948 19.2049C-0.973305 19.2432 -1.05104 19.2679 -1.13359 19.2853C-1.21912 19.3032 -1.30946 19.3261 -1.39774 19.3277C-1.47226 19.3292 -1.54197 19.3221 -1.61764 19.3149C-1.7316 19.3042 -1.82882 19.2679 -1.93728 19.224C-2.01295 19.1931 -2.08564 19.1556 -2.15695 19.1135C-2.28467 19.0379 -2.41239 18.9583 -2.53324 18.8697C-2.702 18.7451 -2.86985 18.6198 -3.03196 18.4847C-3.12231 18.4099 -3.21311 18.3357 -3.30506 18.2637C-3.47497 18.1457 -3.64901 18.0457 -3.83428 17.9601L-3.92761 17.9344L-3.93357 17.9366L-3.96292 17.9581L-4.00626 18.0135L-4.01704 18.037L-4.02483 18.088C-4.02644 18.2047 -4.01681 18.3196 -4.00122 18.4347C-3.95811 18.6481 -3.89757 18.8523 -3.82053 19.0538C-3.76068 19.1834 -3.69625 19.3108 -3.62218 19.4311C-3.54124 19.5625 -3.45388 19.6866 -3.3633 19.8091C-3.2897 19.8962 -3.21586 19.9794 -3.13675 20.0608C-3.06154 20.1377 -2.98335 20.2107 -2.90631 20.2863C-2.69237 20.4958 -2.47774 20.7042 -2.26266 20.9125C-2.07441 21.0945 -2.0579 21.4243 -2.22185 21.6313C-2.38786 21.8414 -2.6793 21.8585 -2.86778 21.677C-3.1567 21.3983 -3.45112 21.1249 -3.73798 20.8428C-4.01933 20.5663 -4.26927 20.2475 -4.47908 19.9008C-4.56048 19.7657 -4.63386 19.6258 -4.69645 19.4793C-4.7751 19.296 -4.85077 19.1122 -4.89824 18.9151C-4.94502 18.7209 -4.98904 18.5174 -4.99798 18.3163C-5.00303 18.1935 -4.99844 18.0732 -4.98606 17.9509C-4.97139 17.8077 -4.94181 17.6581 -4.87302 17.5336C-4.76593 17.3403 -4.63752 17.154 -4.45844 17.036C-4.38002 16.9844 -4.29564 16.9331 -4.20827 16.904C-4.12366 16.8757 -4.03011 16.8512 -3.94114 16.8527C-3.79806 16.855 -3.65727 16.8729 -3.52106 16.9211C-3.41719 16.9579 -3.31331 16.9972 -3.21219 17.0424C-2.9258 17.1703 -2.66669 17.3541 -2.41171 17.5445C-2.2661 17.6525 -2.1182 17.7577 -1.96549 17.8527C-1.82493 17.9395 -1.68322 18.0286 -1.53486 18.0993C-1.58875 18.0117 -1.64447 17.9262 -1.69927 17.8414C-1.81942 17.6561 -1.94691 17.4766 -2.07142 17.2946C-2.30577 16.9518 -2.53897 16.6033 -2.72608 16.2255C-2.81459 16.0476 -2.89645 15.8594 -2.93566 15.66C-2.9595 15.5383 -2.98748 15.4142 -2.99413 15.2899C-3.00215 15.1492 -3.00055 15.0155 -2.98817 14.874C-2.98037 14.7844 -2.96547 14.6981 -2.94139 14.6119C-2.92419 14.5524 -2.90264 14.4704 -2.87489 14.4102C-2.84554 14.3461 -2.81115 14.2912 -2.77354 14.2312C-2.68687 14.0931 -2.55754 13.9829 -2.41515 13.9254C-2.317 13.8858 -2.20442 13.8555 -2.09894 13.8639C-1.982 13.8733 -1.86253 13.8812 -1.74903 13.9188C-1.58072 13.9726 -1.41471 14.0395 -1.25557 14.1215C-0.738731 14.387 -0.247111 14.7188 0.285095 14.9465C0.37544 14.981 0.465555 15.0152 0.556587 15.0446C0.611848 15.0619 0.667109 15.077 0.723059 15.0898C0.682473 15.0185 0.638906 14.9504 0.59144 14.8835C0.370853 14.619 0.139031 14.3673 -0.0843077 14.1062C-0.226244 13.9402 -0.36864 13.7692 -0.488564 13.5828C-0.625456 13.3704 -0.762349 13.1483 -0.846044 12.9025C-0.972617 12.5298 -0.996006 12.0693 -0.858884 11.6978C-0.781152 11.4865 -0.643342 11.3088 -0.474348 11.1857Z" fill="#434253"/>
</g>
</svg>
