<svg width="24" height="24" viewBox="0 0 24 24" fill="none" xmlns="http://www.w3.org/2000/svg">
<path fill-rule="evenodd" clip-rule="evenodd" d="M7 2C7 1.44772 7.44772 1 8 1C8.55228 1 9 1.44772 9 2V3H15V2C15 1.44772 15.4477 1 16 1C16.5523 1 17 1.44772 17 2V3C19.2091 3 21 4.79086 21 7V17C21 19.2091 19.2091 21 17 21H7C4.79086 21 3 19.2091 3 17V7C3 4.79086 4.79086 3 7 3V2ZM15 5C15 5.55228 15.4477 6 16 6C16.5523 6 17 5.55228 17 5L17.1493 5.00549C18.1841 5.08183 19 5.94564 19 7V8H5V7L5.00549 6.85074C5.08183 5.81588 5.94564 5 7 5C7 5.55228 7.44772 6 8 6C8.55228 6 9 5.55228 9 5H15Z" fill="#7D8592"/>
</svg>
