<svg width="24" height="24" viewBox="0 0 24 24" fill="none" xmlns="http://www.w3.org/2000/svg">
<path fill-rule="evenodd" clip-rule="evenodd" d="M12 20C16.4183 20 20 16.4183 20 12C20 7.58172 16.4183 4 12 4C7.58172 4 4 7.58172 4 12C4 16.4183 7.58172 20 12 20ZM12.9933 8.88338C12.9355 8.38604 12.5128 8 12 8C11.4477 8 11 8.44772 11 9V12.75L11.0072 12.8698C11.0498 13.2244 11.28 13.5333 11.6154 13.6731L14.6154 14.9231L14.7256 14.9617C15.2069 15.0997 15.7258 14.858 15.9231 14.3846L15.9617 14.2744C16.0997 13.7931 15.858 13.2742 15.3846 13.0769L13 12.083V9L12.9933 8.88338Z" fill="#7D8592"/>
</svg>
