<svg width="24" height="24" viewBox="0 0 24 24" fill="none" xmlns="http://www.w3.org/2000/svg">
<path fill-rule="evenodd" clip-rule="evenodd" d="M13.0422 2.63625C12.4023 2.2456 11.5977 2.2456 10.9578 2.63625L4.84886 6.36588C3.55931 7.15317 3.57488 9.03115 4.87731 9.79696L11.0092 13.4024C11.6364 13.7712 12.4142 13.7703 13.0405 13.4001L19.1338 9.79908C20.4328 9.03137 20.4462 7.15655 19.1584 6.37028L13.0422 2.63625ZM19.6031 11.4709C20.0832 11.198 20.6937 11.3661 20.9666 11.8462C21.2199 12.2921 21.0931 12.8503 20.6893 13.1463L20.5912 13.2097L13.9966 16.9572C13.1669 17.4329 12.1542 17.4657 11.2964 17.0535L11.115 16.9584L4.59824 13.207C4.11959 12.9314 3.95494 12.3201 4.23047 11.8414C4.48632 11.397 5.03175 11.2232 5.4916 11.4213L5.59602 11.4736L12.1094 15.2231C12.3497 15.3601 12.6428 15.377 12.8982 15.2725L13.0052 15.2202L19.6031 11.4709ZM19.5061 15.1307C19.9863 14.8579 20.5967 15.0259 20.8696 15.5061C21.123 15.952 20.9962 16.5102 20.5923 16.8061L20.4942 16.8696L13.8997 20.617C13.0699 21.0928 12.0572 21.1255 11.1994 20.7133L11.0181 20.6182L4.50128 16.8668C4.02264 16.5913 3.85798 15.9799 4.13351 15.5013C4.38936 15.0568 4.9348 14.8831 5.39464 15.0811L5.49907 15.1335L12.0125 18.8829C12.2527 19.02 12.5458 19.0369 12.8013 18.9323L12.9082 18.8801L19.5061 15.1307Z" fill="#7D8592"/>
</svg>
