<svg width="24" height="24" viewBox="0 0 24 24" fill="none" xmlns="http://www.w3.org/2000/svg">
<path fill-rule="evenodd" clip-rule="evenodd" d="M20.1064 18.696C20.5834 18.2445 20.5826 17.4848 20.1046 17.0343L14.232 11.5002L20.1046 5.96621C20.5826 5.51573 20.5834 4.75595 20.1064 4.30443L20.041 4.24251C19.601 3.82607 18.9125 3.82532 18.4716 4.2408L12.5 9.8681L6.52844 4.2408C6.08754 3.82532 5.39904 3.82607 4.95905 4.24251L4.89362 4.30444C4.41656 4.75595 4.41739 5.51573 4.89543 5.96621L10.768 11.5002L4.89543 17.0343C4.41739 17.4848 4.41656 18.2445 4.89362 18.696L4.95905 18.758C5.39904 19.1744 6.08754 19.1752 6.52844 18.7597L12.5 13.1324L18.4716 18.7597C18.9125 19.1752 19.601 19.1744 20.041 18.758L20.1064 18.696Z" fill="#0A1629"/>
</svg>
