<svg width="24" height="24" viewBox="0 0 24 24" fill="none" xmlns="http://www.w3.org/2000/svg">
<path fill-rule="evenodd" clip-rule="evenodd" d="M22 12C22 17.5228 17.5228 22 12 22C6.47715 22 2 17.5228 2 12C2 6.47715 6.47715 2 12 2C17.5228 2 22 6.47715 22 12ZM12 11C12.5128 11 12.9355 11.386 12.9933 11.8834L13 12V16C13 16.5523 12.5523 17 12 17C11.4872 17 11.0645 16.614 11.0067 16.1166L11 16V12C11 11.4477 11.4477 11 12 11ZM13.01 8C13.01 7.44772 12.5623 7 12.01 7L11.8834 7.00673C11.386 7.06449 11 7.48716 11 8C11 8.55228 11.4477 9 12 9L12.1266 8.99327C12.624 8.93551 13.01 8.51284 13.01 8Z" fill="#3F8CFF"/>
</svg>
