<svg width="24" height="24" viewBox="0 0 24 24" fill="none" xmlns="http://www.w3.org/2000/svg">
<path fill-rule="evenodd" clip-rule="evenodd" d="M14.027 8.03308C14.7517 10.4277 13.8183 13.0131 11.7294 14.3971C13.4634 15.0352 14.9621 16.1837 16.027 17.6906C16.19 17.9215 16.2104 18.2237 16.0801 18.4744C15.9497 18.725 15.6902 18.8823 15.4071 18.8823L1.75828 18.8829C1.47518 18.8829 1.21565 18.7256 1.08524 18.4749C0.954832 18.2243 0.975266 17.9221 1.13823 17.6912C2.20309 16.184 3.702 15.0353 5.43628 14.3971C3.34738 13.0131 2.41395 10.4277 3.13865 8.03308C3.86334 5.63846 6.07507 4 8.58282 4C11.0906 4 13.3023 5.63846 14.027 8.03308ZM21.4726 7.30772C22.6404 9.8439 21.7852 12.8506 19.456 14.3971C21.1901 15.0352 22.6888 16.1837 23.7536 17.6906C23.9166 17.9215 23.9371 18.2237 23.8067 18.4743C23.6763 18.725 23.4169 18.8823 23.1338 18.8823L18.8951 18.8829C18.6006 18.8829 18.3326 18.7128 18.208 18.4465C17.6254 17.2007 16.8052 16.0799 15.7931 15.1467C15.778 15.1327 15.7643 15.118 15.7506 15.1032C15.4859 14.8622 15.2093 14.6345 14.9219 14.4211C14.6069 14.1874 14.5228 13.7527 14.728 13.4189C16.2618 10.921 16.1176 7.74356 14.364 5.39396C14.2149 5.19423 14.174 4.93413 14.2545 4.69844C14.335 4.46275 14.5266 4.28168 14.7669 4.21426C17.4607 3.45957 20.3047 4.77155 21.4726 7.30772Z" fill="#7D8592"/>
</svg>
