<svg width="24" height="24" viewBox="0 0 24 24" fill="none" xmlns="http://www.w3.org/2000/svg">
<path fill-rule="evenodd" clip-rule="evenodd" d="M13.1169 2.00003H12.6169C11.1421 1.99628 9.68472 2.34146 8.36607 3.00752C5.15179 4.61395 3.11832 7.90212 3.11693 11.4997L3.12322 11.8681C3.16381 12.9716 3.39941 14.0594 3.81816 15.0806L3.92393 15.3251L3.2286 17.0032C2.91564 17.7583 2.92435 18.6084 3.25269 19.3569L3.32817 19.5163C4.04434 20.9218 5.74201 21.5409 7.20512 20.8991L8.80293 20.1971L9.03643 20.2989C10.1711 20.7642 11.3884 21.0033 12.6195 21.0001C16.2149 20.9987 19.5031 18.9652 21.1114 15.7472C21.7756 14.4323 22.1208 12.9749 22.117 11.4976L22.117 11.0001C21.8542 6.21065 18.1382 2.41086 13.4391 2.02002L13.1169 2.00003ZM12.6144 4.00003L13.0749 3.99911L13.0618 3.99851C16.8687 4.20861 19.9084 7.24834 20.1185 11.0552L20.117 11.5001C20.12 12.6651 19.8484 13.8117 19.3243 14.8493C18.0527 17.3936 15.4568 18.999 12.6165 19.0001C11.452 19.0031 10.3053 18.7316 9.26778 18.2075C9.0013 18.0729 8.68862 18.0644 8.41522 18.1843L6.40171 19.0676C5.89594 19.2894 5.30609 19.0593 5.08423 18.5535C4.97478 18.304 4.97188 18.0206 5.0762 17.7689L5.94073 15.683C6.05229 15.4138 6.0409 15.1094 5.90952 14.8493C5.38547 13.8117 5.11389 12.6651 5.11692 11.5027C5.11802 8.66029 6.7234 6.06436 9.26398 4.79462C10.3053 4.26867 11.4519 3.99707 12.6144 4.00003Z" fill="white"/>
</svg>
