<svg width="24" height="24" viewBox="0 0 24 24" fill="none" xmlns="http://www.w3.org/2000/svg">
<path fill-rule="evenodd" clip-rule="evenodd" d="M19.9934 1.88338C19.9357 1.38604 19.513 1 19.0002 1C18.4479 1 18.0002 1.44772 18.0002 2V4H16.0002L15.8835 4.00673C15.3862 4.06449 15.0002 4.48716 15.0002 5C15.0002 5.55228 15.4479 6 16.0002 6H18.0002V8L18.0069 8.11662C18.0646 8.61396 18.4873 9 19.0002 9C19.5524 9 20.0002 8.55228 20.0002 8V6H22.0002L22.1168 5.99327C22.6141 5.93551 23.0002 5.51284 23.0002 5C23.0002 4.44772 22.5524 4 22.0002 4H20.0002V2L19.9934 1.88338ZM16.2366 14.7888C18.5634 15.6891 20.5588 17.3215 21.8576 19.4854C22.1418 19.9589 21.9883 20.5732 21.5148 20.8574C21.0412 21.1416 20.4269 20.9882 20.1427 20.5146C18.468 17.7243 15.3643 16 12.0002 16C8.63601 16 5.53233 17.7242 3.85756 20.5145C3.57334 20.988 2.95905 21.1415 2.48552 20.8572C2.01198 20.573 1.85852 19.9587 2.14274 19.4852C3.48744 17.2448 5.57902 15.5742 8.01192 14.696C5.61045 13.0269 4.42829 10.0183 5.27005 7.1052C6.31427 3.49147 10.097 1.33006 13.8409 2.18722C14.3792 2.31048 14.7157 2.84683 14.5925 3.38518C14.4692 3.92353 13.9329 4.26004 13.3945 4.13678C10.6738 3.51386 7.93792 5.07709 7.19144 7.66041C6.4485 10.2315 7.93569 12.9196 10.582 13.7517C13.2415 14.5879 16.1032 13.2448 17.0661 10.7262C17.2633 10.2104 17.8414 9.95204 18.3572 10.1493C18.8731 10.3465 19.1314 10.9245 18.9342 11.4404C18.3936 12.8546 17.4316 13.9998 16.2366 14.7888Z" fill="#0A1629"/>
</svg>
