<svg width="24" height="24" viewBox="0 0 24 24" fill="none" xmlns="http://www.w3.org/2000/svg">
<path fill-rule="evenodd" clip-rule="evenodd" d="M11.5 3C6.80558 3 3 6.80558 3 11.5C3 16.1944 6.80558 20 11.5 20C13.4845 20 15.3102 19.3199 16.7567 18.18L17.1601 18.5742L20.2929 21.7071L20.3871 21.7903C20.7794 22.0953 21.3466 22.0676 21.7071 21.7071C22.0976 21.3166 22.0976 20.6834 21.7071 20.2929L18.5661 17.1518L18.1721 16.7668C19.3167 15.3187 20 13.4892 20 11.5C20 6.80558 16.1944 3 11.5 3ZM11.5 5C15.0899 5 18 7.91015 18 11.5C18 15.0899 15.0899 18 11.5 18C7.91015 18 5 15.0899 5 11.5C5 7.91015 7.91015 5 11.5 5Z" fill="#0A1629"/>
</svg>
