<svg width="464" height="196" viewBox="0 0 464 196" fill="none" xmlns="http://www.w3.org/2000/svg">
<rect opacity="0.100655" y="28" width="464" height="168" rx="24" fill="#3F8CFF"/>
<mask id="mask0_0_6755" style="mask-type:luminance" maskUnits="userSpaceOnUse" x="0" y="28" width="464" height="168">
<rect y="28" width="464" height="168" rx="24" fill="white"/>
</mask>
<g mask="url(#mask0_0_6755)">
<path fill-rule="evenodd" clip-rule="evenodd" d="M407.346 181.505C409.506 181.073 415.333 176.527 420.082 163.972C422.794 156.799 430.442 119.814 420.082 117.217C409.721 114.618 411.664 133.234 411.664 150.334C411.664 160.76 407.346 181.505 407.346 181.505Z" fill="#BFD9FF"/>
<path fill-rule="evenodd" clip-rule="evenodd" d="M402.598 183.237C408.047 182.872 406.915 127.606 407.346 114.618C407.779 101.631 410.369 53.144 403.03 45.3516C395.691 37.5592 388.137 44.4864 387.489 54.5511C387.181 59.3228 388.784 94.0551 389.647 104.012C390.511 113.969 391.59 136.481 392.453 150.768C393.317 165.054 396.122 183.67 402.598 183.237Z" fill="#BFD9FF"/>
<path fill-rule="evenodd" clip-rule="evenodd" d="M392.453 183.885C392.453 183.885 380.357 159.956 377.344 141.459C371.948 108.341 370.869 76.0888 378.208 76.5214C385.546 76.9555 386.077 109.427 386.41 123.278C387.272 159.21 395.691 181.721 395.691 181.721L392.453 183.885Z" fill="#BFD9FF"/>
<path fill-rule="evenodd" clip-rule="evenodd" d="M393.468 182.905L394.028 182.703C393.986 182.583 389.724 170.722 386.906 162.789C381.375 147.213 380.456 126.502 380.449 126.295L379.852 126.32C379.861 126.529 380.783 147.327 386.345 162.99C389.163 170.924 393.425 182.787 393.468 182.905Z" fill="#1B54AA"/>
<path fill-rule="evenodd" clip-rule="evenodd" d="M400.789 179.557H401.385C401.385 172.166 400.101 150.535 400.09 150.316L399.495 150.353C399.507 150.57 400.789 172.183 400.789 179.557Z" fill="#1B54AA"/>
<path fill-rule="evenodd" clip-rule="evenodd" d="M409.456 181.294C409.502 181.183 414.027 170.121 416.593 160.151C419.165 150.154 418.551 140.668 418.544 140.574L417.949 140.615C417.956 140.708 418.563 150.102 416.016 160C413.46 169.93 408.951 180.956 408.907 181.067L409.456 181.294Z" fill="#1B54AA"/>
<path fill-rule="evenodd" clip-rule="evenodd" d="M397.849 150.768C397.849 151.664 398.575 152.391 399.468 152.391C400.362 152.391 401.088 151.664 401.088 150.768C401.088 149.87 400.362 149.144 399.468 149.144C398.575 149.144 397.849 149.87 397.849 150.768Z" fill="#FFFFFE"/>
<path fill-rule="evenodd" clip-rule="evenodd" d="M416.629 140.81C416.629 141.707 417.353 142.434 418.247 142.434C419.142 142.434 419.866 141.707 419.866 140.81C419.866 139.914 419.142 139.187 418.247 139.187C417.353 139.187 416.629 139.914 416.629 140.81Z" fill="#FFFFFE"/>
<path fill-rule="evenodd" clip-rule="evenodd" d="M378.532 126.307C378.532 127.205 379.256 127.931 380.15 127.931C381.043 127.931 381.769 127.205 381.769 126.307C381.769 125.411 381.043 124.685 380.15 124.685C379.256 124.685 378.532 125.411 378.532 126.307Z" fill="#FFFFFE"/>
<mask id="mask1_0_6755" style="mask-type:luminance" maskUnits="userSpaceOnUse" x="389" y="176" width="26" height="33">
<path fill-rule="evenodd" clip-rule="evenodd" d="M414.036 176.527H389.002L393.365 208.714H409.674L414.036 176.527Z" fill="white"/>
</mask>
<g mask="url(#mask1_0_6755)">
<path fill-rule="evenodd" clip-rule="evenodd" d="M389.002 181.83H414.036V179.232H389.002V181.83Z" fill="#FADFDC"/>
</g>
<path fill-rule="evenodd" clip-rule="evenodd" d="M415 176H389L393.531 209H410.469L415 176Z" fill="#3F8CFF"/>
<mask id="mask2_0_6755" style="mask-type:luminance" maskUnits="userSpaceOnUse" x="389" y="176" width="26" height="33">
<path fill-rule="evenodd" clip-rule="evenodd" d="M415 176H389L393.531 209H410.469L415 176Z" fill="white"/>
</mask>
<g mask="url(#mask2_0_6755)">
<path fill-rule="evenodd" clip-rule="evenodd" d="M385 180.702H415V180.298H385V180.702Z" fill="#CFE0FF"/>
</g>
<path fill-rule="evenodd" clip-rule="evenodd" d="M45.562 214H46.438V154H45.562V214Z" fill="#233862"/>
<path fill-rule="evenodd" clip-rule="evenodd" d="M59.561 205H60.439V54H59.561V205Z" fill="#233862"/>
<path fill-rule="evenodd" clip-rule="evenodd" d="M52.562 213H53.438V102H52.562V213Z" fill="#233862"/>
<path fill-rule="evenodd" clip-rule="evenodd" d="M73.561 196H74.439V81H73.561V196Z" fill="#233862"/>
<path fill-rule="evenodd" clip-rule="evenodd" d="M66.562 206H67.438V51H66.562V206Z" fill="#233862"/>
<path fill-rule="evenodd" clip-rule="evenodd" d="M38 202C38 189.849 47.8506 180 60.0007 180C72.1509 180 82 189.849 82 202C82 214.151 72.1509 224 60.0007 224C47.8506 224 38 214.151 38 202Z" fill="#FDC748"/>
<path fill-rule="evenodd" clip-rule="evenodd" d="M45.7534 178H74.2451C75.767 178 77 179.633 77 181.647V187.354C77 189.367 75.767 191 74.2451 191H45.7534C44.2315 191 43 189.367 43 187.354V181.647C43 179.633 44.2315 178 45.7534 178Z" fill="#FDC748"/>
<path fill-rule="evenodd" clip-rule="evenodd" d="M43.158 185.909H76.869V185.252H43.158V185.909Z" fill="white" fill-opacity="0.757567"/>
<path fill-rule="evenodd" clip-rule="evenodd" d="M53.1887 49.7338C52.4697 52.5435 51.7192 55.3352 50.625 58.0284C50.9807 57.1884 51.3379 56.3483 51.6952 55.5083C51.6066 55.7127 51.5165 55.9186 51.428 56.1245C50.2452 58.858 49.5292 61.2573 50.3578 64.2549C51.0888 66.893 52.8644 69.1804 55.236 70.5621C57.6887 71.9885 60.6771 72.375 63.4165 71.6259C65.7956 70.9754 68.7375 69.1401 69.7612 66.7751C71.3898 63.0105 72.6476 59.3086 73.6608 55.3441C75.0868 49.7726 71.9031 43.9102 66.2474 42.3629C60.7537 40.8603 54.6146 44.1608 53.1887 49.7338Z" fill="#87B7FF"/>
<path fill-rule="evenodd" clip-rule="evenodd" d="M19.8189 149.007C21.8319 154.987 25.8385 160.012 30.5696 164.068C34.9221 167.798 42.1857 165.707 45.1695 161.368C48.6685 156.281 46.8114 150.487 42.4707 146.766C44.7687 148.737 42.3698 146.508 41.9318 145.999C41.5444 145.548 39.671 142.724 41.1955 145.139C40.1505 143.484 39.337 141.688 38.7135 139.835C36.8861 134.399 29.3315 132.719 24.6821 134.972C19.0485 137.703 17.996 143.586 19.8189 149.007Z" fill="#87B7FF"/>
<path fill-rule="evenodd" clip-rule="evenodd" d="M43.1943 108.015C43.1619 111.834 42.4268 115.537 41.7461 119.279C40.8754 124.076 40.7473 128.716 41.4647 133.562C42.3163 139.313 48.4995 142.936 53.8135 141.788C59.6137 140.534 62.7031 134.896 61.853 129.153C61.6718 127.808 61.632 127.603 61.7366 128.535C61.7248 127.771 61.7455 127.008 61.797 126.245C61.8854 124.341 62.2287 122.446 62.5528 120.574C63.201 116.819 63.9671 113.138 63.9995 109.308C64.0496 103.503 60.1131 98.3794 54.229 98.0176C48.7853 97.6815 43.2444 102.202 43.1943 108.015Z" fill="#87B7FF"/>
<path fill-rule="evenodd" clip-rule="evenodd" d="M71.353 87.6029C72.0871 89.0061 72.7967 90.4197 73.4803 91.8465C73.777 92.4672 74.0614 93.0938 74.3459 93.7204C73.046 90.8565 74.3474 93.7704 74.589 94.3646C75.658 96.9976 76.938 99.1039 79.5608 100.582C82.0582 101.99 85.103 102.369 87.894 101.631C93.1334 100.244 97.5959 94.1234 95.4487 88.834C93.8292 84.8464 92.0307 80.9265 90.0319 77.1021C87.3847 72.0393 80.0762 70.6419 75.2344 73.3704C69.914 76.3681 68.7058 82.5371 71.353 87.6029Z" fill="#87B7FF"/>
<path fill-rule="evenodd" clip-rule="evenodd" d="M77.5838 116.266C76.8481 117.443 76.058 118.579 75.2267 119.686C75.7696 118.966 76.3111 118.247 76.854 117.528C76.2669 118.295 75.6637 119.051 75.0486 119.796C73.2036 122.024 72 124.325 72 127.336C72 130.153 73.105 132.885 75.0486 134.876C76.9908 136.868 79.6569 138 82.4054 138C84.9641 138 88.0554 136.941 89.7636 134.876C91.8294 132.38 93.8319 129.791 95.5534 127.03C98.6109 122.127 96.5657 115.289 91.8206 112.44C86.7797 109.414 80.6309 111.377 77.5838 116.266Z" fill="#87B7FF"/>
<path fill-rule="evenodd" clip-rule="evenodd" d="M68.5238 166.96C70.9851 167.148 73.442 166.628 75.8676 166.288C74.936 166.415 74.003 166.543 73.0699 166.67C74.2098 166.52 75.3259 166.423 76.4762 166.482C82.2098 166.778 87 161.377 87 155.751C87 149.678 82.2039 145.314 76.4762 145.019C74.0223 144.893 71.5714 145.412 69.1518 145.746C70.0848 145.619 71.0179 145.491 71.9494 145.362C70.8006 145.508 69.6815 145.585 68.5238 145.496C62.7961 145.059 58 150.71 58 156.229C58 162.409 62.8065 166.523 68.5238 166.96Z" fill="#87B7FF"/>
<path fill-rule="evenodd" clip-rule="evenodd" d="M61 62C61 62.5522 60.5522 63 60 63C59.4478 63 59 62.5522 59 62C59 61.4478 59.4478 61 60 61C60.5522 61 61 61.4478 61 62Z" fill="#FFFFFE"/>
<path fill-rule="evenodd" clip-rule="evenodd" d="M76 82.9994C76 83.5519 75.5522 84 75 84C74.4478 84 74 83.5519 74 82.9994C74 82.4468 74.4478 82 75 82C75.5522 82 76 82.4468 76 82.9994Z" fill="#FFFFFE"/>
<path fill-rule="evenodd" clip-rule="evenodd" d="M61 115C61 115.552 60.5532 116 60.0006 116C59.4481 116 59 115.552 59 115C59 114.448 59.4481 114 60.0006 114C60.5532 114 61 114.448 61 115Z" fill="#FFFFFE"/>
<path fill-rule="evenodd" clip-rule="evenodd" d="M88 125C88 125.552 87.5522 126 87 126C86.4478 126 86 125.552 86 125C86 124.448 86.4478 124 87 124C87.5522 124 88 124.448 88 125Z" fill="#FFFFFE"/>
<path fill-rule="evenodd" clip-rule="evenodd" d="M81 157C81 157.552 80.5532 158 80.0006 158C79.4481 158 79 157.552 79 157C79 156.448 79.4481 156 80.0006 156C80.5532 156 81 156.448 81 157Z" fill="#FFFFFE"/>
<path fill-rule="evenodd" clip-rule="evenodd" d="M32.9831 150.818C33.0837 151.361 32.7248 151.883 32.1826 151.983C31.6392 152.084 31.1174 151.725 31.0169 151.182C30.9163 150.639 31.2752 150.117 31.8186 150.017C32.3621 149.916 32.8839 150.275 32.9831 150.818Z" fill="#FFFFFE"/>
</g>
<path fill-rule="evenodd" clip-rule="evenodd" d="M264.355 132.732L264.353 132.733C264.027 132.852 263.679 132.924 263.317 132.944C263.236 132.948 263.155 132.949 263.074 132.949C262.732 132.944 262.402 132.89 262.089 132.796C261.656 132.667 261.257 132.462 260.909 132.192C260.782 132.095 260.663 131.986 260.55 131.873C259.896 131.209 259.495 130.295 259.509 129.29C259.512 129.028 259.545 128.774 259.602 128.528C259.629 128.409 259.659 128.292 259.698 128.178C260.187 126.734 261.561 125.703 263.167 125.724C264.321 125.738 265.343 126.294 265.992 127.144C266.467 127.766 266.744 128.542 266.734 129.383C266.714 130.928 265.727 132.234 264.355 132.732ZM266.971 126.437C266.104 125.288 264.734 124.537 263.183 124.519C261.041 124.49 259.207 125.865 258.556 127.791C258.398 128.257 258.31 128.755 258.303 129.274C258.295 129.879 258.401 130.458 258.597 130.994C258.91 131.852 259.461 132.596 260.17 133.146C260.876 133.693 261.737 134.049 262.679 134.134C262.804 134.144 262.931 134.153 263.059 134.154C263.139 134.155 263.219 134.152 263.298 134.149C263.325 134.148 263.354 134.149 263.382 134.148C263.865 134.122 264.33 134.024 264.767 133.866C266.596 133.202 267.912 131.46 267.94 129.398C267.954 128.288 267.591 127.261 266.971 126.437Z" fill="#4DA8F2"/>
<path fill-rule="evenodd" clip-rule="evenodd" d="M101 195.985H367.961V191.105H101V195.985Z" fill="#FDC748"/>
<path fill-rule="evenodd" clip-rule="evenodd" d="M219.736 41.0933C219.736 41.0933 195.922 63.7543 207.506 81.3983C219.091 99.0433 224.512 83.5883 224.512 83.5883C224.512 83.5883 232.347 85.9533 220.718 64.1983C215.237 53.9443 219.736 41.0933 219.736 41.0933Z" fill="#BBD070"/>
<path fill-rule="evenodd" clip-rule="evenodd" d="M175.704 16.5243C175.704 16.5243 157.513 37.9023 181.834 67.5073C206.155 97.1123 202.385 112.761 202.385 112.761C202.385 112.761 236.241 61.2903 175.704 16.5243Z" fill="#C3DBFF"/>
<path fill-rule="evenodd" clip-rule="evenodd" d="M207.869 103.824C219.187 106.112 210.029 73.2033 193.057 63.1703C176.085 53.1363 160.901 52.1583 151.394 42.4963C151.394 42.4963 152.135 92.5533 207.869 103.824Z" fill="#92BEFF"/>
<path fill-rule="evenodd" clip-rule="evenodd" d="M256.97 47.5523C256.97 47.5523 268.425 13.9593 246.566 3.54532C224.706 -6.86968 206.147 8.18532 202.641 16.3313C199.135 24.4773 200.063 39.2893 203.053 49.6183C206.043 59.9463 205.608 75.6703 199.112 80.9293C192.616 86.1873 184.562 94.9213 184.96 112.699C185.208 123.728 228.361 84.4863 228.361 84.4863L256.97 47.5523Z" fill="#233862"/>
<path fill-rule="evenodd" clip-rule="evenodd" d="M226.256 87.5124C226.256 87.5124 208.289 91.4944 201.157 95.6624C194.027 99.8294 178.19 119 178.19 127.243C178.19 135.486 247.447 143.186 247.447 143.186L260.574 191.111C260.574 191.111 295.58 182.569 299.747 175.484C303.915 168.399 286.452 117.624 283.463 107.348C280.414 96.8654 267.867 89.5564 253.281 87.5124C238.695 85.4694 226.256 87.5124 226.256 87.5124Z" fill="#FFD779"/>
<path fill-rule="evenodd" clip-rule="evenodd" d="M252.035 87.3474C252.035 87.3474 251.632 109.184 234.313 109.832C216.994 110.479 220.6 88.8874 220.6 88.8874C220.6 88.8874 233.267 83.7554 252.035 87.3474Z" fill="#FFB27D"/>
<path fill-rule="evenodd" clip-rule="evenodd" d="M259.362 21.4513C259.362 21.4513 265.488 56.5733 248.042 81.9443C229.974 108.22 259.362 21.4513 259.362 21.4513Z" fill="#233862"/>
<path fill-rule="evenodd" clip-rule="evenodd" d="M248.319 71.9073C248.319 71.9073 247.114 82.3523 249.125 88.8493C251.136 95.3453 222.645 95.5243 222.66 90.1833C222.679 84.1153 225.575 79.0463 222.847 68.6453C220.118 58.2443 248.319 71.9073 248.319 71.9073Z" fill="#FFB27D"/>
<path fill-rule="evenodd" clip-rule="evenodd" d="M226.218 73.2393C226.218 73.2393 235.214 82.6113 246.717 74.2173C246.717 74.2173 245.767 80.2073 237.493 80.9803C229.22 81.7543 226.218 73.2393 226.218 73.2393Z" fill="#ED975D"/>
<path fill-rule="evenodd" clip-rule="evenodd" d="M237.484 9.27335C237.484 9.27335 260.218 16.0014 256.97 47.5524C253.722 79.1024 238.875 77.4773 237.484 77.7104C236.091 77.9414 218.46 79.1024 212.893 40.8244C207.325 2.54635 237.484 9.27335 237.484 9.27335Z" fill="#FFB27D"/>
<path fill-rule="evenodd" clip-rule="evenodd" d="M231.614 23.3424C231.614 23.3424 243.968 42.9934 256.97 47.5524C256.97 47.5524 264.07 14.5784 234.747 7.66937C205.425 0.761372 210.018 40.9744 212.206 51.6974C212.206 51.6974 218.314 35.9214 231.614 23.3424Z" fill="#233862"/>
<path fill-rule="evenodd" clip-rule="evenodd" d="M215.045 20.3824C215.045 20.3824 221.548 7.78936 232.528 7.22636C243.509 6.66436 250.039 16.1894 250.039 16.1894C250.039 16.1894 245.752 5.46436 232.542 5.46436C219.332 5.46436 215.045 20.3824 215.045 20.3824Z" fill="#88C0FF"/>
<path fill-rule="evenodd" clip-rule="evenodd" d="M267.458 191.105H165.983L158.273 119.427H259.748L267.458 191.105Z" fill="#3F8CFF"/>
<path fill-rule="evenodd" clip-rule="evenodd" d="M163.445 187.762H264.03L256.416 116.967H155.83L163.445 187.762ZM265.016 188.645H162.651L154.846 116.082H257.211L265.016 188.645Z" fill="#3F8CFF"/>
<path fill-rule="evenodd" clip-rule="evenodd" d="M219.161 154.107C220.072 158.566 217.992 162.758 214.515 163.469C211.038 164.179 207.481 161.141 206.57 156.682C205.658 152.222 207.738 148.031 211.215 147.32C214.693 146.61 218.249 149.648 219.161 154.107Z" fill="#CAE0FF"/>
<path fill-rule="evenodd" clip-rule="evenodd" d="M257.865 191.105H276.801V183.9H257.865V191.105Z" fill="#3F8CFF"/>
</svg>
