<svg width="24" height="24" viewBox="0 0 24 24" fill="none" xmlns="http://www.w3.org/2000/svg">
<path fill-rule="evenodd" clip-rule="evenodd" d="M16.3933 1.88338C16.3355 1.38604 15.9128 1 15.4 1C14.8477 1 14.4 1.44772 14.4 2V3H9.4V2L9.39327 1.88338C9.33551 1.38604 8.91284 1 8.4 1C7.84772 1 7.4 1.44772 7.4 2V3H7C4.79086 3 3 4.79086 3 7V17C3 19.2091 4.79086 21 7 21H17C19.2091 21 21 19.2091 21 17V7C21 4.79086 19.2091 3 17 3H16.4V2L16.3933 1.88338ZM7.40673 5.11662L7.4 5H7C5.89543 5 5 5.89543 5 7V7.5H19V7C19 5.89543 18.1046 5 17 5H16.4C16.4 5.55228 15.9523 6 15.4 6C14.8872 6 14.4645 5.61396 14.4067 5.11662L14.4 5H9.4C9.4 5.55228 8.95228 6 8.4 6C7.88716 6 7.46449 5.61396 7.40673 5.11662ZM19 9.5H5V17C5 18.1046 5.89543 19 7 19H17C18.1046 19 19 18.1046 19 17V9.5Z" fill="#7D8592"/>
</svg>
