<svg width="464" height="192" viewBox="0 0 464 192" fill="none" xmlns="http://www.w3.org/2000/svg">
<rect opacity="0.100655" y="24" width="464" height="168" rx="24" fill="#3F8CFF"/>
<mask id="mask0_0_2831" style="mask-type:luminance" maskUnits="userSpaceOnUse" x="0" y="24" width="464" height="168">
<rect y="24" width="464" height="168" rx="24" fill="white"/>
</mask>
<g mask="url(#mask0_0_2831)">
<path fill-rule="evenodd" clip-rule="evenodd" d="M407.346 177.505C409.506 177.073 415.333 172.527 420.082 159.972C422.794 152.799 430.442 115.814 420.082 113.217C409.721 110.618 411.664 129.234 411.664 146.334C411.664 156.76 407.346 177.505 407.346 177.505Z" fill="#BFD9FF"/>
<path fill-rule="evenodd" clip-rule="evenodd" d="M402.598 179.237C408.047 178.872 406.915 123.606 407.346 110.618C407.779 97.6305 410.369 49.144 403.03 41.3516C395.691 33.5592 388.137 40.4864 387.489 50.5511C387.181 55.3228 388.784 90.0551 389.647 100.012C390.511 109.969 391.59 132.481 392.453 146.768C393.317 161.054 396.122 179.67 402.598 179.237Z" fill="#BFD9FF"/>
<path fill-rule="evenodd" clip-rule="evenodd" d="M392.453 179.885C392.453 179.885 380.357 155.955 377.344 137.459C371.948 104.34 370.869 72.0883 378.208 72.5209C385.546 72.955 386.077 105.427 386.41 119.277C387.272 155.21 395.691 177.72 395.691 177.72L392.453 179.885Z" fill="#BFD9FF"/>
<path fill-rule="evenodd" clip-rule="evenodd" d="M393.468 178.905L394.028 178.702C393.986 178.583 389.724 166.721 386.906 158.789C381.375 143.213 380.456 122.502 380.449 122.295L379.852 122.32C379.861 122.528 380.783 143.326 386.345 158.989C389.163 166.924 393.425 178.786 393.468 178.905Z" fill="#1B54AA"/>
<path fill-rule="evenodd" clip-rule="evenodd" d="M400.789 175.557H401.385C401.385 168.166 400.101 146.535 400.09 146.316L399.495 146.353C399.507 146.57 400.789 168.183 400.789 175.557Z" fill="#1B54AA"/>
<path fill-rule="evenodd" clip-rule="evenodd" d="M409.456 177.294C409.502 177.183 414.027 166.12 416.593 156.15C419.165 146.154 418.551 136.668 418.544 136.573L417.949 136.615C417.956 136.708 418.563 146.102 416.016 156C413.46 165.93 408.951 176.956 408.907 177.066L409.456 177.294Z" fill="#1B54AA"/>
<path fill-rule="evenodd" clip-rule="evenodd" d="M397.849 146.769C397.849 147.665 398.575 148.391 399.468 148.391C400.362 148.391 401.088 147.665 401.088 146.769C401.088 145.871 400.362 145.145 399.468 145.145C398.575 145.145 397.849 145.871 397.849 146.769Z" fill="#FFFFFE"/>
<path fill-rule="evenodd" clip-rule="evenodd" d="M416.629 136.81C416.629 137.708 417.353 138.434 418.247 138.434C419.142 138.434 419.866 137.708 419.866 136.81C419.866 135.914 419.142 135.188 418.247 135.188C417.353 135.188 416.629 135.914 416.629 136.81Z" fill="#FFFFFE"/>
<path fill-rule="evenodd" clip-rule="evenodd" d="M378.532 122.307C378.532 123.205 379.256 123.931 380.15 123.931C381.043 123.931 381.769 123.205 381.769 122.307C381.769 121.411 381.043 120.685 380.15 120.685C379.256 120.685 378.532 121.411 378.532 122.307Z" fill="#FFFFFE"/>
<mask id="mask1_0_2831" style="mask-type:luminance" maskUnits="userSpaceOnUse" x="389" y="172" width="26" height="33">
<path fill-rule="evenodd" clip-rule="evenodd" d="M414.036 172.526H389.002L393.365 204.713H409.674L414.036 172.526Z" fill="white"/>
</mask>
<g mask="url(#mask1_0_2831)">
<path fill-rule="evenodd" clip-rule="evenodd" d="M389.002 177.83H414.036V175.231H389.002V177.83Z" fill="#FADFDC"/>
</g>
<path fill-rule="evenodd" clip-rule="evenodd" d="M415 172H389L393.531 205H410.469L415 172Z" fill="#3F8CFF"/>
<mask id="mask2_0_2831" style="mask-type:luminance" maskUnits="userSpaceOnUse" x="389" y="172" width="26" height="33">
<path fill-rule="evenodd" clip-rule="evenodd" d="M415 172H389L393.531 205H410.469L415 172Z" fill="white"/>
</mask>
<g mask="url(#mask2_0_2831)">
<path fill-rule="evenodd" clip-rule="evenodd" d="M385 176.702H415V176.298H385V176.702Z" fill="#CFE0FF"/>
</g>
<path fill-rule="evenodd" clip-rule="evenodd" d="M45.562 210H46.438V150H45.562V210Z" fill="#233862"/>
<path fill-rule="evenodd" clip-rule="evenodd" d="M59.561 201H60.439V50H59.561V201Z" fill="#233862"/>
<path fill-rule="evenodd" clip-rule="evenodd" d="M52.562 209H53.438V98H52.562V209Z" fill="#233862"/>
<path fill-rule="evenodd" clip-rule="evenodd" d="M73.561 192H74.439V77H73.561V192Z" fill="#233862"/>
<path fill-rule="evenodd" clip-rule="evenodd" d="M66.562 202H67.438V47H66.562V202Z" fill="#233862"/>
<path fill-rule="evenodd" clip-rule="evenodd" d="M38 198C38 185.849 47.8506 176 60.0007 176C72.1509 176 82 185.849 82 198C82 210.151 72.1509 220 60.0007 220C47.8506 220 38 210.151 38 198Z" fill="#FDC748"/>
<path fill-rule="evenodd" clip-rule="evenodd" d="M45.7534 174H74.2451C75.767 174 77 175.633 77 177.647V183.354C77 185.367 75.767 187 74.2451 187H45.7534C44.2315 187 43 185.367 43 183.354V177.647C43 175.633 44.2315 174 45.7534 174Z" fill="#FDC748"/>
<path fill-rule="evenodd" clip-rule="evenodd" d="M43.158 181.909H76.869V181.252H43.158V181.909Z" fill="white" fill-opacity="0.757567"/>
<path fill-rule="evenodd" clip-rule="evenodd" d="M53.1887 45.7338C52.4697 48.5435 51.7192 51.3352 50.625 54.0284C50.9807 53.1884 51.3379 52.3483 51.6952 51.5083C51.6066 51.7127 51.5165 51.9186 51.428 52.1245C50.2452 54.858 49.5292 57.2573 50.3578 60.2549C51.0888 62.893 52.8644 65.1804 55.236 66.5621C57.6887 67.9885 60.6771 68.375 63.4165 67.6259C65.7956 66.9754 68.7375 65.1401 69.7612 62.7751C71.3898 59.0105 72.6476 55.3086 73.6608 51.3441C75.0868 45.7726 71.9031 39.9102 66.2474 38.3629C60.7537 36.8603 54.6146 40.1608 53.1887 45.7338Z" fill="#87B7FF"/>
<path fill-rule="evenodd" clip-rule="evenodd" d="M19.8189 145.007C21.8319 150.987 25.8385 156.012 30.5696 160.068C34.9221 163.798 42.1857 161.707 45.1695 157.368C48.6685 152.281 46.8114 146.487 42.4707 142.766C44.7687 144.737 42.3698 142.508 41.9318 141.999C41.5444 141.548 39.671 138.724 41.1955 141.139C40.1505 139.484 39.337 137.688 38.7135 135.835C36.8861 130.399 29.3315 128.719 24.6821 130.972C19.0485 133.703 17.996 139.586 19.8189 145.007Z" fill="#87B7FF"/>
<path fill-rule="evenodd" clip-rule="evenodd" d="M43.1943 104.015C43.1619 107.834 42.4268 111.537 41.7461 115.279C40.8754 120.076 40.7473 124.716 41.4647 129.562C42.3163 135.313 48.4995 138.936 53.8135 137.788C59.6137 136.534 62.7031 130.896 61.853 125.153C61.6718 123.808 61.632 123.603 61.7366 124.535C61.7248 123.771 61.7455 123.008 61.797 122.245C61.8854 120.341 62.2287 118.446 62.5528 116.574C63.201 112.819 63.9671 109.138 63.9995 105.308C64.0496 99.503 60.1131 94.3794 54.229 94.0176C48.7853 93.6815 43.2444 98.2021 43.1943 104.015Z" fill="#87B7FF"/>
<path fill-rule="evenodd" clip-rule="evenodd" d="M71.353 83.6029C72.0871 85.0061 72.7967 86.4197 73.4803 87.8465C73.777 88.4672 74.0614 89.0938 74.3459 89.7204C73.046 86.8565 74.3474 89.7704 74.589 90.3646C75.658 92.9976 76.938 95.1039 79.5608 96.5822C82.0582 97.9898 85.103 98.3693 87.894 97.6309C93.1334 96.2438 97.5959 90.1234 95.4487 84.834C93.8292 80.8464 92.0307 76.9265 90.0319 73.1021C87.3847 68.0393 80.0762 66.6419 75.2344 69.3704C69.914 72.3681 68.7058 78.5371 71.353 83.6029Z" fill="#87B7FF"/>
<path fill-rule="evenodd" clip-rule="evenodd" d="M77.5838 112.266C76.8481 113.443 76.058 114.579 75.2267 115.686C75.7696 114.966 76.3111 114.247 76.854 113.528C76.2669 114.295 75.6637 115.051 75.0486 115.796C73.2036 118.024 72 120.325 72 123.336C72 126.153 73.105 128.885 75.0486 130.876C76.9908 132.868 79.6569 134 82.4054 134C84.9641 134 88.0554 132.941 89.7636 130.876C91.8294 128.38 93.8319 125.791 95.5534 123.03C98.6109 118.127 96.5657 111.289 91.8206 108.44C86.7797 105.414 80.6309 107.377 77.5838 112.266Z" fill="#87B7FF"/>
<path fill-rule="evenodd" clip-rule="evenodd" d="M68.5238 162.96C70.9851 163.148 73.442 162.628 75.8676 162.288C74.936 162.415 74.003 162.543 73.0699 162.67C74.2098 162.52 75.3259 162.423 76.4762 162.482C82.2098 162.778 87 157.377 87 151.751C87 145.678 82.2039 141.314 76.4762 141.019C74.0223 140.893 71.5714 141.412 69.1518 141.746C70.0848 141.619 71.0179 141.491 71.9494 141.362C70.8006 141.508 69.6815 141.585 68.5238 141.496C62.7961 141.059 58 146.71 58 152.229C58 158.409 62.8065 162.523 68.5238 162.96Z" fill="#87B7FF"/>
<path fill-rule="evenodd" clip-rule="evenodd" d="M61 58C61 58.5522 60.5522 59 60 59C59.4478 59 59 58.5522 59 58C59 57.4478 59.4478 57 60 57C60.5522 57 61 57.4478 61 58Z" fill="#FFFFFE"/>
<path fill-rule="evenodd" clip-rule="evenodd" d="M76 78.9994C76 79.5519 75.5522 80 75 80C74.4478 80 74 79.5519 74 78.9994C74 78.4468 74.4478 78 75 78C75.5522 78 76 78.4468 76 78.9994Z" fill="#FFFFFE"/>
<path fill-rule="evenodd" clip-rule="evenodd" d="M61 111C61 111.552 60.5532 112 60.0006 112C59.4481 112 59 111.552 59 111C59 110.448 59.4481 110 60.0006 110C60.5532 110 61 110.448 61 111Z" fill="#FFFFFE"/>
<path fill-rule="evenodd" clip-rule="evenodd" d="M88 121C88 121.552 87.5522 122 87 122C86.4478 122 86 121.552 86 121C86 120.448 86.4478 120 87 120C87.5522 120 88 120.448 88 121Z" fill="#FFFFFE"/>
<path fill-rule="evenodd" clip-rule="evenodd" d="M81 153C81 153.552 80.5532 154 80.0006 154C79.4481 154 79 153.552 79 153C79 152.448 79.4481 152 80.0006 152C80.5532 152 81 152.448 81 153Z" fill="#FFFFFE"/>
<path fill-rule="evenodd" clip-rule="evenodd" d="M32.9831 146.818C33.0837 147.361 32.7248 147.883 32.1826 147.983C31.6392 148.084 31.1174 147.725 31.0169 147.182C30.9163 146.639 31.2752 146.117 31.8186 146.017C32.3621 145.916 32.8839 146.275 32.9831 146.818Z" fill="#FFFFFE"/>
</g>
<path fill-rule="evenodd" clip-rule="evenodd" d="M139.85 182.863V146.345C139.85 139.921 152.882 134.71 168.949 134.71H234.751C250.824 134.71 263.85 139.921 263.85 146.345V184.258L139.85 182.863Z" fill="#B0D4FF"/>
<path fill-rule="evenodd" clip-rule="evenodd" d="M231.921 5.11229C224.143 1.01453 212.305 0.460534 210.385 0.201663C187.375 -2.89913 173.526 30.6312 172.712 40.7935C171.21 59.5206 161.331 62.3756 147.432 74.1013C119.553 97.6206 127.726 124.947 142.97 135.098C152.12 141.193 168.239 135.098 168.239 135.098C168.465 135.256 212.328 110.508 233.948 98.5666C266.362 93.9443 251.74 15.5521 231.921 5.11229Z" fill="#233862"/>
<path fill-rule="evenodd" clip-rule="evenodd" d="M198.198 88.5255C191.399 85.5653 186.255 74.564 186.351 74.5584C189.444 74.4185 193.996 70.1044 196.61 52.6455L197.2 53.0609L218.9 62.6058C218.9 62.6058 217.297 69.5949 216.257 76.2483C215.387 81.8385 214.915 87.1937 216.126 87.9827C216.223 88.0443 205.417 91.6703 198.198 88.5255Z" fill="#FFB27D"/>
<path fill-rule="evenodd" clip-rule="evenodd" d="M218.9 62.1043C218.9 62.1043 217.328 69.1569 216.308 75.8708C203.844 73.6008 198.95 61.0201 197.2 54.1934L218.9 62.1043Z" fill="#ED975D"/>
<path fill-rule="evenodd" clip-rule="evenodd" d="M195.836 45.506C198.669 26.9131 196.653 13.8699 216.2 15.6449C235.747 17.4256 238.432 25.0762 239.02 31.5079C239.608 37.9397 231.417 68.6827 223.432 68.121C223.432 68.121 193.003 64.099 195.836 45.506Z" fill="#FFB27D"/>
<path fill-rule="evenodd" clip-rule="evenodd" d="M205.669 41.5373C192.778 42.9075 187.9 38.6001 187.9 38.6001C187.9 38.6001 195.495 32.0379 200.068 21.4457C201.413 18.3236 204.772 15.7787 208.05 15.4839C217.251 14.6571 234.183 14.6869 237.5 23.1803C237.5 23.1803 218.553 40.167 205.669 41.5373Z" fill="#233862"/>
<path fill-rule="evenodd" clip-rule="evenodd" d="M233.543 31.5894C235.49 36.085 236.499 47.0219 234.945 51.2898C234.945 51.2898 244.53 31.4301 238.862 21.8756C232.856 11.7407 225.1 20.6578 225.1 20.6578C225.1 20.6578 231.517 26.9345 233.543 31.5894Z" fill="#233862"/>
<path fill-rule="evenodd" clip-rule="evenodd" d="M235.249 186.05C233.642 187.421 229.137 188.241 223.211 188.625C204.566 189.852 171.797 186.813 170.551 183.407C166.249 171.621 169.288 167.958 165.702 149.911C165.324 147.993 164.862 145.913 164.321 143.649C161.327 131.256 158.418 127.041 169.029 107.126C178.653 89.0895 187.919 73.806 188.821 74.3356C214.21 89.2384 216.075 78.3511 216.075 78.3511C216.075 78.3511 242.59 103.463 242.144 132.789C241.237 192.907 241.896 180.341 235.249 186.05Z" fill="white"/>
<path fill-rule="evenodd" clip-rule="evenodd" d="M172.373 183.426C168.03 171.457 169.82 166.163 166.2 147.836L176.114 123.871C176.114 123.871 174.617 152.186 183.007 159.631C191.397 167.077 217.376 174.007 221.457 180.229C223.427 183.219 224.724 186.208 225.1 188.614C206.276 189.86 173.631 186.885 172.373 183.426Z" fill="#EBF3FF"/>
<path fill-rule="evenodd" clip-rule="evenodd" d="M201.85 176.539C201.85 176.539 220.235 172.053 223.199 173.839C226.164 175.631 233.411 182.143 234.324 184.411C235.232 186.679 227.719 182.687 225.273 181.97C223.695 181.507 219.524 183.089 217.467 183.842C208.788 187.018 203.473 185.387 203.473 185.387L201.85 176.539Z" fill="#FFB27D"/>
<path fill-rule="evenodd" clip-rule="evenodd" d="M156.722 86.6927C144.759 103.271 121.035 173.916 134.634 183.344C149.948 193.952 204.32 186.117 204.32 186.117C204.32 186.117 206.13 177.714 203.614 173.643C201.093 169.578 160.184 163.012 158.296 161.135C156.408 159.259 181.896 124.538 181.896 118.908C181.896 113.278 188.821 74.3223 188.821 74.3223C188.821 74.3223 165.216 74.9149 156.722 86.6927Z" fill="white"/>
<path fill-rule="evenodd" clip-rule="evenodd" d="M223.55 179.613C223.55 179.613 227.698 184.724 229.059 185.333C230.419 185.941 231.3 185.79 231.3 185.79L228.506 180.987L223.55 179.613Z" fill="#FFB27D"/>
<path fill-rule="evenodd" clip-rule="evenodd" d="M222 174.968L234.4 180.438C234.4 180.438 233.87 181.22 232.347 181.158C230.818 181.095 226.967 179.814 226.967 179.814L222 174.968Z" fill="#FFB27D"/>
<path fill-rule="evenodd" clip-rule="evenodd" d="M229.75 192H317.923L344.45 125.419H256.411L229.75 192Z" fill="#FDC748"/>
<path fill-rule="evenodd" clip-rule="evenodd" d="M318.1 188.903H201.85V192H317.069L318.1 188.903Z" fill="#E6B137"/>
<path fill-rule="evenodd" clip-rule="evenodd" d="M294.668 158.707C295.378 156.571 293.951 154.839 291.479 154.839C289.014 154.839 286.44 156.571 285.73 158.707C285.025 160.843 286.452 162.581 288.918 162.581C291.39 162.581 293.963 160.843 294.668 158.707Z" fill="white"/>
</svg>
