<svg width="44" height="44" viewBox="0 0 44 44" fill="none" xmlns="http://www.w3.org/2000/svg">
<path d="M29.5175 12.8882H12.6628C10.2288 12.8882 8.25606 14.8614 8.25606 17.295V40.1818C6.90777 40.9612 5.2931 41.1342 3.81055 40.6578L3.84928 40.5399V13.7696C3.84928 11.3359 5.822 9.36279 8.25606 9.36279H25.9921C27.939 9.36279 29.5175 10.9413 29.5175 12.8882Z" fill="#E7E3FD"/>
<path fill-rule="evenodd" clip-rule="evenodd" d="M7.75639 39.8418C9.06379 39.0844 10.002 37.8222 10.3505 36.3517L15.1541 19.3912C15.6253 17.4038 17.3997 16.0004 19.4421 16H39.3075C40.6261 16 41.8749 16.5904 42.712 17.6091C43.549 18.6273 43.886 19.9674 43.6308 21.2606L39.863 37.029C39.4551 39.0938 37.6446 40.582 35.5398 40.582H5C5.96786 40.5824 6.91893 40.3272 7.75639 39.8418Z" fill="#6D5DD3"/>
<path d="M36.1278 16.3401H33.9245C33.9249 14.4341 32.3799 12.8887 30.4739 12.8883H29.5177C29.5177 10.9414 27.9392 9.36284 25.9923 9.36284H8.25626C5.8222 9.36284 3.84948 11.336 3.84948 13.7696V40.5399L3.81075 40.6579C1.53979 39.9237 0.00043035 37.8094 0 35.4227V6.69597C0 4.11258 2.09451 2.01807 4.6779 2.01807H15.5847C16.6481 2.01807 17.6757 2.4028 18.4775 3.10083L20.9133 5.22073C21.7154 5.91919 22.7431 6.30392 23.8065 6.30349H31.4512C34.0342 6.30435 36.1278 8.39843 36.1278 10.9814V16.3401Z" fill="#6D5DD3"/>
<path d="M33.9241 16.34H19.9416C17.8991 16.3404 16.1248 17.7438 15.6536 19.7312L10.85 36.6917C10.5014 38.1622 9.56326 39.4244 8.25586 40.1818V17.295C8.25586 14.8613 10.2286 12.8882 12.6626 12.8882H30.4735C32.3795 12.8886 33.9245 14.434 33.9241 16.34Z" fill="#B4ABF0"/>
</svg>
