<svg width="44" height="39" viewBox="0 0 44 39" fill="none" xmlns="http://www.w3.org/2000/svg">
<path d="M29.5175 10.8882H12.6628C10.2288 10.8882 8.25606 12.8614 8.25606 15.295V38.1818C6.90777 38.9612 5.2931 39.1342 3.81055 38.6578L3.84928 38.5399V11.7696C3.84928 9.33595 5.822 7.36279 8.25606 7.36279H25.9921C27.939 7.36279 29.5175 8.94132 29.5175 10.8882Z" fill="#C1FFEE"/>
<path fill-rule="evenodd" clip-rule="evenodd" d="M7.75639 37.8418C9.06379 37.0844 10.002 35.8222 10.3505 34.3517L15.1541 17.3912C15.6253 15.4038 17.3997 14.0004 19.4421 14H39.3075C40.6261 14 41.8749 14.5904 42.712 15.6091C43.549 16.6273 43.886 17.9674 43.6308 19.2606L39.863 35.029C39.4551 37.0938 37.6446 38.582 35.5398 38.582H5C5.96786 38.5824 6.91893 38.3272 7.75639 37.8418Z" fill="#00D097"/>
<path fill-rule="evenodd" clip-rule="evenodd" d="M36.1278 14.3401H33.9245C33.9249 12.4341 32.3799 10.8887 30.4739 10.8883H29.5177C29.5177 8.94137 27.9392 7.36284 25.9923 7.36284H8.25626C5.8222 7.36284 3.84948 9.33599 3.84948 11.7696V38.5399L3.81075 38.6579C1.53979 37.9237 0.00043035 35.8094 0 33.4227V4.69597C0 2.11258 2.09451 0.0180664 4.6779 0.0180664H15.5847C16.6481 0.0180664 17.6757 0.402799 18.4775 1.10083L20.9133 3.22073C21.7154 3.91919 22.7431 4.30392 23.8065 4.30349H31.4512C34.0342 4.30435 36.1278 6.39843 36.1278 8.98139V14.3401Z" fill="#00D097"/>
<path d="M33.9241 14.34H19.9416C17.8991 14.3404 16.1248 15.7438 15.6536 17.7312L10.85 34.6917C10.5014 36.1622 9.56326 37.4244 8.25586 38.1818V15.295C8.25586 12.8613 10.2286 10.8882 12.6626 10.8882H30.4735C32.3795 10.8886 33.9245 12.434 33.9241 14.34Z" fill="#71E1C3"/>
</svg>
