<svg width="24" height="24" viewBox="0 0 24 24" fill="none" xmlns="http://www.w3.org/2000/svg">
<path fill-rule="evenodd" clip-rule="evenodd" d="M12 2C6.47715 2 2 6.47715 2 12C2 17.5228 6.47715 22 12 22C17.5228 22 22 17.5228 22 12C22 6.47715 17.5228 2 12 2ZM12 4C16.4183 4 20 7.58172 20 12C20 16.4183 16.4183 20 12 20C7.58172 20 4 16.4183 4 12C4 7.58172 7.58172 4 12 4ZM12.9933 6.88338C12.9355 6.38604 12.5128 6 12 6C11.4477 6 11 6.44772 11 7V12.25L11.0086 12.3808C11.0539 12.7247 11.2756 13.0246 11.5992 13.1662L15.5992 14.9162L15.7087 14.9567C16.1875 15.1032 16.7106 14.8707 16.9162 14.4008L16.9567 14.2913C17.1032 13.8125 16.8707 13.2894 16.4008 13.0838L13 11.596V7L12.9933 6.88338Z" fill="#7D8592"/>
</svg>
