<svg width="23" height="24" viewBox="0 0 23 24" fill="none" xmlns="http://www.w3.org/2000/svg">
<path fill-rule="evenodd" clip-rule="evenodd" d="M12.0423 2.63625C11.4024 2.2456 10.5978 2.2456 9.95794 2.63625L3.84895 6.36588C2.5594 7.15317 2.57497 9.03115 3.8774 9.79696L10.0093 13.4024C10.6364 13.7712 11.4143 13.7703 12.0406 13.4001L18.1339 9.79908C19.4329 9.03137 19.4463 7.15655 18.1584 6.37028L12.0423 2.63625ZM18.6032 11.4709C19.0833 11.198 19.6938 11.3661 19.9666 11.8462C20.22 12.2921 20.0932 12.8503 19.6894 13.1463L19.5913 13.2097L12.9967 16.9572C12.167 17.4329 11.1543 17.4657 10.2965 17.0535L10.1151 16.9584L3.59833 13.207C3.11968 12.9314 2.95503 12.3201 3.23056 11.8414C3.48641 11.397 4.03184 11.2232 4.49169 11.4213L4.59612 11.4736L11.1095 15.2231C11.3498 15.3601 11.6429 15.377 11.8983 15.2725L12.0053 15.2202L18.6032 11.4709ZM18.5062 15.1307C18.9864 14.8579 19.5968 15.0259 19.8697 15.5061C20.1231 15.952 19.9963 16.5102 19.5924 16.8061L19.4943 16.8696L12.8998 20.617C12.07 21.0928 11.0573 21.1255 10.1995 20.7133L10.0182 20.6182L3.50137 16.8668C3.02273 16.5913 2.85807 15.9799 3.1336 15.5013C3.38945 15.0568 3.93489 14.8831 4.39473 15.0811L4.49916 15.1335L11.0126 18.8829C11.2528 19.02 11.5459 19.0369 11.8014 18.9323L11.9083 18.8801L18.5062 15.1307Z" fill="#3F8CFF"/>
</svg>
