<svg width="21" height="16" viewBox="0 0 21 16" fill="none" xmlns="http://www.w3.org/2000/svg">
<path fill-rule="evenodd" clip-rule="evenodd" d="M20.7133 5.96615C20.427 5.56926 19.9681 5.33394 19.4793 5.33333H18.2529L18.2392 4.26013C18.2252 3.16563 17.3339 2.28571 16.2394 2.28571H10.4751C10.258 2.28571 10.0468 2.21507 9.87336 2.08444L7.6407 0.402545C7.2939 0.141296 6.8715 0 6.43731 0H2C0.895429 0 0 0.895431 0 2L0 14C0 15.1046 0.895431 16 2 16H16.5968C17.458 16 18.2224 15.4488 18.4944 14.6318L20.9223 7.33901C21.0763 6.87428 20.9986 6.36375 20.7133 5.96615ZM6.25749 1.52381C6.47416 1.52381 6.68496 1.59418 6.85818 1.72432L9.22784 3.50474C9.49148 3.70195 9.81152 3.80883 10.1405 3.80952H15.7318C16.2841 3.80952 16.7318 4.25724 16.7318 4.80952V5.33333H4.35086C3.69595 5.33274 3.11436 5.75267 2.90782 6.37528L1.52108 10.543V2.52381C1.52108 1.97153 1.96879 1.52381 2.52108 1.52381H6.25749Z" fill="#3F8CFF"/>
</svg>
