<svg width="24" height="24" viewBox="0 0 24 24" fill="none" xmlns="http://www.w3.org/2000/svg">
<path fill-rule="evenodd" clip-rule="evenodd" d="M17 3C19.2091 3 21 4.79086 21 7V17C21 19.2091 19.2091 21 17 21H7C4.79086 21 3 19.2091 3 17V7C3 4.79086 4.79086 3 7 3H8H16H17ZM15 7V5H9V7C9 7.55228 8.55228 8 8 8C7.44772 8 7 7.55228 7 7V5C5.94564 5 5.08183 5.81588 5.00549 6.85074L5 7V8H8H16H19V7C19 5.94564 18.1841 5.08183 17.1493 5.00549L17 5V7C17 7.55228 16.5523 8 16 8C15.4477 8 15 7.55228 15 7Z" fill="#3F8CFF"/>
</svg>
