<svg width="291" height="278" viewBox="0 0 291 278" fill="none" xmlns="http://www.w3.org/2000/svg">
<path fill-rule="evenodd" clip-rule="evenodd" d="M175.205 43.9558L182.569 12.6543C182.595 11.272 183.539 9.32799 184.755 8.77393C185.364 8.49658 186.032 8.41641 186.681 8.58191L204.211 13.0422C205.289 13.2795 206.122 14.1568 206.347 15.2927L207.287 20.0278L230.219 25.8839C233.336 26.4004 234.628 29.2845 233.841 31.4432L226.852 57.8448C225.739 60.8938 222.403 62.554 219.742 61.8771L179.211 51.5672C176.427 50.8592 174.699 47.809 175.205 43.9558Z" fill="#CDD9E4"/>
<path fill-rule="evenodd" clip-rule="evenodd" d="M174.7 43.3357L181.142 17.1526C181.903 15.1478 183.659 13.9653 185.268 14.3746L231.233 26.0661C233.179 26.5613 234.126 29.15 233.257 31.5976L227.45 55.8548C225.916 61.8861 222.249 62.872 219.501 62.1731L179.221 51.9278C175.082 50.8747 173.173 48.471 174.7 43.3357Z" fill="#E8F1F9"/>
<path fill-rule="evenodd" clip-rule="evenodd" d="M205.279 31.6759C202.343 31.6759 199.618 33.5767 198.711 36.526C197.6 40.1439 199.64 43.992 203.259 45.1027C206.878 46.2153 210.727 44.1749 211.839 40.5564C212.377 38.8037 212.201 36.9463 211.342 35.3261C210.482 33.706 209.044 32.5177 207.291 31.9791C206.622 31.7735 205.945 31.6759 205.279 31.6759ZM205.27 46.053C204.542 46.053 203.801 45.9457 203.07 45.7214C199.11 44.5053 196.877 40.2946 198.094 36.336C199.309 32.3774 203.52 30.1456 207.481 31.3611C209.399 31.95 210.973 33.2508 211.912 35.0236C212.853 36.7963 213.045 38.8283 212.456 40.7465C211.465 43.9732 208.484 46.053 205.27 46.053Z" fill="#CDD9E4"/>
<path fill-rule="evenodd" clip-rule="evenodd" d="M203.585 38.022L204.535 34.9265L208.947 39.6687L205.791 40.3928L202.634 41.1169L203.585 38.022Z" fill="#CDD9E4"/>
<path fill-rule="evenodd" clip-rule="evenodd" d="M67.6861 207.319L33.1179 226C30.7291 227.291 27.746 226.401 26.4546 224.012L0.592467 176.178C-0.698926 173.789 0.190887 170.806 2.58032 169.515L24.503 157.669L50.9277 165.985L69.6733 200.657C70.964 203.046 70.0749 206.028 67.6861 207.319Z" fill="#E8F1F9"/>
<path fill-rule="evenodd" clip-rule="evenodd" d="M46.5643 189.016C46.5501 188.992 46.8476 188.851 47.3145 188.454C47.7626 188.05 48.3918 187.343 48.7016 186.222C48.8516 185.668 48.9092 185.017 48.796 184.327C48.7462 183.98 48.6343 183.632 48.4927 183.282C48.3362 182.941 48.1357 182.59 47.9353 182.224C47.1328 180.758 46.2216 179.095 45.216 177.259C44.7129 176.337 44.1859 175.373 43.6382 174.368C43.364 173.866 43.084 173.352 42.7994 172.83C42.513 172.301 42.2388 171.782 41.8437 171.333C41.0696 170.426 39.9121 169.798 38.6524 169.647C38.0232 169.57 37.37 169.612 36.7421 169.783C36.109 169.943 35.5348 170.276 34.9179 170.612C30.0459 173.259 24.6941 176.165 19.0758 179.217C17.7961 180.073 16.989 181.546 16.947 183.044C16.9114 183.792 17.0602 184.539 17.3686 185.208C17.6874 185.873 18.0826 186.551 18.4305 187.212C19.8622 189.87 21.2435 192.433 22.5601 194.876C22.895 195.473 23.1983 196.121 23.5482 196.652C23.9168 197.187 24.3966 197.631 24.9372 197.957C26.0197 198.614 27.337 198.774 28.481 198.456C29.0571 198.307 29.5667 198.008 30.0983 197.725C30.6227 197.445 31.1375 197.169 31.6425 196.898C32.6513 196.358 33.62 195.839 34.546 195.344C38.2314 193.384 41.2222 191.793 43.32 190.678C44.3405 190.145 45.1423 189.727 45.7159 189.427C45.9746 189.297 46.1815 189.193 46.3438 189.111C46.4861 189.043 46.5611 189.01 46.5643 189.016C46.5676 189.022 46.5003 189.067 46.3639 189.149C46.2067 189.239 46.0063 189.355 45.7554 189.501C45.1908 189.816 44.4012 190.258 43.397 190.82C41.3141 191.963 38.3446 193.593 34.6851 195.602C33.7642 196.104 32.7994 196.631 31.7945 197.179C31.292 197.453 30.7786 197.733 30.2561 198.017C29.7413 198.295 29.1955 198.621 28.5721 198.787C27.3428 199.138 25.9221 198.974 24.7497 198.27C24.1632 197.921 23.6419 197.441 23.2404 196.865C22.8465 196.267 22.5698 195.668 22.2238 195.057C20.9007 192.618 19.5123 190.059 18.0729 187.406C17.7178 186.733 17.3408 186.094 16.9955 185.377C16.6599 184.652 16.4976 183.84 16.5344 183.029C16.5791 181.403 17.454 179.803 18.845 178.873C24.4865 175.766 29.848 172.917 34.7362 170.275C35.3363 169.952 35.9609 169.593 36.6451 169.422C37.3215 169.241 38.0232 169.198 38.6976 169.284C40.0472 169.454 41.2817 170.133 42.1043 171.108C42.524 171.591 42.8163 172.156 43.0917 172.672C43.373 173.197 43.6492 173.712 43.9195 174.216C44.4594 175.225 44.9781 176.194 45.4741 177.119C46.4596 178.966 47.3526 180.64 48.1396 182.114C48.3349 182.482 48.5289 182.831 48.6906 183.198C48.8341 183.567 48.9454 183.934 48.9913 184.296C49.0973 185.019 49.0249 185.695 48.8568 186.267C48.5108 187.42 47.8422 188.128 47.3688 188.518C46.8754 188.901 46.5643 189.016 46.5643 189.016Z" fill="white"/>
<path fill-rule="evenodd" clip-rule="evenodd" d="M49.2213 184.657C49.2149 184.67 49.081 184.627 48.8307 184.533C48.5384 184.417 48.1795 184.275 47.745 184.103C46.7517 183.687 45.4112 183.129 43.7816 182.448C42.9422 182.092 42.0291 181.703 41.0533 181.288C40.5625 181.078 40.0561 180.861 39.5349 180.638C39.2756 180.529 39.013 180.417 38.7466 180.304C38.5061 180.214 38.2377 180.182 37.9803 180.241C37.461 180.34 37.0058 180.773 36.9049 181.317C36.8008 181.933 36.6947 182.562 36.5867 183.202C36.3701 184.489 36.1464 185.82 35.9168 187.183C35.8133 187.793 35.7105 188.397 35.6148 188.965L35.576 189.193L35.3548 189.13C34.1242 188.783 32.9273 188.445 31.773 188.119C31.4845 188.038 31.1994 187.957 30.9168 187.877C30.6219 187.793 30.3846 187.714 30.1272 187.737C29.6176 187.76 29.1449 188.064 28.9095 188.49C28.786 188.691 28.7375 188.946 28.6593 189.209C28.5868 189.466 28.5151 189.719 28.4452 189.967C28.3042 190.464 28.1678 190.946 28.0359 191.413C27.7714 192.338 27.5244 193.202 27.2974 193.995C26.8492 195.523 26.4819 196.774 26.209 197.706C26.0836 198.103 25.9808 198.432 25.8954 198.704C25.8197 198.931 25.7738 199.047 25.7609 199.043C25.7473 199.04 25.768 198.916 25.8191 198.683C25.8851 198.406 25.9646 198.07 26.061 197.666C26.3035 196.724 26.6294 195.462 27.0271 193.92C27.2392 193.123 27.4694 192.255 27.7164 191.325C27.8425 190.856 27.9719 190.372 28.1057 189.874C28.173 189.624 28.2409 189.37 28.3101 189.114C28.3812 188.869 28.429 188.582 28.5862 188.308C28.8752 187.773 29.4618 187.387 30.1046 187.351C30.426 187.32 30.7558 187.424 31.0228 187.499C31.3061 187.577 31.5919 187.656 31.8803 187.735C33.0359 188.057 34.2342 188.39 35.4667 188.732L35.2074 188.896C35.3031 188.329 35.4046 187.724 35.5081 187.113C35.7403 185.751 35.9672 184.421 36.1865 183.135C36.2983 182.49 36.4089 181.857 36.5169 181.236C36.6521 180.536 37.2438 179.986 37.9053 179.866C38.2345 179.796 38.5785 179.838 38.8811 179.955C39.1514 180.073 39.4172 180.189 39.6804 180.304C40.1984 180.533 40.7028 180.756 41.191 180.973C42.1597 181.405 43.0657 181.808 43.8993 182.18C45.5069 182.91 46.8293 183.51 47.8096 183.954C48.2319 184.156 48.5805 184.321 48.8644 184.457C49.1036 184.575 49.2265 184.644 49.2213 184.657Z" fill="white"/>
<path fill-rule="evenodd" clip-rule="evenodd" d="M30.6905 182.608C30.6724 182.577 30.8703 182.464 31.1471 182.182C31.4187 181.906 31.7633 181.418 31.8539 180.731C31.9534 180.061 31.7291 179.183 31.0462 178.594C30.3892 177.999 29.2653 177.791 28.3573 178.292C27.4404 178.777 26.998 179.832 27.1364 180.707C27.2554 181.601 27.8665 182.27 28.4821 182.553C29.1062 182.853 29.703 182.832 30.0833 182.757C30.47 182.68 30.6743 182.577 30.6905 182.608C30.7015 182.626 30.523 182.78 30.1234 182.914C29.7315 183.042 29.0784 183.12 28.3619 182.821C27.6551 182.539 26.9198 181.8 26.7581 180.763C26.5732 179.75 27.0789 178.498 28.1601 177.928C29.229 177.336 30.5534 177.598 31.3003 178.309C32.0795 179.011 32.2949 180.031 32.1436 180.776C32.0026 181.54 31.579 182.043 31.2563 182.301C30.9259 182.563 30.6983 182.627 30.6905 182.608Z" fill="white"/>
<path fill-rule="evenodd" clip-rule="evenodd" d="M68.393 206.937L32.4099 226.382C30.4117 227.462 27.9169 226.717 26.8369 224.72L19.5264 211.199L62.745 187.844L70.0556 201.365C71.1355 203.363 70.3912 205.857 68.393 206.937Z" fill="#CDD9E4"/>
<path fill-rule="evenodd" clip-rule="evenodd" d="M24.5029 157.669L31.7812 171.131C32.982 173.352 35.7569 174.18 37.9782 172.98L50.9277 165.985L24.5029 157.669Z" fill="#CEDBE8"/>
<path fill-rule="evenodd" clip-rule="evenodd" d="M32.5967 172.217C32.5967 172.217 34.192 175.575 38.4904 174.639C38.6521 174.604 38.8111 174.556 38.9683 174.505C40.8223 173.894 53.0216 169.859 52.8833 169.603C52.7339 169.326 50.9277 165.985 50.9277 165.985L37.9795 172.982C37.9795 172.982 34.6867 174.619 32.5967 172.217Z" fill="#C1D2E2"/>
<path fill-rule="evenodd" clip-rule="evenodd" d="M41.5669 209.565L42.9883 208.797L44.462 211.524C44.023 212.48 43.1661 213.327 42.2065 213.847C40.0938 214.988 37.7548 214.379 36.6594 212.353C35.5639 210.327 36.336 208.037 38.4771 206.88C39.6586 206.242 40.8556 206.116 41.9193 206.522L41.4188 207.983C40.6486 207.729 39.9522 207.795 39.27 208.164C37.9643 208.87 37.5434 210.226 38.234 211.502C38.9136 212.76 40.2897 213.17 41.5766 212.475C41.9995 212.247 42.3513 211.957 42.6307 211.533L41.5669 209.565Z" fill="#FAF9F6"/>
<path fill-rule="evenodd" clip-rule="evenodd" d="M42.6641 204.766L44.2199 203.925L47.8529 210.646L46.297 211.486L42.6641 204.766Z" fill="#FAF9F6"/>
<path fill-rule="evenodd" clip-rule="evenodd" d="M48.0419 203.473L49.0022 205.249L52.1139 203.567L52.7891 204.815L49.6773 206.497L51.0004 208.945L49.4451 209.785L45.8115 203.065L50.8917 200.32L51.5662 201.568L48.0419 203.473Z" fill="#FAF9F6"/>
<path fill-rule="evenodd" clip-rule="evenodd" d="M233.896 240.93L209.469 229.131C207.781 228.316 207.074 226.286 207.89 224.599L224.225 190.795C225.041 189.108 227.071 188.401 228.758 189.216L244.25 196.699L250.271 214.849L238.43 239.351C237.614 241.038 235.585 241.746 233.896 240.93Z" fill="#E8F1F9"/>
<path fill-rule="evenodd" clip-rule="evenodd" d="M235.611 221.713C235.619 221.695 235.818 221.805 236.23 221.906C236.636 221.993 237.287 222.06 238.039 221.781C238.411 221.64 238.799 221.409 239.139 221.068C239.313 220.9 239.463 220.697 239.601 220.475C239.729 220.25 239.845 219.996 239.969 219.736C240.465 218.695 241.028 217.512 241.651 216.207C241.963 215.554 242.29 214.87 242.631 214.156C242.802 213.8 242.976 213.436 243.153 213.066C243.334 212.692 243.514 212.329 243.605 211.926C243.801 211.126 243.684 210.225 243.261 209.459C243.05 209.075 242.762 208.727 242.412 208.444C242.066 208.155 241.648 207.968 241.211 207.759C237.761 206.101 233.971 204.28 229.991 202.369C228.995 201.999 227.844 202.142 226.988 202.724C226.555 203.006 226.196 203.391 225.948 203.834C225.703 204.282 225.484 204.776 225.253 205.238C224.344 207.113 223.467 208.922 222.631 210.646C222.432 211.074 222.192 211.506 222.036 211.916C221.885 212.339 221.83 212.787 221.866 213.222C221.936 214.093 222.379 214.895 223.019 215.406C223.335 215.669 223.709 215.833 224.081 216.016C224.45 216.197 224.813 216.373 225.168 216.547C225.879 216.893 226.561 217.225 227.212 217.543C229.799 218.814 231.898 219.845 233.371 220.569C234.081 220.925 234.639 221.205 235.038 221.404C235.216 221.497 235.358 221.57 235.469 221.628C235.565 221.68 235.614 221.709 235.611 221.713C235.609 221.718 235.557 221.697 235.457 221.655C235.342 221.604 235.196 221.538 235.013 221.456C234.608 221.267 234.042 221.004 233.322 220.669C231.84 219.965 229.727 218.962 227.124 217.726C226.47 217.413 225.786 217.086 225.073 216.745C224.716 216.575 224.352 216.4 223.982 216.223C223.618 216.047 223.215 215.874 222.871 215.592C222.177 215.045 221.694 214.184 221.615 213.242C221.574 212.774 221.632 212.288 221.793 211.83C221.968 211.369 222.192 210.972 222.393 210.531C223.225 208.805 224.097 206.994 225.001 205.116C225.234 204.646 225.439 204.177 225.702 203.693C225.972 203.213 226.361 202.793 226.83 202.487C227.758 201.855 229.009 201.697 230.091 202.101C234.11 204.003 237.871 205.853 241.327 207.521C241.749 207.726 242.203 207.93 242.575 208.245C242.95 208.55 243.257 208.925 243.482 209.337C243.932 210.162 244.05 211.127 243.837 211.981C243.736 212.411 243.539 212.803 243.36 213.166C243.18 213.535 243.004 213.898 242.83 214.253C242.483 214.963 242.15 215.645 241.833 216.296C241.197 217.594 240.62 218.77 240.113 219.806C239.986 220.064 239.868 220.314 239.729 220.552C239.58 220.782 239.42 220.993 239.235 221.165C238.873 221.516 238.465 221.748 238.077 221.885C237.292 222.158 236.625 222.07 236.215 221.962C235.801 221.841 235.611 221.713 235.611 221.713Z" fill="white"/>
<path fill-rule="evenodd" clip-rule="evenodd" d="M239.125 221.439C239.116 221.441 239.086 221.348 239.038 221.17C238.984 220.96 238.919 220.702 238.84 220.389C238.67 219.665 238.442 218.689 238.164 217.502C238.025 216.888 237.874 216.221 237.712 215.506C237.631 215.147 237.548 214.775 237.462 214.394C237.419 214.204 237.375 214.012 237.33 213.818C237.284 213.647 237.193 213.483 237.056 213.363C236.791 213.113 236.365 213.033 236.02 213.196C235.632 213.387 235.237 213.582 234.836 213.78C234.027 214.178 233.192 214.591 232.335 215.013C231.952 215.202 231.572 215.389 231.215 215.564L231.072 215.634L231.018 215.486C230.716 214.657 230.421 213.85 230.136 213.073C230.066 212.878 229.996 212.685 229.927 212.495C229.855 212.296 229.803 212.131 229.686 211.996C229.467 211.721 229.105 211.579 228.772 211.619C228.61 211.632 228.447 211.707 228.267 211.77C228.095 211.833 227.925 211.895 227.757 211.956C227.423 212.078 227.098 212.197 226.783 212.311C226.157 212.537 225.573 212.748 225.038 212.941C224.002 213.308 223.152 213.608 222.52 213.831C222.248 213.922 222.021 213.997 221.835 214.059C221.677 214.108 221.593 214.13 221.59 214.121C221.587 214.112 221.664 214.074 221.816 214.008C221.997 213.933 222.217 213.842 222.484 213.732C223.108 213.488 223.947 213.16 224.971 212.76C225.503 212.557 226.082 212.335 226.703 212.097C227.016 211.978 227.339 211.855 227.672 211.728C227.839 211.665 228.009 211.601 228.181 211.536C228.346 211.477 228.527 211.388 228.743 211.365C229.16 211.311 229.613 211.483 229.892 211.829C230.041 211.996 230.115 212.222 230.181 212.401C230.252 212.591 230.323 212.783 230.395 212.977C230.682 213.754 230.98 214.559 231.285 215.387L231.089 215.308C231.446 215.133 231.825 214.946 232.209 214.756C233.066 214.336 233.902 213.925 234.711 213.529C235.117 213.331 235.516 213.136 235.908 212.946C236.354 212.739 236.902 212.848 237.236 213.17C237.408 213.326 237.524 213.535 237.581 213.752C237.623 213.951 237.666 214.147 237.708 214.339C237.789 214.723 237.868 215.094 237.943 215.455C238.094 216.172 238.234 216.843 238.363 217.459C238.603 218.654 238.801 219.637 238.948 220.365C239.007 220.682 239.054 220.944 239.094 221.158C239.124 221.34 239.135 221.437 239.125 221.439Z" fill="white"/>
<path fill-rule="evenodd" clip-rule="evenodd" d="M232.785 210.24C232.795 210.218 232.939 210.282 233.208 210.324C233.473 210.363 233.886 210.359 234.306 210.133C234.722 209.918 235.122 209.437 235.177 208.818C235.244 208.209 234.906 207.496 234.259 207.19C233.617 206.873 232.848 207.051 232.414 207.482C231.961 207.91 231.833 208.522 231.924 208.982C232.007 209.452 232.26 209.778 232.457 209.961C232.657 210.145 232.796 210.218 232.785 210.24C232.78 210.253 232.621 210.216 232.385 210.046C232.154 209.878 231.847 209.545 231.725 209.022C231.597 208.514 231.714 207.802 232.229 207.294C232.722 206.78 233.627 206.558 234.383 206.932C235.147 207.292 235.536 208.139 235.439 208.844C235.36 209.564 234.876 210.097 234.398 210.313C233.913 210.542 233.46 210.509 233.186 210.433C232.906 210.353 232.778 210.252 232.785 210.24Z" fill="white"/>
<path fill-rule="evenodd" clip-rule="evenodd" d="M233.25 240.618L210.115 229.443C208.07 228.455 207.214 225.997 208.201 223.953L212.265 215.544L242.806 230.296L238.742 238.705C237.754 240.749 235.295 241.606 233.25 240.618Z" fill="#CDD9E4"/>
<path fill-rule="evenodd" clip-rule="evenodd" d="M244.25 196.699L239.653 206.213C238.895 207.782 239.552 209.67 241.122 210.429L250.271 214.849L244.25 196.699Z" fill="#CEDBE8"/>
<path fill-rule="evenodd" clip-rule="evenodd" d="M239.374 207.108C239.374 207.108 238.139 209.357 240.399 211.385C240.484 211.461 240.575 211.532 240.667 211.598C241.759 212.389 248.948 217.586 249.035 217.406C249.129 217.211 250.271 214.849 250.271 214.849L241.12 210.43C241.12 210.43 238.874 209.248 239.374 207.108Z" fill="#A9B8C5"/>
<path fill-rule="evenodd" clip-rule="evenodd" d="M222.085 227.219L223.09 227.704L222.159 229.631C221.446 229.772 220.625 229.635 219.946 229.307C218.454 228.586 217.849 227.03 218.541 225.6C219.233 224.168 220.828 223.674 222.34 224.406C223.174 224.808 223.73 225.428 223.932 226.187L222.911 226.497C222.742 225.963 222.424 225.6 221.942 225.368C221.019 224.922 220.09 225.234 219.654 226.137C219.225 227.025 219.551 227.961 220.46 228.4C220.759 228.545 221.063 228.625 221.414 228.61L222.085 227.219Z" fill="#FAF9F6"/>
<path fill-rule="evenodd" clip-rule="evenodd" d="M63.5779 38.3557L73.5359 81.6882L19.3213 94.1406L9.36328 50.8082L63.5779 38.3557Z" fill="white"/>
<path fill-rule="evenodd" clip-rule="evenodd" d="M63.5777 38.3557C63.5777 38.3557 63.4878 38.3816 63.3164 38.4242C63.138 38.4669 62.8864 38.5277 62.5579 38.6072C61.8821 38.7662 60.8973 38.9983 59.6162 39.2996C57.0405 39.9009 53.286 40.7769 48.5259 41.887C39.0069 44.0909 25.478 47.2239 9.39542 50.9485L9.50406 50.7758C12.4723 63.6725 15.8763 78.4556 19.477 94.0999L19.4782 94.1044L19.2855 93.9829C39.3581 89.3829 58.0125 85.1082 73.5053 81.5576L73.4044 81.7179C70.4343 68.6635 67.9724 57.8429 66.2504 50.2748C65.3955 46.4882 64.7249 43.5175 64.2657 41.4835C64.0401 40.4724 63.8667 39.6966 63.7478 39.1626C63.632 38.6357 63.5777 38.3557 63.5777 38.3557C63.5777 38.3557 63.6469 38.6124 63.7704 39.1283C63.8946 39.6546 64.0763 40.42 64.3116 41.4169C64.785 43.4412 65.4763 46.3964 66.3571 50.1636C68.1166 57.7439 70.6315 68.5821 73.6663 81.6578L73.6967 81.789L73.5655 81.8187C58.0758 85.3843 39.426 89.6777 19.3573 94.2977L19.2002 94.3339L19.164 94.1768L19.1627 94.1716C15.5737 78.5254 12.1813 63.7391 9.22276 50.8405L9.19043 50.6996L9.33076 50.6672C25.4644 46.9918 39.036 43.9008 48.5847 41.7253C53.3384 40.6502 57.0884 39.8026 59.6602 39.2207C60.9322 38.9363 61.9112 38.7171 62.5818 38.5671C62.9058 38.4967 63.1528 38.4423 63.3287 38.4042C63.4956 38.3686 63.5777 38.3557 63.5777 38.3557Z" fill="#0A1629" fill-opacity="0.22465"/>
<path fill-rule="evenodd" clip-rule="evenodd" d="M20.5635 90.9828L70.9686 79.4057L62.2645 41.5286L11.8594 53.1063L20.5635 90.9828Z" fill="#E8F1F9"/>
<path fill-rule="evenodd" clip-rule="evenodd" d="M20.5635 90.983L32.7583 63.3958L47.049 75.6213L52.6362 66.0471L70.9686 79.406L20.5635 90.983Z" fill="#CDD9E4"/>
<path fill-rule="evenodd" clip-rule="evenodd" d="M47.6304 56.9429C48.1342 59.1346 46.7658 61.3191 44.5736 61.8228C42.3814 62.3264 40.1963 60.9577 39.6932 58.7667C39.1895 56.575 40.5578 54.3905 42.75 53.8868C44.9422 53.3838 47.1267 54.7519 47.6304 56.9429Z" fill="#D4D5CF"/>
<mask id="mask0_0_6148" style="mask-type:luminance" maskUnits="userSpaceOnUse" x="36" y="0" width="89" height="72">
<path fill-rule="evenodd" clip-rule="evenodd" d="M36.8418 0.16748H124.054V71.0394H36.8418V0.16748Z" fill="white"/>
</mask>
<g mask="url(#mask0_0_6148)">
<path fill-rule="evenodd" clip-rule="evenodd" d="M121.05 0.168213L123.843 67.2936L39.8607 70.786L37.0684 3.66067L121.05 0.168213Z" fill="white"/>
<path fill-rule="evenodd" clip-rule="evenodd" d="M121.051 0.168044C121.051 0.168044 120.909 0.182268 120.644 0.197784C120.366 0.212007 119.976 0.232696 119.466 0.259203C118.418 0.308984 116.89 0.381393 114.904 0.475138C110.912 0.654221 105.092 0.916058 97.7132 1.24772C82.9634 1.88777 61.9991 2.79741 37.0778 3.87837L37.2867 3.65145C38.1254 23.6306 39.087 46.5326 40.1042 70.7684L40.1049 70.7755L39.8514 70.5421C70.9431 69.2646 99.8375 68.077 123.835 67.091L123.641 67.3018C122.843 47.088 122.182 30.3323 121.72 18.6137C121.499 12.7524 121.325 8.15376 121.206 5.0046C121.151 3.44133 121.109 2.24011 121.08 1.41452C121.053 0.599268 121.051 0.168044 121.051 0.168044C121.051 0.168044 121.082 0.568882 121.123 1.36862C121.162 2.18581 121.219 3.37345 121.294 4.9199C121.436 8.05678 121.644 12.6386 121.91 18.4779C122.424 30.225 123.159 47.0214 124.045 67.285L124.054 67.4874L123.851 67.4958C99.8549 68.5056 70.9619 69.7211 39.8714 71.029L39.6283 71.0393L39.6173 70.7956V70.7885C38.6182 46.5527 37.6741 23.6487 36.8509 3.6702L36.8418 3.45168L37.0597 3.44263C62.043 2.44829 83.0591 1.61235 97.8451 1.02403C105.205 0.742793 111.01 0.52104 114.992 0.36911C116.96 0.29864 118.474 0.244333 119.513 0.206835C120.013 0.191965 120.396 0.180328 120.668 0.171277C120.925 0.164812 121.051 0.168044 121.051 0.168044Z" fill="#0A1629" fill-opacity="0.248361"/>
</g>
<path fill-rule="evenodd" clip-rule="evenodd" d="M42.5802 66.4393L120.662 63.1926L118.221 4.51904L40.1396 7.76582L42.5802 66.4393Z" fill="#E8F1F9"/>
<path fill-rule="evenodd" clip-rule="evenodd" d="M42.5801 66.4395L68.3349 28.8345L86.1777 50.9497L97.1284 38.2748L120.662 63.1927L42.5801 66.4395Z" fill="#CDD9E4"/>
<path fill-rule="evenodd" clip-rule="evenodd" d="M101.103 111.582L87.9229 74.3346C87.0324 72.8883 86.7182 70.2512 87.6067 68.8709C88.0516 68.1798 88.6892 67.6535 89.4704 67.393L110.556 60.3654C111.827 59.8954 113.27 60.2497 114.258 61.2744L118.374 65.5452L145.972 56.3745C149.536 54.8384 152.788 56.9615 153.408 59.7163L163.721 91.6494C164.596 95.5408 162.25 99.4709 159.049 100.538L110.3 116.791C106.952 117.908 103.14 115.902 101.103 111.582Z" fill="#E46C62"/>
<path fill-rule="evenodd" clip-rule="evenodd" d="M108.427 117.096C105.615 117.096 102.767 115.111 101.103 111.582L87.923 74.3347C87.4011 73.4871 87.0771 72.2309 87.0771 71.0581C87.0771 70.2293 87.2388 69.4425 87.6068 68.871C88.0517 68.1799 88.6893 67.6536 89.4705 67.3931L110.556 60.3655C110.928 60.2278 111.316 60.1612 111.702 60.1612C112.634 60.1612 113.559 60.5504 114.258 61.2745L118.375 65.5453L145.972 56.3746C146.799 56.0177 147.61 55.8586 148.375 55.8586C150.904 55.8586 152.932 57.601 153.408 59.7164L163.721 91.6495C163.846 92.2081 163.906 92.768 163.905 93.3195C163.904 96.6102 161.79 99.6242 159.049 100.538L110.3 116.791C109.687 116.995 109.058 117.096 108.427 117.096Z" fill="#DCAB38"/>
<path fill-rule="evenodd" clip-rule="evenodd" d="M100.371 111.213L89.6384 79.8689C89.0932 77.2912 90.1227 74.903 92.0576 74.2578L147.342 55.8264C149.682 55.046 152.381 57.0935 153.108 60.2013L163.219 89.1327C165.639 96.3872 162.502 99.8403 159.198 100.942L110.751 117.094C105.773 118.753 102.203 117.537 100.371 111.213Z" fill="#FDC748"/>
<path fill-rule="evenodd" clip-rule="evenodd" d="M140.475 93.128C140.467 93.1067 140.735 93.0323 141.182 92.7692C141.614 92.4989 142.242 92.0018 142.663 91.1141C142.869 90.6745 143.012 90.1405 143.019 89.5496C143.028 89.2541 142.986 88.9477 142.919 88.6354C142.838 88.3289 142.723 88.007 142.609 87.6734C142.155 86.3358 141.639 84.8171 141.07 83.1407C140.786 82.3009 140.488 81.4203 140.179 80.5042C140.024 80.0458 139.866 79.5778 139.705 79.1013C139.544 78.619 139.392 78.1464 139.128 77.7152C138.616 76.8469 137.745 76.1551 136.718 75.8442C136.205 75.689 135.655 75.6289 135.107 75.6793C134.557 75.72 134.029 75.914 133.467 76.1028C129.024 77.5949 124.143 79.2345 119.019 80.9555C117.829 81.4804 116.941 82.5892 116.687 83.8305C116.548 84.4479 116.562 85.0919 116.722 85.6938C116.89 86.295 117.12 86.9163 117.313 87.5182C118.117 89.9401 118.892 92.2759 119.631 94.5018C119.824 95.0475 119.981 95.6313 120.195 96.1252C120.424 96.6243 120.759 97.0646 121.161 97.415C121.967 98.1197 123.04 98.4456 124.039 98.3473C124.54 98.3079 125.008 98.1333 125.492 97.9755C125.97 97.8178 126.439 97.6633 126.899 97.512C127.818 97.2094 128.701 96.9191 129.544 96.6418C132.898 95.5479 135.622 94.6602 137.531 94.0376C138.459 93.7435 139.187 93.512 139.709 93.3465C139.943 93.2761 140.131 93.2192 140.278 93.1752C140.407 93.1383 140.474 93.1222 140.475 93.128C140.477 93.1338 140.414 93.161 140.289 93.2095C140.145 93.2618 139.961 93.3291 139.731 93.4138C139.215 93.5941 138.493 93.8463 137.575 94.1676C135.673 94.8154 132.962 95.7393 129.622 96.8771C128.781 97.1616 127.901 97.459 126.985 97.7687C126.526 97.9232 126.058 98.0809 125.581 98.2419C125.112 98.3984 124.61 98.5897 124.067 98.6369C122.992 98.7488 121.833 98.4055 120.959 97.6471C120.522 97.2715 120.158 96.7963 119.908 96.2571C119.667 95.7018 119.524 95.1626 119.326 94.604C118.58 92.38 117.798 90.0461 116.987 87.6268C116.79 87.0146 116.569 86.4276 116.386 85.7797C116.213 85.1274 116.196 84.4272 116.346 83.7575C116.621 82.4108 117.583 81.205 118.877 80.6342C124.028 78.8718 128.909 77.2826 133.365 75.7963C133.912 75.6146 134.484 75.4065 135.079 75.3644C135.669 75.3127 136.259 75.38 136.808 75.55C137.908 75.8881 138.836 76.6342 139.377 77.5658C139.657 78.0287 139.818 78.5414 139.972 79.0127C140.129 79.4898 140.284 79.9592 140.435 80.4189C140.738 81.3376 141.028 82.2201 141.305 83.0625C141.856 84.7447 142.355 86.2685 142.796 87.6113C142.904 87.9462 143.014 88.2656 143.096 88.594C143.162 88.9224 143.201 89.2444 143.186 89.5528C143.169 90.1696 143.009 90.7223 142.786 91.1736C142.329 92.0839 141.669 92.5752 141.218 92.8306C140.751 93.0782 140.475 93.128 140.475 93.128Z" fill="#FAF9F6"/>
<path fill-rule="evenodd" clip-rule="evenodd" d="M143.323 89.8864C143.317 89.8968 143.212 89.8412 143.017 89.7261C142.791 89.5871 142.513 89.4164 142.176 89.2095C141.409 88.7188 140.375 88.0575 139.118 87.2538C138.471 86.8336 137.767 86.3772 137.015 85.8884C136.638 85.6421 136.247 85.3874 135.846 85.1255C135.646 84.9962 135.443 84.865 135.239 84.7325C135.051 84.6232 134.833 84.5572 134.609 84.5682C134.163 84.5747 133.72 84.8689 133.556 85.3066C133.38 85.805 133.2 86.3132 133.017 86.8304C132.648 87.87 132.267 88.9451 131.877 90.0474C131.702 90.5401 131.528 91.0282 131.365 91.4872L131.299 91.6702L131.125 91.5861C130.151 91.1174 129.204 90.6616 128.29 90.222C128.061 90.1114 127.836 90.0028 127.613 89.8948C127.379 89.7817 127.193 89.6815 126.975 89.6634C126.548 89.6078 126.109 89.7921 125.851 90.1121C125.719 90.2614 125.642 90.467 125.538 90.6745C125.44 90.8775 125.344 91.0773 125.249 91.2739C125.059 91.6669 124.875 92.0484 124.697 92.4182C124.341 93.15 124.009 93.8327 123.705 94.4612C123.109 95.6669 122.62 96.6554 122.256 97.3911C122.094 97.7041 121.96 97.9633 121.849 98.1767C121.753 98.3538 121.698 98.4443 121.687 98.4398C121.677 98.4346 121.713 98.3344 121.789 98.1476C121.884 97.9271 122 97.6594 122.139 97.3355C122.479 96.5882 122.934 95.5841 123.491 94.359C123.784 93.7261 124.102 93.0369 124.444 92.2979C124.617 91.9262 124.796 91.5422 124.979 91.1471C125.072 90.9487 125.166 90.7476 125.261 90.5439C125.356 90.35 125.438 90.1185 125.609 89.9136C125.928 89.5102 126.472 89.2742 127.013 89.3388C127.285 89.3589 127.545 89.494 127.756 89.5949C127.98 89.7015 128.207 89.8089 128.435 89.9175C129.351 90.3539 130.3 90.8058 131.275 91.2713L131.036 91.3702C131.198 90.9112 131.372 90.423 131.547 89.9298C131.939 88.8287 132.322 87.7542 132.693 86.7153C132.88 86.1955 133.065 85.6841 133.245 85.1831C133.461 84.62 134.033 84.2476 134.601 84.245C134.886 84.2346 135.166 84.3206 135.401 84.4616C135.609 84.5993 135.814 84.735 136.016 84.8682C136.414 85.1352 136.801 85.3951 137.176 85.646C137.92 86.147 138.615 86.6157 139.255 87.047C140.487 87.8894 141.5 88.5818 142.251 89.0958C142.573 89.3246 142.839 89.5134 143.056 89.6679C143.238 89.8017 143.331 89.8767 143.323 89.8864Z" fill="#FAF9F6"/>
<path fill-rule="evenodd" clip-rule="evenodd" d="M128.195 85.4754C128.185 85.4463 128.366 85.3804 128.638 85.1864C128.904 84.9957 129.263 84.6401 129.438 84.0815C129.619 83.5378 129.56 82.7743 129.078 82.184C128.618 81.5931 127.712 81.2563 126.883 81.5407C126.049 81.8103 125.526 82.6236 125.513 83.3729C125.482 84.1345 125.893 84.7804 126.364 85.1062C126.84 85.4476 127.34 85.5174 127.668 85.5097C128.002 85.5019 128.186 85.4456 128.195 85.4754C128.201 85.4909 128.031 85.5937 127.678 85.6461C127.333 85.6965 126.777 85.6661 126.225 85.3112C125.678 84.9737 125.173 84.2509 125.19 83.3645C125.184 82.493 125.789 81.5252 126.772 81.2078C127.749 80.8722 128.813 81.2834 129.331 81.9836C129.877 82.6825 129.907 83.5637 129.673 84.1617C129.444 84.7772 129.017 85.1347 128.711 85.3015C128.398 85.4715 128.199 85.4916 128.195 85.4754Z" fill="#FAF9F6"/>
<path fill-rule="evenodd" clip-rule="evenodd" d="M51.9522 245.981L27.7713 143.775C26.7593 139.498 28.1251 134.887 31.469 132.228C33.1439 130.895 35.1602 130.125 37.3116 130.125L104.254 128.009C107.796 127.897 111.081 129.947 112.683 133.271L119.357 147.121L204.374 147.203C210.618 147.203 217.174 155.866 216.432 163.135L223.685 248.299C222.637 258.564 213.57 266.292 204.753 266.292H70.4468C61.2221 266.292 53.4278 258.25 51.9522 245.981Z" fill="#E46C62"/>
<path fill-rule="evenodd" clip-rule="evenodd" d="M222.962 251.92C223.224 250.711 223.457 249.404 223.659 247.988L223.685 248.299C223.558 249.546 223.311 250.757 222.962 251.92ZM52.9599 250.979C52.5046 249.407 52.1638 247.738 51.9524 245.982L27.7715 143.775C27.5517 142.848 27.4443 141.905 27.4443 140.969C27.4443 137.591 28.8502 134.311 31.4692 132.228C33.1441 130.895 35.1604 130.125 37.3118 130.125L104.254 128.009C104.346 128.007 104.438 128.005 104.53 128.005C107.967 128.005 111.123 130.034 112.683 133.271L113.38 134.718L46.7105 135.727L47.4871 149.474C43.1383 150.119 38.6161 150.791 33.9382 151.485L33.7429 151.513L33.7739 151.698C36.6141 168.614 39.8694 188.004 43.3148 208.523L43.3155 208.53L43.3504 208.737L43.569 208.704C45.9849 208.34 48.3873 207.978 50.7722 207.618L53.1073 248.95C53.0381 249.654 52.989 250.33 52.9599 250.979Z" fill="#DCAB38"/>
<path fill-rule="evenodd" clip-rule="evenodd" d="M53.1074 248.959L46.71 135.727L205.27 133.328L210.829 246.808L53.1074 248.959Z" fill="#CDD9E4"/>
<path fill-rule="evenodd" clip-rule="evenodd" d="M52.3857 140.368C52.3857 141.001 51.9111 141.514 51.3252 141.514C50.7399 141.514 50.2646 141.001 50.2646 140.368C50.2646 139.736 50.7399 139.223 51.3252 139.223C51.9111 139.223 52.3857 139.736 52.3857 140.368Z" fill="#9FB3C4"/>
<path fill-rule="evenodd" clip-rule="evenodd" d="M56.5003 140.368C56.5003 141.001 56.0256 141.514 55.4404 141.514C54.8545 141.514 54.3799 141.001 54.3799 140.368C54.3799 139.736 54.8545 139.223 55.4404 139.223C56.0256 139.223 56.5003 139.736 56.5003 140.368Z" fill="#9FB3C4"/>
<path fill-rule="evenodd" clip-rule="evenodd" d="M60.6146 140.368C60.6146 141.001 60.1399 141.514 59.554 141.514C58.9688 141.514 58.4941 141.001 58.4941 140.368C58.4941 139.736 58.9688 139.223 59.554 139.223C60.1399 139.223 60.6146 139.736 60.6146 140.368Z" fill="#9FB3C4"/>
<path fill-rule="evenodd" clip-rule="evenodd" d="M109.222 140.368L118.787 197.196L43.5336 208.497L33.9688 151.669L109.222 140.368Z" fill="white"/>
<path fill-rule="evenodd" clip-rule="evenodd" d="M109.222 140.368C109.222 140.368 109.096 140.394 108.858 140.434C108.61 140.474 108.261 140.529 107.804 140.603C106.867 140.749 105.498 140.961 103.72 141.238C100.144 141.788 94.9304 142.587 88.3215 143.6C75.1075 145.609 56.3264 148.462 33.9996 151.853L34.1638 151.639C37.0176 168.553 40.289 187.941 43.7506 208.459L43.7513 208.464L43.4984 208.291C71.3607 204.12 97.2526 200.245 118.758 197.025L118.605 197.224C115.764 180.106 113.409 165.917 111.762 155.993C110.947 151.03 110.308 147.134 109.87 144.467C109.656 143.143 109.492 142.125 109.379 141.425C109.27 140.735 109.222 140.368 109.222 140.368C109.222 140.368 109.292 140.706 109.413 141.383C109.534 142.073 109.71 143.078 109.94 144.386C110.397 147.041 111.066 150.918 111.919 155.86C113.615 165.802 116.042 180.019 118.968 197.169L118.997 197.341L118.815 197.368C97.314 200.607 71.4254 204.506 43.5683 208.704L43.3497 208.737L43.3148 208.53L43.3141 208.523C39.8687 188.004 36.6134 168.613 33.7732 151.698L33.7422 151.513L33.9375 151.485C56.329 148.16 75.1644 145.365 88.4172 143.398C95.0139 142.429 100.218 141.664 103.788 141.14C105.553 140.884 106.91 140.689 107.841 140.554C108.29 140.491 108.633 140.443 108.877 140.409C109.109 140.378 109.222 140.368 109.222 140.368Z" fill="#0A1629" fill-opacity="0.321432"/>
<path fill-rule="evenodd" clip-rule="evenodd" d="M45.5258 204.53L115.491 194.024L107.131 144.351L37.165 154.857L45.5258 204.53Z" fill="#87AADF"/>
<path fill-rule="evenodd" clip-rule="evenodd" d="M45.5264 204.53L56.338 185.117L56.6833 202.855L45.5264 204.53Z" fill="#C1D7F9"/>
<path fill-rule="evenodd" clip-rule="evenodd" d="M57.6838 254.329L55.542 144.155L217.715 143.811L217.046 252.69L57.6838 254.329Z" fill="#E8F1F9"/>
<path fill-rule="evenodd" clip-rule="evenodd" d="M64.9424 148.469C64.9424 149.101 64.4677 149.614 63.8818 149.614C63.2966 149.614 62.8213 149.101 62.8213 148.469C62.8213 147.837 63.2966 147.323 63.8818 147.323C64.4677 147.323 64.9424 147.837 64.9424 148.469Z" fill="#CADEF0"/>
<path fill-rule="evenodd" clip-rule="evenodd" d="M68.7431 148.469C68.7431 149.101 68.2685 149.614 67.6826 149.614C67.0974 149.614 66.6221 149.101 66.6221 148.469C66.6221 147.837 67.0974 147.323 67.6826 147.323C68.2685 147.323 68.7431 147.837 68.7431 148.469Z" fill="#CADEF0"/>
<path fill-rule="evenodd" clip-rule="evenodd" d="M60.9056 148.469C60.9056 149.101 60.4309 149.614 59.845 149.614C59.2598 149.614 58.7852 149.101 58.7852 148.469C58.7852 147.837 59.2598 147.323 59.845 147.323C60.4309 147.323 60.9056 147.837 60.9056 148.469Z" fill="#CADEF0"/>
<path fill-rule="evenodd" clip-rule="evenodd" d="M61.4541 257.016V152.261L222.959 151.923L214.287 259.268L61.4541 257.016Z" fill="#FAF9F6"/>
<path fill-rule="evenodd" clip-rule="evenodd" d="M53.5932 245.42L63.2531 166.705C64.0085 160.549 68.3922 155.99 73.5558 155.99H221.07C227.312 155.99 232.152 162.563 231.41 170.032L223.685 247.801C221.424 263.976 215.211 266.292 206.393 266.292H68.5403C59.3149 266.292 50.3877 263.976 53.5932 245.42Z" fill="#FDC748"/>
<path fill-rule="evenodd" clip-rule="evenodd" d="M160.523 233.891C160.159 233.891 159.784 233.804 159.422 233.614L150.931 229.151C150.586 228.97 150.208 228.879 149.83 228.879C149.452 228.879 149.074 228.97 148.729 229.151L140.238 233.614C139.876 233.804 139.501 233.891 139.137 233.891C137.759 233.891 136.544 232.65 136.806 231.121L138.427 221.668C138.559 220.901 138.305 220.118 137.747 219.575L130.878 212.881C129.474 211.512 130.249 209.129 132.189 208.846L141.682 207.468C142.453 207.356 143.119 206.872 143.463 206.174L147.709 197.574C148.143 196.695 148.986 196.256 149.83 196.256C150.673 196.256 151.517 196.695 151.951 197.574L156.197 206.174C156.541 206.872 157.207 207.356 157.977 207.468L167.471 208.846C169.411 209.129 170.186 211.512 168.782 212.881L161.912 219.575C161.356 220.118 161.101 220.901 161.232 221.668L162.854 231.121C163.117 232.65 161.901 233.891 160.523 233.891Z" fill="white" fill-opacity="0.753988"/>
<path fill-rule="evenodd" clip-rule="evenodd" d="M241.856 158.717L241.75 166.224C241.732 167.454 241.801 168.684 241.955 169.905L246.609 206.618L253.386 257.596L259.906 257.231L259.981 259.236L270.898 258.609C270.898 258.609 277.669 227.277 277.13 220.31C276.023 206.026 278.363 198.857 280.135 191.544C282.049 183.651 289.077 164.924 280.673 150.836L241.856 158.717Z" fill="#081B37"/>
<path fill-rule="evenodd" clip-rule="evenodd" d="M255.87 167.087C255.865 167.087 255.863 167.153 255.865 167.282C255.868 167.425 255.872 167.613 255.878 167.854C255.896 168.373 255.922 169.111 255.956 170.053C256.037 171.98 256.152 174.741 256.294 178.144C256.608 184.988 257.04 194.418 257.517 204.834C258.027 215.253 258.488 224.684 258.822 231.527C259.002 234.929 259.148 237.689 259.25 239.614C259.306 240.556 259.35 241.294 259.381 241.813C259.397 242.053 259.412 242.242 259.421 242.383C259.432 242.512 259.441 242.578 259.445 242.578C259.45 242.578 259.452 242.512 259.45 242.382C259.447 242.24 259.443 242.05 259.438 241.81C259.419 241.291 259.392 240.552 259.36 239.61C259.279 237.684 259.163 234.923 259.021 231.519C258.707 224.675 258.275 215.245 257.798 204.827C257.289 194.413 256.828 184.985 256.493 178.141C256.314 174.739 256.167 171.979 256.065 170.053C256.01 169.111 255.965 168.372 255.935 167.853C255.917 167.613 255.904 167.424 255.894 167.281C255.883 167.152 255.875 167.087 255.87 167.087Z" fill="#F5FCFE" fill-opacity="0.272372"/>
<path fill-rule="evenodd" clip-rule="evenodd" d="M221.462 97.6762C221.462 97.6762 239.732 96.0437 241.396 95.6998C243.059 95.3558 248.168 95.5692 248.168 95.5692L242.196 112.263L217.499 109.409C213.229 108.009 209.766 100.038 209.766 100.038L201.663 84.6451L210.268 83.8867L221.462 97.6762Z" fill="#FFB27D"/>
<path fill-rule="evenodd" clip-rule="evenodd" d="M267.351 96.2773C267.671 96.3839 277.158 99.8105 279.917 101.625C281.864 102.904 282.048 106.167 281.102 108.294L276.375 118.91L273.738 132.04L282.284 152.581L283.143 155.967L241.857 158.885L240.043 154.607L242.196 135.189V110.78L248.168 95.5693L258.396 95.6999L267.351 96.2773Z" fill="#3F8CFF"/>
<path fill-rule="evenodd" clip-rule="evenodd" d="M278.104 142.535L277.103 140.127C277.757 140.821 278.182 141.659 278.104 142.535Z" fill="#A2A5A2"/>
<path fill-rule="evenodd" clip-rule="evenodd" d="M253.944 151.346C253.683 151.346 253.423 151.33 253.163 151.297C251.248 151.057 249.466 149.927 248.417 148.306C248.247 148.043 248.082 147.76 247.909 147.484C248.294 145.834 248.672 144.218 249.041 142.634C255.687 140.82 262.438 139.387 269.258 138.422C270.203 138.288 271.17 138.165 272.124 138.165C272.971 138.165 273.808 138.262 274.61 138.534C275.482 138.83 276.417 139.4 277.102 140.127L278.353 143.133C275.502 144.878 272.171 145.65 268.83 145.65C268.513 145.65 268.196 145.643 267.879 145.629C266.895 145.587 265.871 145.475 264.874 145.475C263.662 145.475 262.491 145.64 261.487 146.295C260.248 147.102 259.54 148.501 258.479 149.53C257.281 150.693 255.612 151.346 253.944 151.346Z" fill="#2E75DE"/>
<path fill-rule="evenodd" clip-rule="evenodd" d="M279.543 101.37C279.543 101.37 281.143 102.039 282.686 104.339C284.229 106.641 289.371 121.788 289.371 121.788L276.258 127.227L273.001 120.264L279.543 101.37Z" fill="#3F8CFF"/>
<path fill-rule="evenodd" clip-rule="evenodd" d="M243.433 95.5247C241.114 95.5409 231.903 96.6852 231.903 96.6852L230.911 111.618L242.196 112.99L249.946 95.5247C249.946 95.5247 245.751 95.5092 243.433 95.5247Z" fill="#E46C62"/>
<path fill-rule="evenodd" clip-rule="evenodd" d="M238.591 72.7804C238.422 72.6194 238.338 72.3647 238.416 72.1429C238.53 71.8203 238.956 71.6522 239.259 71.81C238.756 71.1758 239.288 70.0534 240.099 70.0418C239.468 69.3177 240.311 67.9581 241.241 68.2024C240.948 67.9445 240.886 67.4628 241.104 67.1396C241.323 66.8157 241.792 66.6935 242.141 66.8687C241.834 66.1718 242.74 65.3209 243.417 65.6707C243.217 64.9505 244.071 64.1863 244.765 64.4663C244.658 64.1223 244.848 63.7137 245.18 63.5741C245.511 63.4338 245.937 63.5831 246.108 63.8993C245.958 63.4803 246.16 62.9657 246.556 62.7608C246.951 62.5565 247.488 62.689 247.743 63.053C247.632 62.6612 247.845 62.2041 248.216 62.036C248.587 61.8692 249.071 62.0121 249.292 62.3547C249.255 61.8123 249.604 61.2654 250.111 61.0701C250.619 60.8749 251.245 61.0475 251.58 61.4748C251.547 60.9906 252.054 60.6085 252.539 60.5898C253.024 60.571 253.478 60.8083 253.905 61.0385C254.057 60.646 254.544 60.4708 254.961 60.5374C255.377 60.604 255.738 60.8529 256.083 61.0947C256.134 60.8419 256.256 60.6046 256.43 60.4146C256.682 60.5225 256.935 60.6305 257.186 60.7391C256.679 60.4204 256.464 59.7092 256.709 59.1636C256.955 58.6173 257.63 58.3056 258.204 58.4737C257.756 57.8867 258.276 57.0695 258.774 56.5245C258.921 56.3635 259.067 56.2032 259.215 56.0429C259.348 55.8967 259.486 55.7474 259.664 55.6614C260.026 55.4862 260.514 55.6491 260.698 56.0073C260.626 55.6123 260.881 55.1836 261.263 55.0602C261.645 54.9367 262.103 55.1339 262.275 55.4966C262.729 54.7188 264.065 54.7279 264.508 55.5114C264.509 55.1054 265.113 55.011 265.47 55.205C265.826 55.3989 266.129 55.7442 266.535 55.7623C266.782 55.7733 267.015 55.6569 267.26 55.6213C267.853 55.5347 268.468 56.0118 268.533 56.6073C269.296 56.3092 270.253 56.6499 270.656 57.3637C271.657 57.2984 272.581 57.8544 273.428 58.389C273.831 58.6438 274.277 59.1804 273.936 59.5133C274.734 59.3633 275.566 60.1172 275.496 60.9253C276.326 60.6596 277.218 61.7231 276.81 62.4937C277.397 62.3127 277.993 63.1209 277.646 63.6277C278.267 63.4525 278.917 64.2206 278.641 64.8037C279.11 64.6654 279.481 65.3352 279.281 65.7819C279.082 66.2293 278.589 66.4543 278.137 66.6411C278.492 66.6069 278.887 66.6107 279.164 66.837C279.442 67.0633 279.477 67.587 279.15 67.735C279.959 67.6923 280.685 68.5438 280.514 69.3358C281.15 69.2259 281.615 70.2105 281.128 70.632C281.84 70.9482 281.886 72.1449 281.2 72.514C282.129 73.1108 282.343 74.568 281.626 75.4072C282.198 75.6897 282.077 76.7209 281.455 76.8644C282.005 77.7159 281.353 79.049 280.344 79.1382C280.843 79.0975 281.329 79.539 281.336 80.0401C281.342 80.3743 281.13 80.6846 280.842 80.8489L280.837 80.9465C280.809 81.1385 280.687 81.3131 280.643 81.5031L280.637 81.5458C280.689 81.7003 280.721 81.8581 280.714 82.021L280.7 82.1257C280.758 82.3197 280.829 82.5143 280.846 82.7134C280.924 83.6314 279.913 84.3116 279.255 85.046C278.885 85.4591 278.607 85.9356 278.443 86.4386C278.251 87.0302 277.948 87.8473 277.268 87.7607C277.75 88.2663 277.294 89.2154 276.538 89.2826C276.896 89.3744 276.845 89.8787 276.558 90.1024C276.271 90.3261 275.872 90.3868 275.542 90.5575C275.176 90.7457 274.913 91.0579 274.573 91.281C274.233 91.5027 273.727 91.6178 273.42 91.376L273.362 91.4898C273.566 91.6372 273.497 91.9863 273.293 92.1357C273.091 92.2857 272.819 92.2934 272.567 92.2953C272.289 92.2973 272.01 92.2992 271.731 92.3012C270.595 92.6652 269.411 92.9529 268.263 92.7408C267.824 93.2043 266.988 93.3201 266.438 92.9929C265.766 93.419 264.845 93.5063 264.111 93.2127C263.377 92.9199 262.859 92.2579 262.801 91.5402C262.467 91.4833 262.133 91.4264 261.799 91.3695C260.582 91.771 259.365 92.1719 258.148 92.5727C257.39 92.8229 256.536 93.0718 255.813 92.7848C255.305 93.2309 254.427 93.2864 253.88 92.9082C253.164 93.4487 252.049 93.5121 251.295 93.0556C251.014 93.5308 250.383 93.8308 249.791 93.77C249.522 93.7422 249.264 93.6479 248.992 93.653C248.465 93.6627 247.87 94.028 247.465 93.7403C247.226 93.5709 247.203 93.2496 247.009 93.0401C246.774 92.7886 246.359 92.7563 246.005 92.6587C245.651 92.5604 245.005 90.8472 245.136 90.5336C244.292 90.5834 243.679 89.1255 243.305 87.8861C242.707 87.4187 242.37 86.5369 242.774 85.8994C241.825 85.4837 241.15 84.5055 241.098 83.4718C240.749 83.5009 240.487 83.1459 240.397 82.8078C240.309 82.469 240.312 82.0986 240.135 81.796C239.971 81.5154 239.665 81.3208 239.566 81.0111C239.499 80.801 239.539 80.5728 239.581 80.3556C239.735 79.55 239.889 78.7451 240.043 77.9396C239.497 77.8465 239.227 77.0609 239.601 76.6517C239.315 76.4713 239.031 76.2916 238.746 76.1106C238.799 75.8882 238.956 75.6923 239.162 75.5927C238.909 75.4498 238.656 75.3076 238.404 75.1654C238.637 74.9546 238.739 74.6094 238.657 74.3062C239.146 74.1769 239.635 74.0476 240.123 73.9183L238.578 74.3236C238.246 74.0708 237.932 73.7068 237.972 73.2918C238.001 72.9957 238.323 72.7642 238.591 72.7804Z" fill="#233862"/>
<path fill-rule="evenodd" clip-rule="evenodd" d="M267.687 69.0551L257.599 66.8705C253.871 66.3811 249.735 70.0236 249.404 73.7675C249.036 77.9265 248.75 83.0197 249.166 86.1404C250 92.4168 254.772 93.3329 254.772 93.3329L254.698 95.8918C254.592 99.6008 257.482 102.71 261.19 102.876C264.923 103.043 268.091 100.167 268.284 96.4361L269.571 71.4989C269.623 70.3345 268.827 69.3021 267.687 69.0551Z" fill="#FFB27D"/>
<path fill-rule="evenodd" clip-rule="evenodd" d="M254.773 93.333C254.773 93.333 258.972 93.7106 263.203 91.312C263.203 91.312 260.923 95.5842 254.68 94.8413L254.773 93.333Z" fill="#ED975D"/>
<path fill-rule="evenodd" clip-rule="evenodd" d="M268.683 80.1209C268.776 80.0808 272.421 79.0225 272.295 82.7387C272.17 86.4542 268.465 85.562 268.462 85.4553C268.459 85.3486 268.683 80.1209 268.683 80.1209Z" fill="#FFB27D"/>
<path fill-rule="evenodd" clip-rule="evenodd" d="M274.229 88.6638C272.413 89.2618 273.04 80.5275 271.494 79.4025C269.949 78.277 269.475 82.6002 267.401 81.0389C266.054 80.0238 266.989 79.3948 266.225 77.8916C265.213 75.9049 262.222 75.6146 261.199 73.6324C260.606 72.481 260.84 71.0225 260.189 69.9021C259.576 68.8482 258.33 68.3485 257.143 68.0737C255.956 67.7983 254.7 67.6612 253.657 67.0335C252.612 66.4051 251.847 65.0752 252.339 63.96C257.459 63.9593 262.578 64.5716 267.554 65.7786C268.707 66.0585 269.926 66.4148 270.697 67.3173C271.512 68.2728 271.64 69.6182 271.731 70.8705C272.177 76.9781 272.621 83.0851 273.067 89.1927" fill="#233862"/>
<path fill-rule="evenodd" clip-rule="evenodd" d="M269.697 79.4375C269.657 79.956 269.265 80.4292 268.763 80.5637C269 80.5889 269.055 80.9535 268.888 81.1236C268.721 81.2936 268.454 81.3078 268.216 81.2871C267.065 81.1895 265.979 80.5042 265.394 79.5079C264.764 79.2959 264.505 78.3888 264.927 77.8755C264.463 77.7274 264.176 77.1676 264.328 76.7034C263.857 76.8191 263.347 76.3484 263.424 75.87C262.23 75.2998 261.152 74.4845 260.279 73.4902C259.964 73.1159 260.005 72.4946 260.365 72.1636C259.867 72.011 259.724 71.2326 260.136 70.9126C259.754 70.835 259.495 70.3831 259.623 70.0145C259.193 69.9777 257.037 69.7967 257.046 69.3655C255.848 69.0028 255.295 68.3944 255.242 68.0517C255.193 67.7298 254.563 67.8002 254.524 67.477C254.471 67.0387 255.047 66.8266 255.488 66.8085C256.8 66.7542 258.125 67.029 259.307 67.6005C260.67 68.2593 261.813 69.2866 262.937 70.2997C263.451 70.7619 263.964 71.2248 264.477 71.6877C264.865 72.0381 265.292 72.5107 265.143 73.0118C265.517 72.8249 265.962 73.1508 266.14 73.529C266.318 73.9072 266.348 74.3449 266.549 74.7115C266.728 75.0373 267.027 75.2778 267.269 75.561C267.51 75.8441 267.702 76.2211 267.601 76.5792C268.239 76.4965 268.906 76.9199 269.101 77.5328C269.435 77.3156 269.904 77.655 269.966 78.0481C270.027 78.4418 269.827 78.8239 269.633 79.1717" fill="#233862"/>
<path fill-rule="evenodd" clip-rule="evenodd" d="M260.021 136.737L278.323 130.842L277.137 126.704L287.851 122.418C289.371 126.692 290.493 129.466 290.908 132.688C290.933 132.885 290.952 133.079 290.963 133.271C291.239 137.696 287.893 141.534 283.506 142.191L261.434 143.669L260.021 136.737Z" fill="#FFB27D"/>
<path fill-rule="evenodd" clip-rule="evenodd" d="M259.597 97.1706L244.675 160.469L165.48 141.81L180.402 78.511L259.597 97.1706Z" fill="#FAF9F6"/>
<path fill-rule="evenodd" clip-rule="evenodd" d="M259.597 97.1701C259.597 97.1701 259.462 97.1469 259.211 97.0919C258.948 97.0331 258.579 96.9497 258.096 96.8417C257.107 96.6148 255.664 96.2831 253.788 95.8525C250.02 94.9778 244.526 93.7029 237.562 92.0866C223.645 88.8347 203.866 84.2121 180.354 78.7161L180.607 78.5596C176.173 97.4016 171.09 119.002 165.712 141.858L165.71 141.865L165.535 141.581C194.85 148.504 222.095 154.937 244.721 160.279L244.485 160.425C249.019 141.374 252.778 125.583 255.406 114.539C256.73 109.017 257.769 104.686 258.479 101.72C258.837 100.248 259.111 99.1168 259.3 98.3397C259.487 97.5736 259.597 97.1701 259.597 97.1701C259.597 97.1701 259.522 97.5516 259.352 98.3086C259.174 99.0799 258.918 100.202 258.583 101.663C257.897 104.624 256.896 108.949 255.618 114.462C253.03 125.546 249.331 141.395 244.867 160.515L244.822 160.706L244.631 160.661C221.999 155.34 194.749 148.933 165.427 142.04L165.196 141.986L165.251 141.756L165.253 141.749C170.648 118.897 175.748 97.3014 180.196 78.4627L180.245 78.2571L180.45 78.3056C203.998 83.8979 223.806 88.6032 237.743 91.9127C244.676 93.571 250.146 94.8795 253.898 95.7763C255.75 96.2243 257.176 96.5689 258.153 96.8055C258.624 96.9212 258.984 97.0104 259.24 97.0738C259.482 97.1346 259.597 97.1701 259.597 97.1701Z" fill="#0A1629"/>
<path fill-rule="evenodd" clip-rule="evenodd" d="M169.15 138.469L242.781 155.817L255.824 100.487L182.192 83.1389L169.15 138.469Z" fill="#87AADF"/>
<path fill-rule="evenodd" clip-rule="evenodd" d="M169.15 138.468L202.974 110.136L213.833 135.407L227.35 126.449L242.781 155.817L169.15 138.468Z" fill="#334F55"/>
<path fill-rule="evenodd" clip-rule="evenodd" d="M226.661 111.269C225.906 114.471 222.699 116.454 219.497 115.7C216.295 114.945 214.311 111.738 215.065 108.538C215.82 105.336 219.027 103.353 222.23 104.108C225.432 104.862 227.416 108.068 226.661 111.269Z" fill="#334F55"/>
<path fill-rule="evenodd" clip-rule="evenodd" d="M242.781 155.817L169.15 138.468L202.974 110.136L213.833 135.407L227.35 126.449L242.781 155.817Z" fill="#C1D7F9"/>
<path fill-rule="evenodd" clip-rule="evenodd" d="M220.869 115.86C220.417 115.86 219.957 115.808 219.498 115.7C216.752 115.053 214.902 112.603 214.906 109.9C214.907 109.451 214.959 108.994 215.066 108.538C215.713 105.796 218.158 103.948 220.858 103.948C221.311 103.948 221.771 103.999 222.23 104.108C224.976 104.754 226.826 107.204 226.822 109.907C226.821 110.356 226.769 110.813 226.661 111.269C226.015 114.011 223.569 115.86 220.869 115.86Z" fill="#C1D7F9"/>
<path fill-rule="evenodd" clip-rule="evenodd" d="M213.514 86.7128C213.758 86.2273 213.99 85.7133 213.992 85.1702C213.995 84.6271 213.708 84.0466 213.194 83.8694C212.723 83.7072 212.211 83.9127 211.769 84.1397C211.326 84.3672 210.86 84.6284 210.366 84.5786C209.997 84.5418 209.668 84.3356 209.306 84.2573C208.944 84.1785 208.478 84.3006 208.389 84.6595C208.329 84.8987 208.47 85.1508 208.669 85.2963C208.867 85.4417 209.114 85.5032 209.352 85.5613C210.802 85.9137 212.251 86.266 213.7 86.6184" fill="#FFB27D"/>
<path fill-rule="evenodd" clip-rule="evenodd" d="M201.188 82.0928C201.188 82.0928 202.223 85.4107 202.716 85.4877C203.207 85.5652 203.853 85.1088 203.853 85.1088C203.853 85.1088 203.667 88.203 205.677 88.589C205.677 88.589 206.048 89.5309 206.735 89.6008C207.422 89.6699 207.543 88.8049 207.543 88.8049C207.543 88.8049 208.65 90.0876 209.061 88.664C209.471 87.2403 209.766 83.9852 209.766 83.9852C209.766 83.9852 209.354 82.5176 208.735 82.6605C208.115 82.8033 207.817 83.1667 207.817 83.1667C207.817 83.1667 207.226 82.3198 206.552 81.9823C205.878 81.6448 205.454 82.2292 205.454 82.2292C205.454 82.2292 204.518 80.7946 203.947 81.2129C203.376 81.6312 203.647 82.0301 203.647 82.0301C203.647 82.0301 202.437 81.1037 201.919 81.3396C201.401 81.5756 201.188 82.0928 201.188 82.0928Z" fill="#FFB27D"/>
<path fill-rule="evenodd" clip-rule="evenodd" d="M207.543 88.8048C207.621 88.8087 207.746 87.5357 207.822 85.9614C207.899 84.3872 207.898 83.1084 207.821 83.1045C207.743 83.1006 207.618 84.3736 207.541 85.9479C207.465 87.5221 207.465 88.8009 207.543 88.8048Z" fill="#ED975D"/>
<path fill-rule="evenodd" clip-rule="evenodd" d="M203.853 85.1086C203.926 85.1054 203.988 84.4195 203.965 83.5628C203.944 82.7023 203.755 82.0177 203.679 82.0345C203.603 82.0506 203.663 82.7288 203.684 83.5725C203.706 84.4169 203.771 85.1119 203.853 85.1086Z" fill="#ED975D"/>
<path fill-rule="evenodd" clip-rule="evenodd" d="M205.703 88.6142C205.78 88.611 205.788 87.1789 205.718 85.4166C205.651 83.6529 205.532 82.226 205.454 82.2293C205.376 82.2325 205.369 83.6639 205.438 85.4275C205.506 87.1906 205.625 88.6174 205.703 88.6142Z" fill="#ED975D"/>
<path fill-rule="evenodd" clip-rule="evenodd" d="M260.021 136.737L252.112 133.64L240.805 136.159C240.805 136.159 241.186 137.375 242.781 137.543C244.377 137.711 248.543 136.914 248.543 136.914L241.747 139.24C241.747 139.24 243.042 140.608 244.568 140.272C246.095 139.937 249.905 139.149 249.905 139.149L245.339 141.532C245.339 141.532 245.843 142.623 247.439 142.456C249.034 142.287 251.895 140.983 251.895 140.983C251.895 140.983 257.759 143.669 259.597 143.669C261.434 143.669 262.211 143.617 262.211 143.617L260.021 136.737Z" fill="#FFB27D"/>
<path fill-rule="evenodd" clip-rule="evenodd" d="M251.508 133.775L243.242 133.355C243.242 133.355 242.985 133.92 243.652 134.433C244.32 134.946 246.886 135.254 246.886 135.254L251.508 133.775Z" fill="#ED975D"/>
<path fill-rule="evenodd" clip-rule="evenodd" d="M251.65 133.61C251.661 133.655 251.064 133.837 250.09 134.094C249.115 134.352 247.762 134.685 246.264 135.034C244.764 135.382 243.403 135.678 242.414 135.876C241.426 136.075 240.811 136.174 240.801 136.129C240.792 136.084 241.39 135.901 242.365 135.644C243.339 135.386 244.691 135.053 246.187 134.706C247.684 134.358 249.043 134.062 250.032 133.864C251.02 133.665 251.638 133.565 251.65 133.61Z" fill="#ED975D"/>
<path fill-rule="evenodd" clip-rule="evenodd" d="M251.671 136.623C251.653 136.721 250.875 136.625 249.934 136.746C248.993 136.858 248.262 137.141 248.221 137.051C248.177 136.976 248.887 136.533 249.893 136.412C250.898 136.284 251.695 136.54 251.671 136.623Z" fill="#ED975D"/>
<path fill-rule="evenodd" clip-rule="evenodd" d="M252.636 139.235C252.573 139.308 252.058 138.903 251.299 138.887C250.539 138.85 249.997 139.217 249.94 139.14C249.913 139.107 250.013 138.961 250.253 138.812C250.491 138.664 250.876 138.536 251.31 138.551C251.744 138.567 252.12 138.721 252.346 138.885C252.575 139.05 252.665 139.204 252.636 139.235Z" fill="#ED975D"/>
</svg>
