<svg width="24" height="24" viewBox="0 0 24 24" fill="none" xmlns="http://www.w3.org/2000/svg">
<path fill-rule="evenodd" clip-rule="evenodd" d="M4.2097 11.3871L4.29289 11.2929L9.29289 6.29289C9.68342 5.90237 10.3166 5.90237 10.7071 6.29289C11.0676 6.65338 11.0953 7.22061 10.7903 7.6129L10.7071 7.70711L7.415 11H19C19.5523 11 20 11.4477 20 12C20 12.5128 19.614 12.9355 19.1166 12.9933L19 13H7.415L10.7071 16.2929C11.0676 16.6534 11.0953 17.2206 10.7903 17.6129L10.7071 17.7071C10.3466 18.0676 9.77939 18.0953 9.3871 17.7903L9.29289 17.7071L4.29289 12.7071C3.93241 12.3466 3.90468 11.7794 4.2097 11.3871Z" fill="#3F8CFF"/>
</svg>
