<svg width="168" height="214" viewBox="0 0 168 214" fill="none" xmlns="http://www.w3.org/2000/svg">
<rect opacity="0.100655" y="46" width="168" height="168" rx="24" fill="#3F8CFF"/>
<path fill-rule="evenodd" clip-rule="evenodd" d="M25 118.099V94.5142C25 90.3652 33.4076 87 43.7737 87H86.2263C96.596 87 105 90.3652 105 94.5142V119L25 118.099Z" fill="#B0D4FF"/>
<path fill-rule="evenodd" clip-rule="evenodd" d="M84.4004 3.30169C79.3827 0.655218 71.7451 0.297428 70.5062 0.130241C55.661 -1.87236 46.7262 19.7827 46.2015 26.3458C45.2322 38.4404 38.859 40.2842 29.8914 47.8571C11.9051 63.0467 17.1778 80.6947 27.0127 87.2505C32.9158 91.1869 43.3155 87.2505 43.3155 87.2505C43.4612 87.3529 71.7597 71.3695 85.7085 63.6576C106.621 60.6724 97.1868 10.0441 84.4004 3.30169Z" fill="#233862"/>
<path fill-rule="evenodd" clip-rule="evenodd" d="M62.6436 57.1725C58.2575 55.2607 54.9385 48.1557 55.0009 48.1521C56.9959 48.0617 59.9326 45.2755 61.6196 34L62 34.2683L76 40.4327C76 40.4327 74.9658 44.9465 74.2947 49.2435C73.7336 52.8538 73.4292 56.3124 74.2103 56.8219C74.2727 56.8617 67.3011 59.2035 62.6436 57.1725Z" fill="#FFB27D"/>
<path fill-rule="evenodd" clip-rule="evenodd" d="M76 40.1091C76 40.1091 74.9859 44.664 74.3278 49C66.2867 47.534 63.1292 39.409 62 35L76 40.1091Z" fill="#ED975D"/>
<path fill-rule="evenodd" clip-rule="evenodd" d="M78.9236 43.9951C78.9236 43.9951 59.2923 41.3976 61.1202 29.3896C62.948 17.3817 61.6472 8.95794 74.2581 10.1043C86.869 11.2543 88.6011 16.1954 88.9807 20.3492C89.3603 24.503 84.0756 44.3579 78.9236 43.9951Z" fill="#FFB27D"/>
<path fill-rule="evenodd" clip-rule="evenodd" d="M88 14.9706C88 14.9706 75.7764 25.9412 67.4636 26.8262C59.1473 27.7111 56 24.9293 56 24.9293C56 24.9293 60.9002 20.6911 63.8503 13.8504C64.7178 11.834 66.5567 10.4524 68.6717 10.262C74.6078 9.728 85.86 9.48529 88 14.9706Z" fill="#233862"/>
<path fill-rule="evenodd" clip-rule="evenodd" d="M80 13.3415C80 13.3415 84.1397 17.3952 85.447 20.4015C86.7034 23.3049 87.0811 30.2436 86.0788 33C86.0788 33 92.5353 20.2986 88.8786 14.128C85.0039 7.58253 80 13.3415 80 13.3415Z" fill="#233862"/>
<path fill-rule="evenodd" clip-rule="evenodd" d="M86.5477 120.157C85.511 121.043 82.6046 121.572 78.7816 121.821C66.7523 122.613 45.6109 120.651 44.807 118.451C42.0316 110.839 43.9922 108.473 41.6787 96.8174C41.435 95.5788 41.1368 94.2357 40.7876 92.7738C38.856 84.7694 36.9791 82.0473 43.8249 69.1855C50.0342 57.5372 56.0124 47.6666 56.5944 48.0086C72.9743 57.6334 74.1775 50.602 74.1775 50.602C74.1775 50.602 91.2838 66.8198 90.9964 85.7596C90.4108 124.586 90.8364 116.47 86.5477 120.157Z" fill="white"/>
<path fill-rule="evenodd" clip-rule="evenodd" d="M45.9824 118.463C43.1804 110.732 44.3356 107.314 42 95.4772L48.3963 80C48.3963 80 47.4305 98.2867 52.8435 103.095C58.2564 107.904 75.0167 112.379 77.6497 116.398C78.9203 118.329 79.7576 120.259 80 121.813C67.8558 122.618 46.7939 120.697 45.9824 118.463Z" fill="#EBF3FF"/>
<path fill-rule="evenodd" clip-rule="evenodd" d="M65 114.015C65 114.015 76.861 111.118 78.7736 112.271C80.6861 113.429 85.3622 117.634 85.9512 119.099C86.5366 120.564 81.6897 117.986 80.1116 117.523C79.0935 117.223 76.4028 118.245 75.0756 118.732C69.476 120.783 66.0472 119.73 66.0472 119.73L65 114.015Z" fill="#FFB27D"/>
<path fill-rule="evenodd" clip-rule="evenodd" d="M35.885 55.9893C28.1671 66.6959 12.8616 112.321 21.635 118.41C31.5145 125.261 66.5936 120.201 66.5936 120.201C66.5936 120.201 67.7612 114.774 66.1381 112.145C64.5114 109.519 38.119 105.279 36.9008 104.067C35.6825 102.855 52.1268 80.4309 52.1268 76.7948C52.1268 73.1588 56.5944 48 56.5944 48C56.5944 48 41.3652 48.3827 35.885 55.9893Z" fill="white"/>
<path fill-rule="evenodd" clip-rule="evenodd" d="M79 116C79 116 81.6763 119.301 82.5541 119.694C83.4318 120.087 84 119.989 84 119.989L82.1975 116.887L79 116Z" fill="#FFB27D"/>
<path fill-rule="evenodd" clip-rule="evenodd" d="M78 113L86 116.533C86 116.533 85.6578 117.038 84.6754 116.998C83.689 116.957 81.2048 116.13 81.2048 116.13L78 113Z" fill="#FFB27D"/>
<path fill-rule="evenodd" clip-rule="evenodd" d="M83 124H139.886L157 81H100.201L83 124Z" fill="#FDC748"/>
<path fill-rule="evenodd" clip-rule="evenodd" d="M140 122H65V124H139.335L140 122Z" fill="#E6B137"/>
<path fill-rule="evenodd" clip-rule="evenodd" d="M124.882 102.498C125.341 101.119 124.42 100 122.825 100C121.235 100 119.574 101.119 119.116 102.498C118.662 103.878 119.582 105 121.173 105C122.768 105 124.428 103.878 124.882 102.498Z" fill="white"/>
<g filter="url(#filter0_d_0_5)">
<rect x="19" y="140" width="129" height="48" rx="14" fill="#3F8CFF"/>
</g>
<path fill-rule="evenodd" clip-rule="evenodd" d="M48.1169 153H47.6169C46.1421 152.996 44.6847 153.341 43.3661 154.008C40.1518 155.614 38.1183 158.902 38.1169 162.5L38.1232 162.868C38.1638 163.972 38.3994 165.059 38.8182 166.081L38.9239 166.325L38.2286 168.003C37.9156 168.758 37.9243 169.608 38.2527 170.357L38.3282 170.516C39.0443 171.922 40.742 172.541 42.2051 171.899L43.8029 171.197L44.0364 171.299C45.1711 171.764 46.3884 172.003 47.6195 172C51.2149 171.999 54.5031 169.965 56.1114 166.747C56.7756 165.432 57.1208 163.975 57.117 162.498L57.117 162C56.8542 157.211 53.1382 153.411 48.4391 153.02L48.1169 153ZM47.6144 155L48.0749 154.999L48.0618 154.999C51.8687 155.209 54.9084 158.248 55.1185 162.055L55.117 162.5C55.12 163.665 54.8484 164.812 54.3243 165.849C53.0527 168.394 50.4568 169.999 47.6165 170C46.452 170.003 45.3053 169.732 44.2678 169.208C44.0013 169.073 43.6886 169.064 43.4152 169.184L41.4017 170.068C40.8959 170.289 40.3061 170.059 40.0842 169.554C39.9748 169.304 39.9719 169.021 40.0762 168.769L40.9407 166.683C41.0523 166.414 41.0409 166.109 40.9095 165.849C40.3855 164.812 40.1139 163.665 40.1169 162.503C40.118 159.66 41.7234 157.064 44.264 155.795C45.3053 155.269 46.4519 154.997 47.6144 155Z" fill="white"/>
<path d="M72.04 169.144C71.176 169.144 70.3653 169.027 69.608 168.792C68.8507 168.557 68.2107 168.227 67.688 167.8L68.376 166.296C68.92 166.712 69.4907 167.016 70.088 167.208C70.696 167.4 71.352 167.496 72.056 167.496C72.8347 167.496 73.432 167.363 73.848 167.096C74.2747 166.819 74.488 166.435 74.488 165.944C74.488 165.517 74.2907 165.192 73.896 164.968C73.512 164.744 72.8667 164.531 71.96 164.328C71.0213 164.125 70.2587 163.891 69.672 163.624C69.0853 163.357 68.6427 163.016 68.344 162.6C68.0453 162.184 67.896 161.656 67.896 161.016C67.896 160.355 68.0773 159.763 68.44 159.24C68.8027 158.717 69.3147 158.312 69.976 158.024C70.6373 157.725 71.4 157.576 72.264 157.576C73.0533 157.576 73.8053 157.699 74.52 157.944C75.2347 158.179 75.8213 158.504 76.28 158.92L75.592 160.424C74.5893 159.624 73.48 159.224 72.264 159.224C71.5387 159.224 70.9627 159.373 70.536 159.672C70.12 159.96 69.912 160.365 69.912 160.888C69.912 161.325 70.0987 161.661 70.472 161.896C70.8453 162.131 71.48 162.349 72.376 162.552C73.3253 162.765 74.0933 163.005 74.68 163.272C75.2773 163.528 75.7307 163.859 76.04 164.264C76.36 164.669 76.52 165.181 76.52 165.8C76.52 166.472 76.3387 167.064 75.976 167.576C75.624 168.077 75.1067 168.467 74.424 168.744C73.752 169.011 72.9573 169.144 72.04 169.144ZM85.4271 161.176V169H83.4751V167.8C83.2298 168.227 82.8991 168.557 82.4831 168.792C82.0671 169.016 81.5978 169.128 81.0751 169.128C79.1551 169.128 78.1951 168.051 78.1951 165.896V161.176H80.1951V165.912C80.1951 166.467 80.3071 166.877 80.5311 167.144C80.7551 167.411 81.1071 167.544 81.5871 167.544C82.1418 167.544 82.5845 167.363 82.9151 167C83.2565 166.627 83.4271 166.136 83.4271 165.528V161.176H85.4271ZM92.0048 160.984C92.6768 160.984 93.2741 161.155 93.7968 161.496C94.3301 161.837 94.7408 162.323 95.0288 162.952C95.3274 163.571 95.4768 164.285 95.4768 165.096C95.4768 165.907 95.3274 166.616 95.0288 167.224C94.7408 167.832 94.3354 168.301 93.8128 168.632C93.2901 168.963 92.6874 169.128 92.0048 169.128C91.4501 169.128 90.9541 169.011 90.5168 168.776C90.0794 168.541 89.7434 168.216 89.5088 167.8V171.88H87.5088V161.176H89.4768V162.36C89.7114 161.923 90.0474 161.587 90.4848 161.352C90.9328 161.107 91.4394 160.984 92.0048 160.984ZM91.4768 167.576C92.1061 167.576 92.5968 167.363 92.9488 166.936C93.3008 166.499 93.4768 165.885 93.4768 165.096C93.4768 164.285 93.3008 163.656 92.9488 163.208C92.5968 162.76 92.1061 162.536 91.4768 162.536C90.8368 162.536 90.3408 162.755 89.9888 163.192C89.6474 163.629 89.4768 164.253 89.4768 165.064C89.4768 165.864 89.6474 166.483 89.9888 166.92C90.3408 167.357 90.8368 167.576 91.4768 167.576ZM101.614 160.984C102.286 160.984 102.883 161.155 103.406 161.496C103.939 161.837 104.35 162.323 104.638 162.952C104.937 163.571 105.086 164.285 105.086 165.096C105.086 165.907 104.937 166.616 104.638 167.224C104.35 167.832 103.945 168.301 103.422 168.632C102.899 168.963 102.297 169.128 101.614 169.128C101.059 169.128 100.563 169.011 100.126 168.776C99.6888 168.541 99.3528 168.216 99.1181 167.8V171.88H97.1181V161.176H99.0861V162.36C99.3208 161.923 99.6568 161.587 100.094 161.352C100.542 161.107 101.049 160.984 101.614 160.984ZM101.086 167.576C101.715 167.576 102.206 167.363 102.558 166.936C102.91 166.499 103.086 165.885 103.086 165.096C103.086 164.285 102.91 163.656 102.558 163.208C102.206 162.76 101.715 162.536 101.086 162.536C100.446 162.536 99.9501 162.755 99.5981 163.192C99.2568 163.629 99.0861 164.253 99.0861 165.064C99.0861 165.864 99.2568 166.483 99.5981 166.92C99.9501 167.357 100.446 167.576 101.086 167.576ZM110.296 169.128C109.496 169.128 108.792 168.963 108.184 168.632C107.586 168.301 107.122 167.827 106.792 167.208C106.461 166.589 106.296 165.869 106.296 165.048C106.296 164.227 106.461 163.512 106.792 162.904C107.122 162.285 107.586 161.811 108.184 161.48C108.792 161.149 109.496 160.984 110.296 160.984C111.096 160.984 111.794 161.149 112.392 161.48C113 161.811 113.464 162.285 113.784 162.904C114.114 163.512 114.28 164.227 114.28 165.048C114.28 165.869 114.114 166.589 113.784 167.208C113.464 167.827 113 168.301 112.392 168.632C111.794 168.963 111.096 169.128 110.296 169.128ZM110.28 167.576C110.93 167.576 111.426 167.363 111.768 166.936C112.109 166.509 112.28 165.88 112.28 165.048C112.28 164.227 112.109 163.603 111.768 163.176C111.426 162.739 110.936 162.52 110.296 162.52C109.656 162.52 109.16 162.739 108.808 163.176C108.466 163.603 108.296 164.227 108.296 165.048C108.296 165.88 108.466 166.509 108.808 166.936C109.149 167.363 109.64 167.576 110.28 167.576ZM121.083 162.648L119.915 162.76C118.592 162.899 117.931 163.571 117.931 164.776V169H115.931V161.176H117.835V162.552C118.24 161.613 119.077 161.101 120.347 161.016L120.955 160.968L121.083 162.648ZM126.774 167.624C127.009 167.624 127.254 167.608 127.51 167.576L127.414 169.064C127.094 169.096 126.801 169.112 126.534 169.112C125.436 169.112 124.625 168.861 124.102 168.36C123.58 167.848 123.318 167.091 123.318 166.088V162.68H121.814V161.176H123.318V158.84H125.318V161.176H127.382V162.68H125.318V166.056C125.318 167.101 125.804 167.624 126.774 167.624Z" fill="white"/>
<defs>
<filter id="filter0_d_0_5" x="7" y="134" width="153" height="72" filterUnits="userSpaceOnUse" color-interpolation-filters="sRGB">
<feFlood flood-opacity="0" result="BackgroundImageFix"/>
<feColorMatrix in="SourceAlpha" type="matrix" values="0 0 0 0 0 0 0 0 0 0 0 0 0 0 0 0 0 0 127 0" result="hardAlpha"/>
<feOffset dy="6"/>
<feGaussianBlur stdDeviation="6"/>
<feColorMatrix type="matrix" values="0 0 0 0 0.247059 0 0 0 0 0.54902 0 0 0 0 1 0 0 0 0.263686 0"/>
<feBlend mode="normal" in2="BackgroundImageFix" result="effect1_dropShadow_0_5"/>
<feBlend mode="normal" in="SourceGraphic" in2="effect1_dropShadow_0_5" result="shape"/>
</filter>
</defs>
</svg>
