<svg width="24" height="24" viewBox="0 0 24 24" fill="none" xmlns="http://www.w3.org/2000/svg">
<path fill-rule="evenodd" clip-rule="evenodd" d="M15.0867 2C16.2603 2 17.2117 2.95138 17.2117 4.12497C17.2117 4.50324 17.1107 4.87465 16.9192 5.20085L15.9808 6.7991C15.4044 7.78094 15.4334 9.00449 16.0558 9.95789L17.5199 12.2009C18.2615 13.3369 17.9417 14.859 16.8057 15.6005C16.4064 15.8612 15.9398 16 15.463 16H12.9999V20.6C12.9999 21.1523 12.5522 21.6 11.9999 21.6C11.4871 21.6 11.0644 21.214 11.0067 20.7166L10.9999 20.6V16H8.55285C7.20012 16 6.10352 14.9034 6.10352 13.5507C6.10352 13.0707 6.24452 12.6013 6.50902 12.2009L8.02904 9.89929C8.63808 8.97711 8.69079 7.79476 8.16623 6.82205L7.29196 5.20085C6.72296 4.14572 7.11704 2.8291 8.17217 2.2601C8.48874 2.08938 8.84277 2 9.20244 2H15.0867ZM11.9999 14H15.463C15.5516 14 15.6383 13.9742 15.7125 13.9258C15.8972 13.8052 15.9657 13.5736 15.8877 13.3762L15.8452 13.2941L14.381 11.0511C13.3888 9.53122 13.3014 7.59936 14.1365 6.00214L14.2561 5.78648L15.1945 4.18824C15.2058 4.16905 15.2117 4.14721 15.2117 4.12497C15.2117 4.06975 15.1759 4.0229 15.1262 4.00637L15.0867 4H9.20244C9.17418 4 9.14635 4.00702 9.12148 4.02044C9.05514 4.05621 9.02205 4.12959 9.03437 4.19996L9.0523 4.25154L9.92657 5.87274C10.7611 7.42024 10.719 9.28608 9.8306 10.7893L9.69793 11.0015L8.17791 13.303C8.12938 13.3765 8.10352 13.4626 8.10352 13.5507C8.10352 13.7713 8.26247 13.9547 8.47208 13.9928L8.55285 14H11.9999Z" fill="#0A1629"/>
</svg>
